<svg width="32" height="32" viewBox="0 0 32 32" fill="none" xmlns="http://www.w3.org/2000/svg">
<circle cx="16.3022" cy="15.9267" r="15.6235" fill="white"/>
<path d="M2.80469 16.1445C2.80469 21.3755 5.84468 25.8962 10.2529 28.0384L3.94887 10.7661C3.21559 12.4097 2.80469 14.2286 2.80469 16.1445Z" fill="black"/>
<path d="M24.942 15.4779C24.942 13.8446 24.3554 12.7135 23.8522 11.8332C23.1823 10.7446 22.5544 9.82267 22.5544 8.73407C22.5544 7.51923 23.4757 6.38838 24.7736 6.38838C24.8322 6.38838 24.8877 6.39567 24.9448 6.39894C22.5936 4.24486 19.4611 2.92969 16.0205 2.92969C11.4035 2.92969 7.34156 5.29851 4.97852 8.88646C5.28858 8.89576 5.58078 8.9023 5.82898 8.9023C7.2113 8.9023 9.35104 8.73457 9.35104 8.73457C10.0634 8.69258 10.1474 9.73893 9.43578 9.82317C9.43578 9.82317 8.71985 9.90742 7.9232 9.94916L12.7358 24.264L15.6279 15.5901L13.5689 9.94866C12.8573 9.90691 12.1831 9.82267 12.1831 9.82267C11.4709 9.78093 11.5544 8.69207 12.2666 8.73407C12.2666 8.73407 14.449 8.9018 15.7476 8.9018C17.1297 8.9018 19.2697 8.73407 19.2697 8.73407C19.9826 8.69207 20.0663 9.73843 19.3544 9.82267C19.3544 9.82267 18.637 9.90691 17.8418 9.94866L22.6177 24.1551L23.9359 19.7501C24.5073 17.9222 24.942 16.6093 24.942 15.4779Z" fill="black"/>
<path d="M16.2513 17.3003L12.2861 28.8223C13.47 29.1703 14.7221 29.3607 16.0194 29.3607C17.5584 29.3607 19.0343 29.0946 20.408 28.6116C20.3726 28.555 20.3404 28.4949 20.314 28.4295L16.2513 17.3003Z" fill="black"/>
<path d="M27.6157 9.8042C27.6726 10.2252 27.7048 10.677 27.7048 11.1631C27.7048 12.5042 27.4543 14.0118 26.6999 15.8968L22.6631 27.5681C26.592 25.277 29.2347 21.0204 29.2347 16.145C29.2349 13.8473 28.648 11.6867 27.6157 9.8042Z" fill="black"/>
</svg>
