<svg width="10" height="11" viewBox="0 0 10 11" fill="none" xmlns="http://www.w3.org/2000/svg">
<g clip-path="url(#clip0_2004_574)">
<path d="M8.33333 4.25H4.58333C4.1231 4.25 3.75 4.6231 3.75 5.08333V8.83333C3.75 9.29357 4.1231 9.66667 4.58333 9.66667H8.33333C8.79357 9.66667 9.16667 9.29357 9.16667 8.83333V5.08333C9.16667 4.6231 8.79357 4.25 8.33333 4.25Z" stroke="black" stroke-width="0.833333" stroke-linecap="round" stroke-linejoin="round"/>
<path d="M2.08398 6.74967H1.66732C1.4463 6.74967 1.23434 6.66188 1.07806 6.5056C0.921782 6.34932 0.833984 6.13736 0.833984 5.91634V2.16634C0.833984 1.94533 0.921782 1.73337 1.07806 1.57709C1.23434 1.42081 1.4463 1.33301 1.66732 1.33301H5.41732C5.63833 1.33301 5.85029 1.42081 6.00657 1.57709C6.16285 1.73337 6.25065 1.94533 6.25065 2.16634V2.58301" stroke="black" stroke-width="0.833333" stroke-linecap="round" stroke-linejoin="round"/>
</g>
<defs>
<clipPath id="clip0_2004_574">
<rect width="10" height="10" fill="white" transform="translate(0 0.5)"/>
</clipPath>
</defs>
</svg>
