<svg width="406" height="205" viewBox="0 0 406 205" fill="none" xmlns="http://www.w3.org/2000/svg">
<rect x="247" width="158.095" height="60.3929" rx="30.1964" fill="#B5F602"/>
<path d="M276.434 38.1963V21.1338H286.348V22.833H278.473V28.833H285.281V30.5322H278.473V38.1963H276.434ZM287.59 32.3955V32.0205C287.59 30.2158 288.094 28.7471 289.102 27.6143C290.117 26.4736 291.473 25.9033 293.168 25.9033C294.863 25.9033 296.215 26.4736 297.223 27.6143C298.238 28.7471 298.746 30.2158 298.746 32.0205V32.3955C298.746 34.208 298.238 35.6846 297.223 36.8252C296.215 37.958 294.863 38.5244 293.168 38.5244C291.473 38.5244 290.117 37.958 289.102 36.8252C288.094 35.6846 287.59 34.208 287.59 32.3955ZM289.605 32.0205V32.3955C289.605 33.6689 289.902 34.7354 290.496 35.5947C291.098 36.4541 291.988 36.8838 293.168 36.8838C294.34 36.8838 295.227 36.4541 295.828 35.5947C296.43 34.7354 296.73 33.6689 296.73 32.3955V32.0205C296.73 30.7549 296.43 29.6924 295.828 28.833C295.227 27.9736 294.34 27.5439 293.168 27.5439C291.988 27.5439 291.098 27.9736 290.496 28.833C289.902 29.6924 289.605 30.7549 289.605 32.0205ZM301.324 38.1963V26.2314H303.129L303.199 27.79H303.258C303.57 27.2822 303.977 26.8408 304.477 26.4658C304.984 26.0908 305.59 25.9033 306.293 25.9033C306.457 25.9033 306.633 25.9229 306.82 25.9619C307.008 25.9932 307.141 26.0244 307.219 26.0557V27.8838C307.07 27.8525 306.906 27.8291 306.727 27.8135C306.555 27.7979 306.367 27.79 306.164 27.79C305.492 27.79 304.906 27.9736 304.406 28.3408C303.914 28.708 303.547 29.1729 303.305 29.7354V38.1963H301.324ZM309.129 38.1963V20.4072H311.109V27.6729C311.469 27.165 311.945 26.7588 312.539 26.4541C313.141 26.1494 313.863 25.9971 314.707 25.9971C316.223 25.9971 317.426 26.5635 318.316 27.6963C319.207 28.8213 319.652 30.2549 319.652 31.9971V32.3721C319.652 34.1143 319.207 35.5596 318.316 36.708C317.426 37.8564 316.223 38.4307 314.707 38.4307C313.863 38.4307 313.121 38.2588 312.48 37.915C311.848 37.5635 311.375 37.1377 311.062 36.6377H311.004L310.934 38.1963H309.129ZM311.109 34.7041C311.352 35.251 311.742 35.7354 312.281 36.1572C312.828 36.5791 313.5 36.79 314.297 36.79C315.438 36.79 316.277 36.3682 316.816 35.5244C317.363 34.6729 317.637 33.6221 317.637 32.3721V31.9971C317.637 30.7471 317.363 29.708 316.816 28.8799C316.277 28.0518 315.426 27.6377 314.262 27.6377C313.488 27.6377 312.828 27.8486 312.281 28.2705C311.742 28.6924 311.352 29.1729 311.109 29.7119V34.7041ZM322.336 38.1963V26.2314H324.305V38.1963H322.336ZM322.066 22.4229C322.066 22.0869 322.172 21.8018 322.383 21.5674C322.602 21.333 322.914 21.2158 323.32 21.2158C323.719 21.2158 324.027 21.333 324.246 21.5674C324.465 21.7939 324.574 22.0791 324.574 22.4229C324.574 22.7666 324.465 23.0557 324.246 23.29C324.027 23.5244 323.719 23.6416 323.32 23.6416C322.914 23.6416 322.602 23.5244 322.383 23.29C322.172 23.0557 322.066 22.7666 322.066 22.4229ZM326.988 32.3955V32.0205C326.988 30.2783 327.438 28.8408 328.336 27.708C329.242 26.5674 330.449 25.9971 331.957 25.9971C332.801 25.9971 333.52 26.1455 334.113 26.4424C334.715 26.7393 335.188 27.1338 335.531 27.626V20.4072H337.512V38.1963H335.707L335.637 36.6025H335.578C335.266 37.1025 334.793 37.5322 334.16 37.8916C333.535 38.251 332.801 38.4307 331.957 38.4307C330.441 38.4307 329.234 37.8604 328.336 36.7197C327.438 35.5791 326.988 34.1377 326.988 32.3955ZM329.004 32.3955C329.004 33.6455 329.273 34.6924 329.812 35.5361C330.359 36.3721 331.215 36.79 332.379 36.79C333.152 36.79 333.809 36.5791 334.348 36.1572C334.895 35.7275 335.289 35.2393 335.531 34.6924V29.7002C335.297 29.1533 334.906 28.6729 334.359 28.2588C333.812 27.8447 333.152 27.6377 332.379 27.6377C331.215 27.6377 330.359 28.0557 329.812 28.8916C329.273 29.7275 329.004 30.7705 329.004 32.0205V32.3955ZM340.09 32.3955V32.0205C340.09 30.2783 340.539 28.8408 341.438 27.708C342.344 26.5674 343.551 25.9971 345.059 25.9971C345.902 25.9971 346.621 26.1455 347.215 26.4424C347.816 26.7393 348.289 27.1338 348.633 27.626V20.4072H350.613V38.1963H348.809L348.738 36.6025H348.68C348.367 37.1025 347.895 37.5322 347.262 37.8916C346.637 38.251 345.902 38.4307 345.059 38.4307C343.543 38.4307 342.336 37.8604 341.438 36.7197C340.539 35.5791 340.09 34.1377 340.09 32.3955ZM342.105 32.3955C342.105 33.6455 342.375 34.6924 342.914 35.5361C343.461 36.3721 344.316 36.79 345.48 36.79C346.254 36.79 346.91 36.5791 347.449 36.1572C347.996 35.7275 348.391 35.2393 348.633 34.6924V29.7002C348.398 29.1533 348.008 28.6729 347.461 28.2588C346.914 27.8447 346.254 27.6377 345.48 27.6377C344.316 27.6377 343.461 28.0557 342.914 28.8916C342.375 29.7275 342.105 30.7705 342.105 32.0205V32.3955ZM353.191 32.3955V32.0205C353.191 30.2158 353.68 28.7471 354.656 27.6143C355.633 26.4736 356.922 25.9033 358.523 25.9033C360.133 25.9033 361.371 26.4346 362.238 27.4971C363.105 28.5518 363.539 29.9932 363.539 31.8213V32.6299H354.375V31.0361H361.547V30.8018C361.547 29.9111 361.301 29.1455 360.809 28.5049C360.316 27.8643 359.582 27.5439 358.605 27.5439C357.465 27.5439 356.609 27.9736 356.039 28.833C355.477 29.6846 355.195 30.7471 355.195 32.0205V32.3955C355.195 33.6768 355.492 34.7471 356.086 35.6064C356.688 36.458 357.602 36.8838 358.828 36.8838C359.602 36.8838 360.266 36.7197 360.82 36.3916C361.375 36.0557 361.82 35.6533 362.156 35.1846L363.445 36.2275C363.078 36.79 362.504 37.3135 361.723 37.7979C360.941 38.2822 359.98 38.5244 358.84 38.5244C357.02 38.5244 355.621 37.958 354.645 36.8252C353.676 35.6846 353.191 34.208 353.191 32.3955ZM366.059 38.1963V26.2314H367.863L367.934 27.8135H367.992C368.414 27.2432 368.941 26.7979 369.574 26.4775C370.207 26.1572 370.91 25.9971 371.684 25.9971C372.879 25.9971 373.828 26.3369 374.531 27.0166C375.242 27.6963 375.598 28.833 375.598 30.4268V38.1963H373.629V30.4385C373.629 29.4463 373.406 28.7393 372.961 28.3174C372.523 27.8877 371.902 27.6729 371.098 27.6729C370.41 27.6729 369.801 27.8643 369.27 28.2471C368.738 28.6221 368.328 29.1064 368.039 29.7002V38.1963H366.059Z" fill="black"/>
<path d="M362.569 79.3826L388.179 53.7722C389.514 52.4373 388.569 50.1548 386.681 50.1548H361.071C359.9 50.1548 358.952 51.1035 358.952 52.2738V77.8842C358.952 79.7721 361.234 80.7175 362.569 79.3826Z" fill="#B5F602"/>
<path fill-rule="evenodd" clip-rule="evenodd" d="M139.172 72H232.184V85.2874H245.471V98.5748H258.758V204.874H139.174V72H139.172ZM165.747 165.012V178.299H179.034V165.012H218.896V178.299H232.184V165.012H218.896V151.724H179.034V165.012H165.747ZM169.564 98.5748V125.15H182.852V98.5748H169.564ZM218.896 85.2874V111.862H245.471V98.5748H232.184V85.2874H218.896ZM205.609 98.5748V85.2874H152.459V191.584H245.471V125.15H205.609V98.5748Z" fill="black"/>
<path fill-rule="evenodd" clip-rule="evenodd" d="M121.573 164.12H104.107V199.224H70.0399V164.12H0V130.053H17.4655V112.587H34.931V95.1217H52.5701V77.6519H104.105V147.344H121.57V164.12H121.573ZM69.0003 146.654V112.587H52.5722V130.053H34.9331V146.654H69.0003Z" fill="black"/>
<rect x="344" y="101" width="33" height="17" fill="black"/>
<rect x="343" y="153" width="17" height="17" fill="black"/>
<rect x="360" y="153" width="17" height="17" fill="black"/>
<rect x="344" y="135" width="18" height="17" transform="rotate(90 344 135)" fill="black"/>
<rect x="327" y="187" width="18" height="17" transform="rotate(90 327 187)" fill="black"/>
<rect x="326" y="169" width="18" height="17" transform="rotate(90 326 169)" fill="black"/>
<rect x="327" y="101" width="18" height="17" transform="rotate(90 327 101)" fill="black"/>
<rect x="327" y="83" width="18" height="17" transform="rotate(90 327 83)" fill="black"/>
<rect x="344" y="187" width="18" height="17" transform="rotate(90 344 187)" fill="black"/>
<rect x="343" y="169" width="18" height="17" transform="rotate(90 343 169)" fill="black"/>
<rect x="344" y="101" width="18" height="17" transform="rotate(90 344 101)" fill="black"/>
<rect x="344" y="83" width="18" height="17" transform="rotate(90 344 83)" fill="black"/>
<rect x="344" y="118" width="33" height="17" fill="black"/>
<rect x="343" y="170" width="17" height="17" fill="black"/>
<rect x="360" y="170" width="17" height="17" fill="black"/>
<rect x="327" y="135" width="18" height="17" transform="rotate(90 327 135)" fill="black"/>
<rect x="310" y="135" width="18" height="17" transform="rotate(90 310 135)" fill="black"/>
<rect x="310" y="187" width="18" height="17" transform="rotate(90 310 187)" fill="black"/>
<rect x="309" y="169" width="18" height="17" transform="rotate(90 309 169)" fill="black"/>
<rect x="310" y="101" width="18" height="17" transform="rotate(90 310 101)" fill="black"/>
<rect x="310" y="83" width="18" height="17" transform="rotate(90 310 83)" fill="black"/>
<rect x="293" y="169" width="18" height="17" transform="rotate(90 293 169)" fill="black"/>
<rect x="293" y="101" width="18" height="17" transform="rotate(90 293 101)" fill="black"/>
</svg>
