<svg width="25" height="25" viewBox="0 0 25 25" fill="none" xmlns="http://www.w3.org/2000/svg">
<g clip-path="url(#clip0_479_1663)">
<path fill-rule="evenodd" clip-rule="evenodd" d="M12.4109 0.195312C5.56691 0.195312 0.0175781 5.88322 0.0175781 12.9046C0.0175781 18.5206 3.5696 23.2789 8.49373 24.961C9.1134 25.0771 9.34024 24.6843 9.34024 24.3468C9.34024 24.0425 9.32918 23.2457 9.32364 22.1834C5.87675 22.9525 5.14643 20.4792 5.14643 20.4792C4.58209 19.013 3.76877 18.6202 3.76877 18.6202C2.64563 17.8289 3.85177 17.8455 3.85177 17.8455C5.09663 17.9341 5.74949 19.1569 5.74949 19.1569C6.85604 21.0989 8.64865 20.5401 9.35684 20.2137C9.46749 19.3948 9.78839 18.8304 10.1425 18.515C7.39272 18.1941 4.4991 17.1041 4.4991 12.2351C4.4991 10.8463 4.98044 9.71205 5.77163 8.82677C5.64437 8.50586 5.21835 7.21114 5.89335 5.46271C5.89335 5.46271 6.9335 5.11967 9.30151 6.76297C10.2919 6.48078 11.3486 6.34246 12.4054 6.33693C13.4566 6.34246 14.5189 6.48078 15.5092 6.76297C17.8773 5.11967 18.9119 5.46271 18.9119 5.46271C19.5869 7.21114 19.1609 8.50586 19.0336 8.82677C19.8248 9.71758 20.3061 10.8518 20.3061 12.2351C20.3061 17.1152 17.407 18.1886 14.6461 18.504C15.0888 18.8968 15.4871 19.6714 15.4871 20.8555C15.4871 22.5541 15.4705 23.9263 15.4705 24.3413C15.4705 24.6788 15.6918 25.0771 16.3226 24.9499C21.2578 23.2734 24.8042 18.515 24.8042 12.9046C24.8042 5.88322 19.2549 0.195312 12.4109 0.195312Z" fill="white"/>
</g>
<defs>
<clipPath id="clip0_479_1663">
<rect width="24.7867" height="24.7867" fill="white" transform="translate(0.0175781 0.195312)"/>
</clipPath>
</defs>
</svg>
