<svg width="418" height="336" viewBox="0 0 418 336" fill="none" xmlns="http://www.w3.org/2000/svg">
<path d="M260 0V216.859H216.66V260H130V216.859H86.6603V260H43.3397V216.859H0V173.333H43.3397V216.494H86.6603V0H130V130.192H216.66V0H260Z" fill="#B5F602"/>
<path d="M394.513 276.719H385.787V285.09H394.513V276.719Z" fill="black"/>
<path d="M385.788 285.09H377.064V293.464H385.788V285.09Z" fill="black"/>
<path d="M385.788 276.719H377.064V285.09H385.788V276.719Z" fill="#828282"/>
<path d="M385.788 268.345H377.064V276.719H385.788V268.345Z" fill="black"/>
<path d="M377.065 285.09H368.34V293.464H377.065V285.09Z" fill="black"/>
<path d="M377.065 276.719H368.34V285.09H377.065V276.719Z" fill="#3D3D3D"/>
<path d="M377.065 268.345H368.34V276.719H377.065V268.345Z" fill="#828282"/>
<path d="M377.065 259.974H368.34V268.345H377.065V259.974Z" fill="black"/>
<path d="M377.065 251.602H368.34V259.976H377.065V251.602Z" fill="black"/>
<path d="M368.339 276.719H359.613V285.09H368.339V276.719Z" fill="black"/>
<path d="M368.339 268.345H359.613V276.719H368.339V268.345Z" fill="#3D3D3D"/>
<path d="M368.339 259.974H359.613V268.345H368.339V259.974Z" fill="black"/>
<path d="M368.339 243.228H359.613V251.602H368.339V243.228Z" fill="black"/>
<path d="M359.61 268.345H350.887V276.719H359.61V268.345Z" fill="black"/>
<path d="M359.61 243.228H350.887V251.602H359.61V243.228Z" fill="black"/>
<path d="M350.887 293.464H342.162V301.838H350.887V293.464Z" fill="black"/>
<path d="M350.887 243.228H342.162V251.602H350.887V243.228Z" fill="black"/>
<path d="M342.163 293.464H333.439V301.838H342.163V293.464Z" fill="black"/>
<path d="M342.163 285.09H333.439V293.464H342.163V285.09Z" fill="black"/>
<path d="M342.163 234.856H333.439V243.228H342.163V234.856Z" fill="black"/>
<path d="M333.438 293.464H324.713V301.838H333.438V293.464Z" fill="black"/>
<path d="M333.438 285.09H324.713V293.464H333.438V285.09Z" fill="#828282"/>
<path d="M333.438 276.719H324.713V285.09H333.438V276.719Z" fill="black"/>
<path d="M333.438 243.228H324.713V251.602H333.438V243.228Z" fill="black"/>
<path d="M333.438 234.856H324.713V243.228H333.438V234.856Z" fill="black"/>
<path d="M333.438 226.483H324.713V234.857H333.438V226.483Z" fill="black"/>
<path d="M333.438 176.25H324.713V184.623H333.438V176.25Z" fill="black"/>
<path d="M333.438 167.878H324.713V176.25H333.438V167.878Z" fill="black"/>
<path d="M333.438 159.504H324.713V167.878H333.438V159.504Z" fill="black"/>
<path d="M333.438 151.132H324.713V159.504H333.438V151.132Z" fill="black"/>
<path d="M333.438 142.759H324.713V151.132H333.438V142.759Z" fill="black"/>
<path d="M333.438 134.387H324.713V142.761H333.438V134.387Z" fill="black"/>
<path d="M333.438 126.016H324.713V134.387H333.438V126.016Z" fill="black"/>
<path d="M333.438 117.642H324.713V126.015H333.438V117.642Z" fill="black"/>
<path d="M333.438 109.27H324.713V117.642H333.438V109.27Z" fill="black"/>
<path d="M333.438 100.896H324.713V109.27H333.438V100.896Z" fill="black"/>
<path d="M324.712 293.464H315.986V301.838H324.712V293.464Z" fill="black"/>
<path d="M324.712 285.09H315.986V293.464H324.712V285.09Z" fill="#3D3D3D"/>
<path d="M324.712 276.719H315.986V285.09H324.712V276.719Z" fill="#828282"/>
<path d="M324.712 268.345H315.986V276.719H324.712V268.345Z" fill="black"/>
<path d="M324.712 251.602H315.986V259.976H324.712V251.602Z" fill="black"/>
<path d="M324.712 243.228H315.986V251.602H324.712V243.228Z" fill="#828282"/>
<path d="M324.712 234.856H315.986V243.228H324.712V234.856Z" fill="#828282"/>
<path d="M324.712 226.483H315.986V234.857H324.712V226.483Z" fill="#828282"/>
<path d="M324.712 218.111H315.986V226.483H324.712V218.111Z" fill="black"/>
<path d="M324.712 184.621H315.986V192.994H324.712V184.621Z" fill="black"/>
<path d="M324.712 176.25H315.986V184.623H324.712V176.25Z" fill="#828282"/>
<path d="M324.712 167.878H315.986V176.25H324.712V167.878Z" fill="#828282"/>
<path d="M324.712 159.504H315.986V167.878H324.712V159.504Z" fill="#828282"/>
<path d="M324.712 151.132H315.986V159.504H324.712V151.132Z" fill="#828282"/>
<path d="M324.712 142.759H315.986V151.132H324.712V142.759Z" fill="#828282"/>
<path d="M324.712 134.387H315.986V142.761H324.712V134.387Z" fill="#828282"/>
<path d="M324.712 126.016H315.986V134.387H324.712V126.016Z" fill="#828282"/>
<path d="M324.712 117.642H315.986V126.015H324.712V117.642Z" fill="#828282"/>
<path d="M324.712 109.27H315.986V117.642H324.712V109.27Z" fill="#828282"/>
<path d="M324.712 100.896H315.986V109.27H324.712V100.896Z" fill="#828282"/>
<path d="M324.712 92.5249H315.986V100.899H324.712V92.5249Z" fill="black"/>
<path d="M315.987 293.464H307.264V301.838H315.987V293.464Z" fill="black"/>
<path d="M315.987 285.09H307.264V293.464H315.987V285.09Z" fill="#515151"/>
<path d="M315.987 276.719H307.264V285.09H315.987V276.719Z" fill="#515151"/>
<path d="M315.987 268.345H307.264V276.719H315.987V268.345Z" fill="black"/>
<path d="M315.987 251.602H307.264V259.976H315.987V251.602Z" fill="black"/>
<path d="M315.987 243.228H307.264V251.602H315.987V243.228Z" fill="#828282"/>
<path d="M315.987 234.856H307.264V243.228H315.987V234.856Z" fill="#828282"/>
<path d="M315.987 226.483H307.264V234.857H315.987V226.483Z" fill="#828282"/>
<path d="M315.987 218.111H307.264V226.483H315.987V218.111Z" fill="black"/>
<path d="M315.987 184.621H307.264V192.994H315.987V184.621Z" fill="black"/>
<path d="M315.987 176.25H307.264V184.623H315.987V176.25Z" fill="#828282"/>
<path d="M315.987 167.878H307.264V176.25H315.987V167.878Z" fill="#828282"/>
<path d="M315.987 159.504H307.264V167.878H315.987V159.504Z" fill="#828282"/>
<path d="M315.987 151.132H307.264V159.504H315.987V151.132Z" fill="#828282"/>
<path d="M315.987 142.759H307.264V151.132H315.987V142.759Z" fill="#828282"/>
<path d="M315.987 134.387H307.264V142.761H315.987V134.387Z" fill="#828282"/>
<path d="M315.987 126.016H307.264V134.387H315.987V126.016Z" fill="#828282"/>
<path d="M315.987 117.642H307.264V126.015H315.987V117.642Z" fill="#828282"/>
<path d="M315.987 109.27H307.264V117.642H315.987V109.27Z" fill="#828282"/>
<path d="M315.987 100.896H307.264V109.27H315.987V100.896Z" fill="#828282"/>
<path d="M315.987 92.5249H307.264V100.899H315.987V92.5249Z" fill="black"/>
<path d="M307.262 293.464H298.537V301.838H307.262V293.464Z" fill="black"/>
<path d="M307.262 285.09H298.537V293.464H307.262V285.09Z" fill="#828282"/>
<path d="M307.262 276.719H298.537V285.09H307.262V276.719Z" fill="#3D3D3D"/>
<path d="M307.262 268.345H298.537V276.719H307.262V268.345Z" fill="black"/>
<path d="M307.262 251.602H298.537V259.976H307.262V251.602Z" fill="black"/>
<path d="M307.262 243.228H298.537V251.602H307.262V243.228Z" fill="#828282"/>
<path d="M307.262 234.856H298.537V243.228H307.262V234.856Z" fill="#B5F602"/>
<path d="M307.262 226.483H298.537V234.857H307.262V226.483Z" fill="#828282"/>
<path d="M307.262 218.111H298.537V226.483H307.262V218.111Z" fill="black"/>
<path d="M307.262 209.74H298.537V218.113H307.262V209.74Z" fill="black"/>
<path d="M307.262 184.621H298.537V192.994H307.262V184.621Z" fill="black"/>
<path d="M307.262 176.25H298.537V184.623H307.262V176.25Z" fill="#828282"/>
<path d="M307.262 167.878H298.537V176.25H307.262V167.878Z" fill="#CBCBCB"/>
<path d="M307.262 159.504H298.537V167.878H307.262V159.504Z" fill="#CBCBCB"/>
<path d="M307.262 151.132H298.537V159.504H307.262V151.132Z" fill="#CBCBCB"/>
<path d="M307.262 142.759H298.537V151.132H307.262V142.759Z" fill="#CBCBCB"/>
<path d="M307.262 134.387H298.537V142.761H307.262V134.387Z" fill="#CBCBCB"/>
<path d="M307.262 126.016H298.537V134.387H307.262V126.016Z" fill="#CBCBCB"/>
<path d="M307.262 117.642H298.537V126.015H307.262V117.642Z" fill="#CBCBCB"/>
<path d="M307.262 109.27H298.537V117.642H307.262V109.27Z" fill="#CBCBCB"/>
<path d="M307.262 100.896H298.537V109.27H307.262V100.896Z" fill="#828282"/>
<path d="M307.262 92.5249H298.537V100.899H307.262V92.5249Z" fill="black"/>
<path d="M298.536 293.464H289.812V301.838H298.536V293.464Z" fill="black"/>
<path d="M298.536 285.09H289.812V293.464H298.536V285.09Z" fill="#3D3D3D"/>
<path d="M298.536 276.719H289.812V285.09H298.536V276.719Z" fill="#828282"/>
<path d="M298.536 268.345H289.812V276.719H298.536V268.345Z" fill="black"/>
<path d="M298.536 251.602H289.812V259.976H298.536V251.602Z" fill="black"/>
<path d="M298.536 243.228H289.812V251.602H298.536V243.228Z" fill="#515151"/>
<path d="M298.536 234.856H289.812V243.228H298.536V234.856Z" fill="#828282"/>
<path d="M298.536 226.483H289.812V234.857H298.536V226.483Z" fill="#828282"/>
<path d="M298.536 218.111H289.812V226.483H298.536V218.111Z" fill="black"/>
<path d="M298.536 209.74H289.812V218.113H298.536V209.74Z" fill="#828282"/>
<path d="M298.536 201.366H289.812V209.74H298.536V201.366Z" fill="black"/>
<path d="M298.536 184.621H289.812V192.994H298.536V184.621Z" fill="black"/>
<path d="M298.536 176.25H289.812V184.623H298.536V176.25Z" fill="#515151"/>
<path d="M298.536 167.878H289.812V176.25H298.536V167.878Z" fill="#CBCBCB"/>
<path d="M298.536 159.504H289.812V167.878H298.536V159.504Z" fill="#878787"/>
<path d="M298.536 151.132H289.812V159.504H298.536V151.132Z" fill="#CBCBCB"/>
<path d="M298.536 142.759H289.812V151.132H298.536V142.759Z" fill="#CBCBCB"/>
<path d="M298.536 134.387H289.812V142.761H298.536V134.387Z" fill="#CBCBCB"/>
<path d="M298.536 126.016H289.812V134.387H298.536V126.016Z" fill="#CBCBCB"/>
<path d="M298.536 117.642H289.812V126.015H298.536V117.642Z" fill="#878787"/>
<path d="M298.536 109.27H289.812V117.642H298.536V109.27Z" fill="#CBCBCB"/>
<path d="M298.536 100.896H289.812V109.27H298.536V100.896Z" fill="#828282"/>
<path d="M298.536 92.5249H289.812V100.899H298.536V92.5249Z" fill="black"/>
<path d="M289.813 293.464H281.088V301.838H289.813V293.464Z" fill="black"/>
<path d="M289.813 285.09H281.088V293.464H289.813V285.09Z" fill="#828282"/>
<path d="M289.813 276.719H281.088V285.09H289.813V276.719Z" fill="#3D3D3D"/>
<path d="M289.813 268.345H281.088V276.719H289.813V268.345Z" fill="black"/>
<path d="M289.813 251.602H281.088V259.976H289.813V251.602Z" fill="black"/>
<path d="M289.813 243.228H281.088V251.602H289.813V243.228Z" fill="#515151"/>
<path d="M289.813 234.856H281.088V243.228H289.813V234.856Z" fill="#515151"/>
<path d="M289.813 226.483H281.088V234.857H289.813V226.483Z" fill="#828282"/>
<path d="M289.813 218.111H281.088V226.483H289.813V218.111Z" fill="black"/>
<path d="M289.813 209.74H281.088V218.113H289.813V209.74Z" fill="#515151"/>
<path d="M289.813 201.366H281.088V209.74H289.813V201.366Z" fill="black"/>
<path d="M289.813 184.621H281.088V192.994H289.813V184.621Z" fill="black"/>
<path d="M289.813 176.25H281.088V184.623H289.813V176.25Z" fill="#515151"/>
<path d="M289.813 167.878H281.088V176.25H289.813V167.878Z" fill="#CBCBCB"/>
<path d="M289.813 159.504H281.088V167.878H289.813V159.504Z" fill="#CBCBCB"/>
<path d="M289.813 151.132H281.088V159.504H289.813V151.132Z" fill="#CBCBCB"/>
<path d="M289.813 142.759H281.088V151.132H289.813V142.759Z" fill="#878787"/>
<path d="M289.813 134.387H281.088V142.761H289.813V134.387Z" fill="#CBCBCB"/>
<path d="M289.813 126.016H281.088V134.387H289.813V126.016Z" fill="#CBCBCB"/>
<path d="M289.813 117.642H281.088V126.015H289.813V117.642Z" fill="#878787"/>
<path d="M289.813 109.27H281.088V117.642H289.813V109.27Z" fill="#CBCBCB"/>
<path d="M289.813 100.896H281.088V109.27H289.813V100.896Z" fill="#828282"/>
<path d="M289.813 92.5249H281.088V100.899H289.813V92.5249Z" fill="black"/>
<path d="M281.087 293.464H272.361V301.838H281.087V293.464Z" fill="black"/>
<path d="M281.087 285.09H272.361V293.464H281.087V285.09Z" fill="#515151"/>
<path d="M281.087 276.719H272.361V285.09H281.087V276.719Z" fill="#828282"/>
<path d="M281.087 268.345H272.361V276.719H281.087V268.345Z" fill="black"/>
<path d="M281.087 251.602H272.361V259.976H281.087V251.602Z" fill="black"/>
<path d="M281.087 243.228H272.361V251.602H281.087V243.228Z" fill="#515151"/>
<path d="M281.087 234.856H272.361V243.228H281.087V234.856Z" fill="#9E9E9E"/>
<path d="M281.087 226.483H272.361V234.857H281.087V226.483Z" fill="#515151"/>
<path d="M281.087 218.111H272.361V226.483H281.087V218.111Z" fill="black"/>
<path d="M281.087 209.74H272.361V218.113H281.087V209.74Z" fill="#515151"/>
<path d="M281.087 201.366H272.361V209.74H281.087V201.366Z" fill="black"/>
<path d="M281.087 184.621H272.361V192.994H281.087V184.621Z" fill="black"/>
<path d="M281.087 176.25H272.361V184.623H281.087V176.25Z" fill="#515151"/>
<path d="M281.087 167.878H272.361V176.25H281.087V167.878Z" fill="#CBCBCB"/>
<path d="M281.087 159.504H272.361V167.878H281.087V159.504Z" fill="#CBCBCB"/>
<path d="M281.087 151.132H272.361V159.504H281.087V151.132Z" fill="#CBCBCB"/>
<path d="M281.087 142.759H272.361V151.132H281.087V142.759Z" fill="#878787"/>
<path d="M281.087 134.387H272.361V142.761H281.087V134.387Z" fill="#CBCBCB"/>
<path d="M281.087 126.016H272.361V134.387H281.087V126.016Z" fill="#CBCBCB"/>
<path d="M281.087 117.642H272.361V126.015H281.087V117.642Z" fill="#878787"/>
<path d="M281.087 109.27H272.361V117.642H281.087V109.27Z" fill="#CBCBCB"/>
<path d="M281.087 100.896H272.361V109.27H281.087V100.896Z" fill="#828282"/>
<path d="M281.087 92.5249H272.361V100.899H281.087V92.5249Z" fill="black"/>
<path d="M272.362 293.464H263.639V301.838H272.362V293.464Z" fill="black"/>
<path d="M272.362 285.09H263.639V293.464H272.362V285.09Z" fill="#828282"/>
<path d="M272.362 276.719H263.639V285.09H272.362V276.719Z" fill="#3D3D3D"/>
<path d="M272.362 268.345H263.639V276.719H272.362V268.345Z" fill="black"/>
<path d="M272.362 251.602H263.639V259.976H272.362V251.602Z" fill="black"/>
<path d="M272.362 243.228H263.639V251.602H272.362V243.228Z" fill="#515151"/>
<path d="M272.362 234.856H263.639V243.228H272.362V234.856Z" fill="#9E9E9E"/>
<path d="M272.362 226.483H263.639V234.857H272.362V226.483Z" fill="#515151"/>
<path d="M272.362 218.111H263.639V226.483H272.362V218.111Z" fill="black"/>
<path d="M272.362 209.74H263.639V218.113H272.362V209.74Z" fill="#515151"/>
<path d="M272.362 201.366H263.639V209.74H272.362V201.366Z" fill="black"/>
<path d="M272.362 192.995H263.639V201.366H272.362V192.995Z" fill="black"/>
<path d="M272.362 184.621H263.639V192.994H272.362V184.621Z" fill="black"/>
<path d="M272.362 176.25H263.639V184.623H272.362V176.25Z" fill="#515151"/>
<path d="M272.362 167.878H263.639V176.25H272.362V167.878Z" fill="#CBCBCB"/>
<path d="M272.362 159.504H263.639V167.878H272.362V159.504Z" fill="#CBCBCB"/>
<path d="M272.362 151.132H263.639V159.504H272.362V151.132Z" fill="#CBCBCB"/>
<path d="M272.362 142.759H263.639V151.132H272.362V142.759Z" fill="#878787"/>
<path d="M272.362 134.387H263.639V142.761H272.362V134.387Z" fill="#CBCBCB"/>
<path d="M272.362 126.016H263.639V134.387H272.362V126.016Z" fill="#CBCBCB"/>
<path d="M272.362 117.642H263.639V126.015H272.362V117.642Z" fill="#CBCBCB"/>
<path d="M272.362 109.27H263.639V117.642H272.362V109.27Z" fill="#CBCBCB"/>
<path d="M272.362 100.896H263.639V109.27H272.362V100.896Z" fill="#828282"/>
<path d="M272.362 92.5249H263.639V100.899H272.362V92.5249Z" fill="black"/>
<path d="M263.636 293.464H254.91V301.838H263.636V293.464Z" fill="black"/>
<path d="M263.636 285.09H254.91V293.464H263.636V285.09Z" fill="#3D3D3D"/>
<path d="M263.636 276.719H254.91V285.09H263.636V276.719Z" fill="#515151"/>
<path d="M263.636 268.345H254.91V276.719H263.636V268.345Z" fill="black"/>
<path d="M263.636 251.602H254.91V259.976H263.636V251.602Z" fill="black"/>
<path d="M263.636 243.228H254.91V251.602H263.636V243.228Z" fill="#3D3D3D"/>
<path d="M263.636 234.856H254.91V243.228H263.636V234.856Z" fill="#9E9E9E"/>
<path d="M263.636 226.483H254.91V234.857H263.636V226.483Z" fill="#515151"/>
<path d="M263.636 218.111H254.91V226.483H263.636V218.111Z" fill="black"/>
<path d="M263.636 209.74H254.91V218.113H263.636V209.74Z" fill="#3D3D3D"/>
<path d="M263.636 201.366H254.91V209.74H263.636V201.366Z" fill="black"/>
<path d="M263.636 192.995H254.91V201.366H263.636V192.995Z" fill="#3D3D3D"/>
<path d="M263.636 184.621H254.91V192.994H263.636V184.621Z" fill="black"/>
<path d="M263.636 176.25H254.91V184.623H263.636V176.25Z" fill="#515151"/>
<path d="M263.636 167.878H254.91V176.25H263.636V167.878Z" fill="#CBCBCB"/>
<path d="M263.636 159.504H254.91V167.878H263.636V159.504Z" fill="#CBCBCB"/>
<path d="M263.636 151.132H254.91V159.504H263.636V151.132Z" fill="#CBCBCB"/>
<path d="M263.636 142.759H254.91V151.132H263.636V142.759Z" fill="#878787"/>
<path d="M263.636 134.387H254.91V142.761H263.636V134.387Z" fill="#CBCBCB"/>
<path d="M263.636 126.016H254.91V134.387H263.636V126.016Z" fill="#878787"/>
<path d="M263.636 117.642H254.91V126.015H263.636V117.642Z" fill="#CBCBCB"/>
<path d="M263.636 109.27H254.91V117.642H263.636V109.27Z" fill="#CBCBCB"/>
<path d="M263.636 100.896H254.91V109.27H263.636V100.896Z" fill="#515151"/>
<path d="M263.636 92.5249H254.91V100.899H263.636V92.5249Z" fill="black"/>
<path d="M254.911 293.464H246.186V301.838H254.911V293.464Z" fill="black"/>
<path d="M254.911 285.09H246.186V293.464H254.911V285.09Z" fill="#3D3D3D"/>
<path d="M254.911 276.719H246.186V285.09H254.911V276.719Z" fill="#828282"/>
<path d="M254.911 268.345H246.186V276.719H254.911V268.345Z" fill="black"/>
<path d="M254.911 251.602H246.186V259.976H254.911V251.602Z" fill="black"/>
<path d="M254.911 243.228H246.186V251.602H254.911V243.228Z" fill="#3D3D3D"/>
<path d="M254.911 234.856H246.186V243.228H254.911V234.856Z" fill="#9E9E9E"/>
<path d="M254.911 226.483H246.186V234.857H254.911V226.483Z" fill="#515151"/>
<path d="M254.911 218.111H246.186V226.483H254.911V218.111Z" fill="black"/>
<path d="M254.911 209.74H246.186V218.113H254.911V209.74Z" fill="#3D3D3D"/>
<path d="M254.911 201.366H246.186V209.74H254.911V201.366Z" fill="black"/>
<path d="M254.911 192.995H246.186V201.366H254.911V192.995Z" fill="black"/>
<path d="M254.911 184.621H246.186V192.994H254.911V184.621Z" fill="black"/>
<path d="M254.911 176.25H246.186V184.623H254.911V176.25Z" fill="#515151"/>
<path d="M254.911 167.878H246.186V176.25H254.911V167.878Z" fill="#CBCBCB"/>
<path d="M254.911 159.504H246.186V167.878H254.911V159.504Z" fill="#CBCBCB"/>
<path d="M254.911 151.132H246.186V159.504H254.911V151.132Z" fill="#CBCBCB"/>
<path d="M254.911 142.759H246.186V151.132H254.911V142.759Z" fill="#878787"/>
<path d="M254.911 134.387H246.186V142.761H254.911V134.387Z" fill="#CBCBCB"/>
<path d="M254.911 126.016H246.186V134.387H254.911V126.016Z" fill="#878787"/>
<path d="M254.911 117.642H246.186V126.015H254.911V117.642Z" fill="#CBCBCB"/>
<path d="M254.911 109.27H246.186V117.642H254.911V109.27Z" fill="#CBCBCB"/>
<path d="M254.911 100.896H246.186V109.27H254.911V100.896Z" fill="#515151"/>
<path d="M254.911 92.5249H246.186V100.899H254.911V92.5249Z" fill="black"/>
<path d="M246.186 293.464H237.463V301.838H246.186V293.464Z" fill="black"/>
<path d="M246.186 285.09H237.463V293.464H246.186V285.09Z" fill="#3D3D3D"/>
<path d="M246.186 276.719H237.463V285.09H246.186V276.719Z" fill="#3D3D3D"/>
<path d="M246.186 268.345H237.463V276.719H246.186V268.345Z" fill="black"/>
<path d="M246.186 251.602H237.463V259.976H246.186V251.602Z" fill="black"/>
<path d="M246.186 243.228H237.463V251.602H246.186V243.228Z" fill="#3D3D3D"/>
<path d="M246.186 234.856H237.463V243.228H246.186V234.856Z" fill="#9E9E9E"/>
<path d="M246.186 226.483H237.463V234.857H246.186V226.483Z" fill="#515151"/>
<path d="M246.186 218.111H237.463V226.483H246.186V218.111Z" fill="black"/>
<path d="M246.186 209.74H237.463V218.113H246.186V209.74Z" fill="#3D3D3D"/>
<path d="M246.186 201.366H237.463V209.74H246.186V201.366Z" fill="black"/>
<path d="M246.186 184.621H237.463V192.994H246.186V184.621Z" fill="black"/>
<path d="M246.186 176.25H237.463V184.623H246.186V176.25Z" fill="#515151"/>
<path d="M246.186 167.878H237.463V176.25H246.186V167.878Z" fill="#CBCBCB"/>
<path d="M246.186 159.504H237.463V167.878H246.186V159.504Z" fill="#CBCBCB"/>
<path d="M246.186 151.132H237.463V159.504H246.186V151.132Z" fill="#CBCBCB"/>
<path d="M246.186 142.759H237.463V151.132H246.186V142.759Z" fill="#878787"/>
<path d="M246.186 134.387H237.463V142.761H246.186V134.387Z" fill="#CBCBCB"/>
<path d="M246.186 126.016H237.463V134.387H246.186V126.016Z" fill="#878787"/>
<path d="M246.186 117.642H237.463V126.015H246.186V117.642Z" fill="#CBCBCB"/>
<path d="M246.186 109.27H237.463V117.642H246.186V109.27Z" fill="#CBCBCB"/>
<path d="M246.186 100.896H237.463V109.27H246.186V100.896Z" fill="#515151"/>
<path d="M246.186 92.5249H237.463V100.899H246.186V92.5249Z" fill="black"/>
<path d="M237.462 293.464H228.736V301.838H237.462V293.464Z" fill="black"/>
<path d="M237.462 285.09H228.736V293.464H237.462V285.09Z" fill="#3D3D3D"/>
<path d="M237.462 276.719H228.736V285.09H237.462V276.719Z" fill="#828282"/>
<path d="M237.462 268.345H228.736V276.719H237.462V268.345Z" fill="black"/>
<path d="M237.462 251.602H228.736V259.976H237.462V251.602Z" fill="black"/>
<path d="M237.462 243.228H228.736V251.602H237.462V243.228Z" fill="#3D3D3D"/>
<path d="M237.462 234.856H228.736V243.228H237.462V234.856Z" fill="#9E9E9E"/>
<path d="M237.462 226.483H228.736V234.857H237.462V226.483Z" fill="#515151"/>
<path d="M237.462 218.111H228.736V226.483H237.462V218.111Z" fill="black"/>
<path d="M237.462 209.74H228.736V218.113H237.462V209.74Z" fill="#3D3D3D"/>
<path d="M237.462 201.366H228.736V209.74H237.462V201.366Z" fill="black"/>
<path d="M237.462 184.621H228.736V192.994H237.462V184.621Z" fill="black"/>
<path d="M237.462 176.25H228.736V184.623H237.462V176.25Z" fill="#3D3D3D"/>
<path d="M237.462 167.878H228.736V176.25H237.462V167.878Z" fill="#CBCBCB"/>
<path d="M237.462 159.504H228.736V167.878H237.462V159.504Z" fill="#878787"/>
<path d="M237.462 151.132H228.736V159.504H237.462V151.132Z" fill="#CBCBCB"/>
<path d="M237.462 142.759H228.736V151.132H237.462V142.759Z" fill="#878787"/>
<path d="M237.462 134.387H228.736V142.761H237.462V134.387Z" fill="#CBCBCB"/>
<path d="M237.462 126.016H228.736V134.387H237.462V126.016Z" fill="#878787"/>
<path d="M237.462 117.642H228.736V126.015H237.462V117.642Z" fill="#CBCBCB"/>
<path d="M237.462 109.27H228.736V117.642H237.462V109.27Z" fill="#CBCBCB"/>
<path d="M237.462 100.896H228.736V109.27H237.462V100.896Z" fill="#515151"/>
<path d="M237.462 92.5249H228.736V100.899H237.462V92.5249Z" fill="black"/>
<path d="M228.735 293.464H220.012V301.838H228.735V293.464Z" fill="black"/>
<path d="M228.735 285.09H220.012V293.464H228.735V285.09Z" fill="#3D3D3D"/>
<path d="M228.735 276.719H220.012V285.09H228.735V276.719Z" fill="#3D3D3D"/>
<path d="M228.735 268.345H220.012V276.719H228.735V268.345Z" fill="black"/>
<path d="M228.735 251.602H220.012V259.976H228.735V251.602Z" fill="black"/>
<path d="M228.735 243.228H220.012V251.602H228.735V243.228Z" fill="#3D3D3D"/>
<path d="M228.735 234.856H220.012V243.228H228.735V234.856Z" fill="#9E9E9E"/>
<path d="M228.735 226.483H220.012V234.857H228.735V226.483Z" fill="#515151"/>
<path d="M228.735 218.111H220.012V226.483H228.735V218.111Z" fill="black"/>
<path d="M228.735 209.74H220.012V218.113H228.735V209.74Z" fill="#3D3D3D"/>
<path d="M228.735 201.366H220.012V209.74H228.735V201.366Z" fill="black"/>
<path d="M228.735 184.621H220.012V192.994H228.735V184.621Z" fill="black"/>
<path d="M228.735 176.25H220.012V184.623H228.735V176.25Z" fill="#B5F602"/>
<path d="M228.735 167.878H220.012V176.25H228.735V167.878Z" fill="#CBCBCB"/>
<path d="M228.735 159.504H220.012V167.878H228.735V159.504Z" fill="#878787"/>
<path d="M228.735 151.132H220.012V159.504H228.735V151.132Z" fill="#CBCBCB"/>
<path d="M228.735 142.759H220.012V151.132H228.735V142.759Z" fill="#878787"/>
<path d="M228.735 134.387H220.012V142.761H228.735V134.387Z" fill="#CBCBCB"/>
<path d="M228.735 126.016H220.012V134.387H228.735V126.016Z" fill="#878787"/>
<path d="M228.735 117.642H220.012V126.015H228.735V117.642Z" fill="#CBCBCB"/>
<path d="M228.735 109.27H220.012V117.642H228.735V109.27Z" fill="#CBCBCB"/>
<path d="M228.735 100.896H220.012V109.27H228.735V100.896Z" fill="#515151"/>
<path d="M228.735 92.5249H220.012V100.899H228.735V92.5249Z" fill="black"/>
<path d="M220.012 293.464H211.287V301.838H220.012V293.464Z" fill="black"/>
<path d="M220.012 285.09H211.287V293.464H220.012V285.09Z" fill="#3D3D3D"/>
<path d="M220.012 276.719H211.287V285.09H220.012V276.719Z" fill="#515151"/>
<path d="M220.012 268.345H211.287V276.719H220.012V268.345Z" fill="black"/>
<path d="M220.012 251.602H211.287V259.976H220.012V251.602Z" fill="black"/>
<path d="M220.012 243.228H211.287V251.602H220.012V243.228Z" fill="#3D3D3D"/>
<path d="M220.012 234.856H211.287V243.228H220.012V234.856Z" fill="#9E9E9E"/>
<path d="M220.012 226.483H211.287V234.857H220.012V226.483Z" fill="#3D3D3D"/>
<path d="M220.012 218.111H211.287V226.483H220.012V218.111Z" fill="black"/>
<path d="M220.012 209.74H211.287V218.113H220.012V209.74Z" fill="black"/>
<path d="M220.012 184.621H211.287V192.994H220.012V184.621Z" fill="black"/>
<path d="M220.012 176.25H211.287V184.623H220.012V176.25Z" fill="#3D3D3D"/>
<path d="M220.012 167.878H211.287V176.25H220.012V167.878Z" fill="#CBCBCB"/>
<path d="M220.012 159.504H211.287V167.878H220.012V159.504Z" fill="#CBCBCB"/>
<path d="M220.012 151.132H211.287V159.504H220.012V151.132Z" fill="#CBCBCB"/>
<path d="M220.012 142.759H211.287V151.132H220.012V142.759Z" fill="#CBCBCB"/>
<path d="M220.012 134.387H211.287V142.761H220.012V134.387Z" fill="#CBCBCB"/>
<path d="M220.012 126.016H211.287V134.387H220.012V126.016Z" fill="#CBCBCB"/>
<path d="M220.012 117.642H211.287V126.015H220.012V117.642Z" fill="#CBCBCB"/>
<path d="M220.012 109.27H211.287V117.642H220.012V109.27Z" fill="#CBCBCB"/>
<path d="M220.012 100.896H211.287V109.27H220.012V100.896Z" fill="#3D3D3D"/>
<path d="M220.012 92.5249H211.287V100.899H220.012V92.5249Z" fill="black"/>
<path d="M211.286 293.464H202.561V301.838H211.286V293.464Z" fill="black"/>
<path d="M211.286 285.09H202.561V293.464H211.286V285.09Z" fill="#515151"/>
<path d="M211.286 276.719H202.561V285.09H211.286V276.719Z" fill="#828282"/>
<path d="M211.286 268.345H202.561V276.719H211.286V268.345Z" fill="black"/>
<path d="M211.286 251.602H202.561V259.976H211.286V251.602Z" fill="black"/>
<path d="M211.286 243.228H202.561V251.602H211.286V243.228Z" fill="#3D3D3D"/>
<path d="M211.286 234.856H202.561V243.228H211.286V234.856Z" fill="#9E9E9E"/>
<path d="M211.286 226.483H202.561V234.857H211.286V226.483Z" fill="#3D3D3D"/>
<path d="M211.286 218.111H202.561V226.483H211.286V218.111Z" fill="black"/>
<path d="M211.286 184.621H202.561V192.994H211.286V184.621Z" fill="black"/>
<path d="M211.286 176.25H202.561V184.623H211.286V176.25Z" fill="#3D3D3D"/>
<path d="M211.286 167.878H202.561V176.25H211.286V167.878Z" fill="#3D3D3D"/>
<path d="M211.286 159.504H202.561V167.878H211.286V159.504Z" fill="#3D3D3D"/>
<path d="M211.286 151.132H202.561V159.504H211.286V151.132Z" fill="#3D3D3D"/>
<path d="M211.286 142.759H202.561V151.132H211.286V142.759Z" fill="#3D3D3D"/>
<path d="M211.286 134.387H202.561V142.761H211.286V134.387Z" fill="#3D3D3D"/>
<path d="M211.286 126.016H202.561V134.387H211.286V126.016Z" fill="#3D3D3D"/>
<path d="M211.286 117.642H202.561V126.015H211.286V117.642Z" fill="#3D3D3D"/>
<path d="M211.286 109.27H202.561V117.642H211.286V109.27Z" fill="#3D3D3D"/>
<path d="M211.286 100.896H202.561V109.27H211.286V100.896Z" fill="#3D3D3D"/>
<path d="M211.286 92.5249H202.561V100.899H211.286V92.5249Z" fill="black"/>
<path d="M202.561 293.464H193.838V301.838H202.561V293.464Z" fill="black"/>
<path d="M202.561 285.09H193.838V293.464H202.561V285.09Z" fill="#828282"/>
<path d="M202.561 276.719H193.838V285.09H202.561V276.719Z" fill="#515151"/>
<path d="M202.561 268.345H193.838V276.719H202.561V268.345Z" fill="black"/>
<path d="M202.561 251.602H193.838V259.976H202.561V251.602Z" fill="black"/>
<path d="M202.561 243.228H193.838V251.602H202.561V243.228Z" fill="#3D3D3D"/>
<path d="M202.561 234.856H193.838V243.228H202.561V234.856Z" fill="#3D3D3D"/>
<path d="M202.561 226.483H193.838V234.857H202.561V226.483Z" fill="#3D3D3D"/>
<path d="M202.561 218.111H193.838V226.483H202.561V218.111Z" fill="black"/>
<path d="M202.561 184.621H193.838V192.994H202.561V184.621Z" fill="black"/>
<path d="M202.561 176.25H193.838V184.623H202.561V176.25Z" fill="#3D3D3D"/>
<path d="M202.561 167.878H193.838V176.25H202.561V167.878Z" fill="#3D3D3D"/>
<path d="M202.561 159.504H193.838V167.878H202.561V159.504Z" fill="#3D3D3D"/>
<path d="M202.561 151.132H193.838V159.504H202.561V151.132Z" fill="#3D3D3D"/>
<path d="M202.561 142.759H193.838V151.132H202.561V142.759Z" fill="#3D3D3D"/>
<path d="M202.561 134.387H193.838V142.761H202.561V134.387Z" fill="#3D3D3D"/>
<path d="M202.561 126.016H193.838V134.387H202.561V126.016Z" fill="#3D3D3D"/>
<path d="M202.561 117.642H193.838V126.015H202.561V117.642Z" fill="#3D3D3D"/>
<path d="M202.561 109.27H193.838V117.642H202.561V109.27Z" fill="#3D3D3D"/>
<path d="M202.561 100.896H193.838V109.27H202.561V100.896Z" fill="#3D3D3D"/>
<path d="M202.561 92.5249H193.838V100.899H202.561V92.5249Z" fill="black"/>
<path d="M193.835 293.464H185.109V301.838H193.835V293.464Z" fill="black"/>
<path d="M193.835 285.09H185.109V293.464H193.835V285.09Z" fill="#828282"/>
<path d="M193.835 276.719H185.109V285.09H193.835V276.719Z" fill="black"/>
<path d="M193.835 243.228H185.109V251.602H193.835V243.228Z" fill="black"/>
<path d="M193.835 234.856H185.109V243.228H193.835V234.856Z" fill="black"/>
<path d="M193.835 226.483H185.109V234.857H193.835V226.483Z" fill="black"/>
<path d="M193.835 176.25H185.109V184.623H193.835V176.25Z" fill="black"/>
<path d="M193.835 167.878H185.109V176.25H193.835V167.878Z" fill="black"/>
<path d="M193.835 159.504H185.109V167.878H193.835V159.504Z" fill="black"/>
<path d="M193.835 151.132H185.109V159.504H193.835V151.132Z" fill="black"/>
<path d="M193.835 142.759H185.109V151.132H193.835V142.759Z" fill="black"/>
<path d="M193.835 134.387H185.109V142.761H193.835V134.387Z" fill="black"/>
<path d="M193.835 126.016H185.109V134.387H193.835V126.016Z" fill="black"/>
<path d="M193.835 117.642H185.109V126.015H193.835V117.642Z" fill="black"/>
<path d="M193.835 109.27H185.109V117.642H193.835V109.27Z" fill="black"/>
<path d="M193.835 100.896H185.109V109.27H193.835V100.896Z" fill="black"/>
<path d="M185.11 293.464H176.387V301.838H185.11V293.464Z" fill="black"/>
<path d="M185.11 285.09H176.387V293.464H185.11V285.09Z" fill="black"/>
<path d="M185.11 251.602H176.387V259.976H185.11V251.602Z" fill="black"/>
<path d="M176.386 293.464H167.66V301.838H176.386V293.464Z" fill="black"/>
<path d="M176.386 276.719H167.66V285.09H176.386V276.719Z" fill="black"/>
<path d="M176.386 251.602H167.66V259.976H176.386V251.602Z" fill="black"/>
<path d="M167.661 268.345H158.936V276.719H167.661V268.345Z" fill="black"/>
<path d="M167.661 259.974H158.936V268.345H167.661V259.974Z" fill="black"/>
<rect x="49" y="20" width="368.095" height="60.3929" rx="30.1964" fill="black"/>
<path d="M77.8242 50.1807V49.1494C77.8242 46.4541 78.4688 44.3916 79.7578 42.9619C81.0469 41.5244 82.6719 40.8057 84.6328 40.8057C86.6016 40.8057 88.1328 41.3447 89.2266 42.4229C90.3203 43.501 90.8672 44.8408 90.8672 46.4424V46.6064H88.8164V46.4424C88.8164 45.2783 88.4688 44.3408 87.7734 43.6299C87.0859 42.9111 86.0391 42.5518 84.6328 42.5518C83.2188 42.5518 82.0703 43.0947 81.1875 44.1807C80.3125 45.2588 79.875 46.915 79.875 49.1494V50.1807C79.875 52.2744 80.3164 53.8994 81.1992 55.0557C82.0898 56.2041 83.2422 56.7783 84.6562 56.7783C85.9844 56.7783 86.9883 56.4189 87.668 55.7002C88.3477 54.9814 88.7305 54.0439 88.8164 52.8877V52.7236H90.8672L90.8555 52.9111C90.7305 54.4893 90.1523 55.8213 89.1211 56.9072C88.0977 57.9854 86.6016 58.5244 84.6328 58.5244C82.6328 58.5244 80.9961 57.8057 79.7227 56.3682C78.457 54.9229 77.8242 52.8604 77.8242 50.1807ZM92.7305 54.7041C92.7305 53.501 93.2031 52.5596 94.1484 51.8799C95.1016 51.2002 96.3242 50.8604 97.8164 50.8604H100.559V49.958C100.559 49.2158 100.363 48.6221 99.9727 48.1768C99.5898 47.7314 98.9375 47.5088 98.0156 47.5088C97.1016 47.5088 96.4336 47.6963 96.0117 48.0713C95.5977 48.4385 95.3906 48.8916 95.3906 49.4307V49.5361H93.4219V49.3955C93.4219 48.4502 93.8398 47.6338 94.6758 46.9463C95.5117 46.251 96.6406 45.9033 98.0625 45.9033C99.4766 45.9033 100.574 46.2393 101.355 46.9111C102.137 47.5752 102.527 48.5908 102.527 49.958V55.3838C102.527 55.8916 102.566 56.3721 102.645 56.8252C102.723 57.2705 102.832 57.665 102.973 58.0088V58.1963H101.074C100.965 58.001 100.863 57.7471 100.77 57.4346C100.684 57.1221 100.629 56.8096 100.605 56.4971C100.324 56.9971 99.8633 57.4424 99.2227 57.833C98.5898 58.2158 97.7773 58.4072 96.7852 58.4072C95.6367 58.4072 94.6719 58.0908 93.8906 57.458C93.1172 56.8174 92.7305 55.8994 92.7305 54.7041ZM94.7109 54.5986C94.7109 55.3018 94.9141 55.8486 95.3203 56.2393C95.7266 56.6221 96.3516 56.8135 97.1953 56.8135C98.0469 56.8135 98.8203 56.5205 99.5156 55.9346C100.211 55.3408 100.559 54.708 100.559 54.0361V52.3018H98.0508C96.9414 52.3018 96.1055 52.5088 95.543 52.9229C94.9883 53.3369 94.7109 53.8955 94.7109 54.5986ZM105.785 58.1963V46.2314H107.73V53.8604C107.73 54.1104 107.727 54.3682 107.719 54.6338C107.719 54.8916 107.715 55.1494 107.707 55.4072H107.812C107.922 55.1885 108.039 54.9736 108.164 54.7627C108.289 54.5518 108.43 54.3213 108.586 54.0713L113.414 46.2314H115.418V58.1963H113.473V50.5791C113.473 50.3291 113.477 50.0674 113.484 49.7939C113.5 49.5127 113.516 49.2432 113.531 48.9854H113.379C113.277 49.2041 113.164 49.4268 113.039 49.6533C112.914 49.8721 112.773 50.1104 112.617 50.3682L107.801 58.1963H105.785ZM110.613 42.7627C111.137 42.7627 111.586 42.6104 111.961 42.3057C112.336 41.9932 112.645 41.501 112.887 40.8291L114.422 41.7432C114.062 42.6338 113.551 43.2939 112.887 43.7236C112.23 44.1533 111.473 44.3682 110.613 44.3682C109.738 44.3682 108.977 44.1572 108.328 43.7354C107.68 43.3135 107.168 42.6494 106.793 41.7432L108.34 40.7939C108.59 41.5205 108.898 42.0322 109.266 42.3291C109.633 42.6182 110.082 42.7627 110.613 42.7627ZM117.422 47.8018V46.2314H126.984V47.8018H123.188V58.1963H121.219V47.8018H117.422ZM134.449 46.2314H136.43V51.3057H141.902V46.2314H143.871V58.1963H141.902V52.876H136.43V58.1963H134.449V46.2314ZM146.52 54.7041C146.52 53.501 146.992 52.5596 147.938 51.8799C148.891 51.2002 150.113 50.8604 151.605 50.8604H154.348V49.958C154.348 49.2158 154.152 48.6221 153.762 48.1768C153.379 47.7314 152.727 47.5088 151.805 47.5088C150.891 47.5088 150.223 47.6963 149.801 48.0713C149.387 48.4385 149.18 48.8916 149.18 49.4307V49.5361H147.211V49.3955C147.211 48.4502 147.629 47.6338 148.465 46.9463C149.301 46.251 150.43 45.9033 151.852 45.9033C153.266 45.9033 154.363 46.2393 155.145 46.9111C155.926 47.5752 156.316 48.5908 156.316 49.958V55.3838C156.316 55.8916 156.355 56.3721 156.434 56.8252C156.512 57.2705 156.621 57.665 156.762 58.0088V58.1963H154.863C154.754 58.001 154.652 57.7471 154.559 57.4346C154.473 57.1221 154.418 56.8096 154.395 56.4971C154.113 56.9971 153.652 57.4424 153.012 57.833C152.379 58.2158 151.566 58.4072 150.574 58.4072C149.426 58.4072 148.461 58.0908 147.68 57.458C146.906 56.8174 146.52 55.8994 146.52 54.7041ZM148.5 54.5986C148.5 55.3018 148.703 55.8486 149.109 56.2393C149.516 56.6221 150.141 56.8135 150.984 56.8135C151.836 56.8135 152.609 56.5205 153.305 55.9346C154 55.3408 154.348 54.708 154.348 54.0361V52.3018H151.84C150.73 52.3018 149.895 52.5088 149.332 52.9229C148.777 53.3369 148.5 53.8955 148.5 54.5986ZM158.109 58.1963L162.574 51.5986L162.715 51.5635L166.09 46.2314H168.305L164.051 52.6416L163.898 52.665L160.312 58.1963H158.109ZM158.344 46.2314H160.594L163.957 51.54L164.074 51.5986L168.527 58.1963H166.277L162.703 52.6885L162.586 52.6416L158.344 46.2314ZM169.652 52.3955V52.0205C169.652 50.2158 170.156 48.7471 171.164 47.6143C172.18 46.4736 173.535 45.9033 175.23 45.9033C176.926 45.9033 178.277 46.4736 179.285 47.6143C180.301 48.7471 180.809 50.2158 180.809 52.0205V52.3955C180.809 54.208 180.301 55.6846 179.285 56.8252C178.277 57.958 176.926 58.5244 175.23 58.5244C173.535 58.5244 172.18 57.958 171.164 56.8252C170.156 55.6846 169.652 54.208 169.652 52.3955ZM171.668 52.0205V52.3955C171.668 53.6689 171.965 54.7354 172.559 55.5947C173.16 56.4541 174.051 56.8838 175.23 56.8838C176.402 56.8838 177.289 56.4541 177.891 55.5947C178.492 54.7354 178.793 53.6689 178.793 52.3955V52.0205C178.793 50.7549 178.492 49.6924 177.891 48.833C177.289 47.9736 176.402 47.5439 175.23 47.5439C174.051 47.5439 173.16 47.9736 172.559 48.833C171.965 49.6924 171.668 50.7549 171.668 52.0205ZM192.434 61.3252V58.1963H183.645V61.3252H181.852V56.626H194.227V61.3252H192.434ZM186 47.8018L185.777 52.5244C185.73 53.626 185.656 54.4932 185.555 55.126C185.453 55.751 185.305 56.3096 185.109 56.8018H183.047C183.281 56.4346 183.477 55.9189 183.633 55.2549C183.789 54.583 183.898 53.5869 183.961 52.2666L184.254 46.2314H192.469V58.1963H190.488V47.8018H186ZM196.113 58.1963V46.2314H198.059V53.8604C198.059 54.1104 198.055 54.3682 198.047 54.6338C198.047 54.8916 198.043 55.1494 198.035 55.4072H198.141C198.25 55.1885 198.367 54.9736 198.492 54.7627C198.617 54.5518 198.758 54.3213 198.914 54.0713L203.742 46.2314H205.746V58.1963H203.801V50.5791C203.801 50.3291 203.805 50.0674 203.812 49.7939C203.828 49.5127 203.844 49.2432 203.859 48.9854H203.707C203.605 49.2041 203.492 49.4268 203.367 49.6533C203.242 49.8721 203.102 50.1104 202.945 50.3682L198.129 58.1963H196.113ZM207.75 47.8018V46.2314H217.312V47.8018H213.516V58.1963H211.547V47.8018H207.75ZM218.59 52.3955V52.0205C218.59 50.2002 219.074 48.7275 220.043 47.6025C221.012 46.4697 222.34 45.9033 224.027 45.9033C225.605 45.9033 226.801 46.3252 227.613 47.1689C228.434 48.0127 228.844 48.9854 228.844 50.0869V50.1807H226.922V50.0869C226.922 49.3838 226.688 48.7861 226.219 48.2939C225.758 47.7939 225.031 47.5439 224.039 47.5439C222.883 47.5439 222.02 47.9658 221.449 48.8096C220.887 49.6533 220.605 50.7236 220.605 52.0205V52.3955C220.605 53.6768 220.887 54.7471 221.449 55.6064C222.012 56.458 222.871 56.8838 224.027 56.8838C225.027 56.8838 225.762 56.6338 226.23 56.1338C226.699 55.6338 226.934 55.0244 226.934 54.3057V54.2236H228.855V54.3057C228.855 55.4072 228.445 56.3877 227.625 57.2471C226.805 58.0986 225.605 58.5244 224.027 58.5244C222.34 58.5244 221.012 57.958 220.043 56.8252C219.074 55.6924 218.59 54.2158 218.59 52.3955ZM232.664 58.1963H230.473L234.105 53.04L236.098 53.2158L232.664 58.1963ZM238.336 58.1963V53.7666H235.512L235.348 53.6494C233.902 53.6494 232.789 53.3213 232.008 52.665C231.234 52.0088 230.848 51.126 230.848 50.0166C230.848 48.8682 231.234 47.9502 232.008 47.2627C232.789 46.5752 233.902 46.2314 235.348 46.2314H240.305V58.1963H238.336ZM235.348 52.1963H238.336V47.8018H235.348C234.418 47.8018 233.762 48.0127 233.379 48.4346C233.004 48.8486 232.816 49.376 232.816 50.0166C232.816 50.6572 233.004 51.1807 233.379 51.5869C233.754 51.9932 234.41 52.1963 235.348 52.1963ZM249.082 58.1963V46.2314H254.203C255.492 46.2314 256.512 46.4932 257.262 47.0166C258.012 47.54 258.387 48.3369 258.387 49.4072C258.387 50.0869 258.184 50.6572 257.777 51.1182C257.371 51.5713 256.836 51.8682 256.172 52.0088V52.0439C256.992 52.1611 257.637 52.458 258.105 52.9346C258.582 53.4033 258.82 54.0127 258.82 54.7627C258.82 55.8408 258.43 56.6846 257.648 57.2939C256.875 57.8955 255.836 58.1963 254.531 58.1963H249.082ZM251.062 51.3291H254.203C254.977 51.3291 255.535 51.1689 255.879 50.8486C256.223 50.5205 256.395 50.0674 256.395 49.4893C256.395 48.9424 256.223 48.5244 255.879 48.2354C255.535 47.9385 254.977 47.79 254.203 47.79H251.062V51.3291ZM251.062 56.6377H254.531C255.312 56.6377 255.891 56.4697 256.266 56.1338C256.648 55.79 256.84 55.3291 256.84 54.751C256.84 54.1885 256.652 53.7393 256.277 53.4033C255.91 53.0596 255.328 52.8877 254.531 52.8877H251.062V56.6377ZM267.176 63.1416V46.2314H268.98L269.051 47.8252H269.109C269.414 47.3174 269.887 46.8877 270.527 46.5361C271.168 46.1768 271.91 45.9971 272.754 45.9971C274.27 45.9971 275.473 46.5596 276.363 47.6846C277.254 48.8096 277.699 50.251 277.699 52.0088V52.3838C277.699 54.1572 277.254 55.6104 276.363 56.7432C275.473 57.8682 274.27 58.4307 272.754 58.4307C271.91 58.4307 271.188 58.2783 270.586 57.9736C269.992 57.6611 269.516 57.2549 269.156 56.7549V63.1416H267.176ZM269.156 54.6924C269.398 55.2393 269.789 55.7275 270.328 56.1572C270.875 56.5791 271.535 56.79 272.309 56.79C273.473 56.79 274.324 56.3682 274.863 55.5244C275.41 54.6807 275.684 53.6338 275.684 52.3838V52.0088C275.684 50.7588 275.41 49.7197 274.863 48.8916C274.324 48.0557 273.473 47.6377 272.309 47.6377C271.535 47.6377 270.875 47.8525 270.328 48.2822C269.789 48.7041 269.398 49.1846 269.156 49.7236V54.6924ZM279.598 54.7041C279.598 53.501 280.07 52.5596 281.016 51.8799C281.969 51.2002 283.191 50.8604 284.684 50.8604H287.426V49.958C287.426 49.2158 287.23 48.6221 286.84 48.1768C286.457 47.7314 285.805 47.5088 284.883 47.5088C283.969 47.5088 283.301 47.6963 282.879 48.0713C282.465 48.4385 282.258 48.8916 282.258 49.4307V49.5361H280.289V49.3955C280.289 48.4502 280.707 47.6338 281.543 46.9463C282.379 46.251 283.508 45.9033 284.93 45.9033C286.344 45.9033 287.441 46.2393 288.223 46.9111C289.004 47.5752 289.395 48.5908 289.395 49.958V55.3838C289.395 55.8916 289.434 56.3721 289.512 56.8252C289.59 57.2705 289.699 57.665 289.84 58.0088V58.1963H287.941C287.832 58.001 287.73 57.7471 287.637 57.4346C287.551 57.1221 287.496 56.8096 287.473 56.4971C287.191 56.9971 286.73 57.4424 286.09 57.833C285.457 58.2158 284.645 58.4072 283.652 58.4072C282.504 58.4072 281.539 58.0908 280.758 57.458C279.984 56.8174 279.598 55.8994 279.598 54.7041ZM281.578 54.5986C281.578 55.3018 281.781 55.8486 282.188 56.2393C282.594 56.6221 283.219 56.8135 284.062 56.8135C284.914 56.8135 285.688 56.5205 286.383 55.9346C287.078 55.3408 287.426 54.708 287.426 54.0361V52.3018H284.918C283.809 52.3018 282.973 52.5088 282.41 52.9229C281.855 53.3369 281.578 53.8955 281.578 54.5986ZM296.941 58.5244C295.238 58.5244 293.969 58.1064 293.133 57.2705C292.305 56.4268 291.891 55.4463 291.891 54.3291V54.2471H293.812V54.3291C293.812 55.0244 294.055 55.626 294.539 56.1338C295.031 56.6338 295.832 56.8838 296.941 56.8838C297.879 56.8838 298.613 56.6924 299.145 56.3096C299.684 55.9268 299.953 55.3916 299.953 54.7041C299.953 54.1572 299.762 53.7197 299.379 53.3916C299.004 53.0557 298.406 52.8877 297.586 52.8877H295.535V51.3291H297.258C298.078 51.3291 298.664 51.1689 299.016 50.8486C299.375 50.5205 299.555 50.0752 299.555 49.5127C299.555 48.8721 299.336 48.3838 298.898 48.0479C298.461 47.7119 297.848 47.5439 297.059 47.5439C296.082 47.5439 295.34 47.7783 294.832 48.2471C294.324 48.708 294.07 49.3135 294.07 50.0635V50.1455H292.148V50.0635C292.148 48.8057 292.578 47.7979 293.438 47.04C294.297 46.2822 295.504 45.9033 297.059 45.9033C298.52 45.9033 299.633 46.2119 300.398 46.8291C301.164 47.4463 301.547 48.2939 301.547 49.3721C301.547 49.9971 301.34 50.5596 300.926 51.0596C300.512 51.5518 299.961 51.8682 299.273 52.0088V52.0439C300.102 52.1611 300.75 52.4502 301.219 52.9111C301.695 53.3721 301.934 53.9775 301.934 54.7275C301.934 55.9463 301.457 56.8838 300.504 57.54C299.559 58.1963 298.371 58.5244 296.941 58.5244ZM304.793 63.1416V46.2314H306.598L306.668 47.8252H306.727C307.031 47.3174 307.504 46.8877 308.145 46.5361C308.785 46.1768 309.527 45.9971 310.371 45.9971C311.887 45.9971 313.09 46.5596 313.98 47.6846C314.871 48.8096 315.316 50.251 315.316 52.0088V52.3838C315.316 54.1572 314.871 55.6104 313.98 56.7432C313.09 57.8682 311.887 58.4307 310.371 58.4307C309.527 58.4307 308.805 58.2783 308.203 57.9736C307.609 57.6611 307.133 57.2549 306.773 56.7549V63.1416H304.793ZM306.773 54.6924C307.016 55.2393 307.406 55.7275 307.945 56.1572C308.492 56.5791 309.152 56.79 309.926 56.79C311.09 56.79 311.941 56.3682 312.48 55.5244C313.027 54.6807 313.301 53.6338 313.301 52.3838V52.0088C313.301 50.7588 313.027 49.7197 312.48 48.8916C311.941 48.0557 311.09 47.6377 309.926 47.6377C309.152 47.6377 308.492 47.8525 307.945 48.2822C307.406 48.7041 307.016 49.1846 306.773 49.7236V54.6924ZM317.215 54.7041C317.215 53.501 317.688 52.5596 318.633 51.8799C319.586 51.2002 320.809 50.8604 322.301 50.8604H325.043V49.958C325.043 49.2158 324.848 48.6221 324.457 48.1768C324.074 47.7314 323.422 47.5088 322.5 47.5088C321.586 47.5088 320.918 47.6963 320.496 48.0713C320.082 48.4385 319.875 48.8916 319.875 49.4307V49.5361H317.906V49.3955C317.906 48.4502 318.324 47.6338 319.16 46.9463C319.996 46.251 321.125 45.9033 322.547 45.9033C323.961 45.9033 325.059 46.2393 325.84 46.9111C326.621 47.5752 327.012 48.5908 327.012 49.958V55.3838C327.012 55.8916 327.051 56.3721 327.129 56.8252C327.207 57.2705 327.316 57.665 327.457 58.0088V58.1963H325.559C325.449 58.001 325.348 57.7471 325.254 57.4346C325.168 57.1221 325.113 56.8096 325.09 56.4971C324.809 56.9971 324.348 57.4424 323.707 57.833C323.074 58.2158 322.262 58.4072 321.27 58.4072C320.121 58.4072 319.156 58.0908 318.375 57.458C317.602 56.8174 317.215 55.8994 317.215 54.7041ZM319.195 54.5986C319.195 55.3018 319.398 55.8486 319.805 56.2393C320.211 56.6221 320.836 56.8135 321.68 56.8135C322.531 56.8135 323.305 56.5205 324 55.9346C324.695 55.3408 325.043 54.708 325.043 54.0361V52.3018H322.535C321.426 52.3018 320.59 52.5088 320.027 52.9229C319.473 53.3369 319.195 53.8955 319.195 54.5986ZM331.641 52.208V52.583C331.641 53.8018 331.941 54.8252 332.543 55.6533C333.145 56.4736 334.031 56.8838 335.203 56.8838C336.383 56.8838 337.273 56.4736 337.875 55.6533C338.477 54.8252 338.777 53.8018 338.777 52.583V52.208C338.777 50.9893 338.477 49.9697 337.875 49.1494C337.273 48.3213 336.383 47.9072 335.203 47.9072C334.031 47.9072 333.145 48.3213 332.543 49.1494C331.941 49.9697 331.641 50.9893 331.641 52.208ZM335.684 46.2666C337.254 46.2666 338.496 46.8291 339.41 47.9541C340.332 49.0791 340.793 50.4971 340.793 52.208V52.583C340.793 54.333 340.285 55.7627 339.27 56.8721C338.262 57.9736 336.91 58.5244 335.215 58.5244C333.465 58.5244 332.094 57.9775 331.102 56.8838C330.117 55.7822 329.625 53.9346 329.625 51.3408V50.9072C329.625 48.1182 330.074 45.9424 330.973 44.3799C331.871 42.8096 333.578 41.8408 336.094 41.4736C337.359 41.2861 338.102 41.1143 338.32 40.958C338.547 40.7939 338.68 40.6104 338.719 40.4072H340.441C340.363 41.1885 340.047 41.8057 339.492 42.2588C338.938 42.7119 337.883 43.04 336.328 43.2432C334.383 43.501 333.07 44.1182 332.391 45.0947C331.711 46.0635 331.305 47.3682 331.172 49.0088H331.301C331.684 48.165 332.246 47.4971 332.988 47.0049C333.738 46.5127 334.637 46.2666 335.684 46.2666ZM342.645 52.3955V52.0205C342.645 50.2158 343.148 48.7471 344.156 47.6143C345.172 46.4736 346.527 45.9033 348.223 45.9033C349.918 45.9033 351.27 46.4736 352.277 47.6143C353.293 48.7471 353.801 50.2158 353.801 52.0205V52.3955C353.801 54.208 353.293 55.6846 352.277 56.8252C351.27 57.958 349.918 58.5244 348.223 58.5244C346.527 58.5244 345.172 57.958 344.156 56.8252C343.148 55.6846 342.645 54.208 342.645 52.3955ZM344.66 52.0205V52.3955C344.66 53.6689 344.957 54.7354 345.551 55.5947C346.152 56.4541 347.043 56.8838 348.223 56.8838C349.395 56.8838 350.281 56.4541 350.883 55.5947C351.484 54.7354 351.785 53.6689 351.785 52.3955V52.0205C351.785 50.7549 351.484 49.6924 350.883 48.833C350.281 47.9736 349.395 47.5439 348.223 47.5439C347.043 47.5439 346.152 47.9736 345.551 48.833C344.957 49.6924 344.66 50.7549 344.66 52.0205ZM355.078 47.8018V46.2314H364.641V47.8018H360.844V58.1963H358.875V47.8018H355.078ZM374.273 58.1963L369.527 52.7588L370.77 51.4346L376.711 58.1963H374.273ZM367.629 51.3057H369.621L373.934 46.2314H376.254L370.547 52.876H367.629V51.3057ZM368.625 46.2314V58.1963H366.645V46.2314H368.625ZM377.496 52.3955V52.0205C377.496 50.2158 377.984 48.7471 378.961 47.6143C379.938 46.4736 381.227 45.9033 382.828 45.9033C384.438 45.9033 385.676 46.4346 386.543 47.4971C387.41 48.5518 387.844 49.9932 387.844 51.8213V52.6299H378.68V51.0361H385.852V50.8018C385.852 49.9111 385.605 49.1455 385.113 48.5049C384.621 47.8643 383.887 47.5439 382.91 47.5439C381.77 47.5439 380.914 47.9736 380.344 48.833C379.781 49.6846 379.5 50.7471 379.5 52.0205V52.3955C379.5 53.6768 379.797 54.7471 380.391 55.6064C380.992 56.458 381.906 56.8838 383.133 56.8838C383.906 56.8838 384.57 56.7197 385.125 56.3916C385.68 56.0557 386.125 55.6533 386.461 55.1846L387.75 56.2275C387.383 56.79 386.809 57.3135 386.027 57.7979C385.246 58.2822 384.285 58.5244 383.145 58.5244C381.324 58.5244 379.926 57.958 378.949 56.8252C377.98 55.6846 377.496 54.208 377.496 52.3955Z" fill="white"/>
<path d="M370.569 101.383L396.179 75.7722C397.514 74.4373 396.569 72.1548 394.681 72.1548H369.071C367.9 72.1548 366.952 73.1035 366.952 74.2738V99.8842C366.952 101.772 369.234 102.718 370.569 101.383Z" fill="black"/>
</svg>
