<svg width="28" height="31" viewBox="0 0 28 31" fill="none" xmlns="http://www.w3.org/2000/svg">
<g clip-path="url(#clip0_332_1509)">
<path d="M13.9664 0.254395C12.6516 0.476587 11.4488 1.05295 10.2042 1.48564C7.04336 2.58157 3.90593 3.74265 0.743454 4.8369C0.143702 5.04406 -0.0617828 5.28296 0.016736 5.94285C0.689996 11.5461 1.33151 17.1544 1.95967 22.7626C2.02482 23.344 2.242 23.6982 2.76156 23.9822C6.23311 25.8783 9.68627 27.8062 13.1511 29.7141C13.4017 29.8527 13.6206 30.12 13.9664 30.0198C13.9664 26.5716 13.9681 23.1235 13.9697 19.6753C13.9697 19.3462 14.0082 19.0104 13.806 18.7147C13.3917 18.6997 12.9791 18.6696 12.5648 18.673C11.7929 18.6796 10.839 18.4357 10.2994 18.7999C9.76312 19.1608 9.6278 20.1348 9.3438 20.8498C8.76688 22.311 7.68821 23.04 6.10781 23.0366C5.46184 23.0344 5.26805 22.7454 5.52643 22.1696C7.87699 16.8938 10.2175 11.6113 12.5881 6.3438C13.0141 5.39823 13.3015 4.37915 13.9681 3.55052C13.9681 2.45126 13.9664 1.35366 13.9647 0.254395H13.9664Z" fill="black"/>
<path d="M13.9671 0.253772C13.9671 1.35304 13.9687 2.45064 13.9704 3.5499C15.636 7.30879 17.3016 11.0677 18.9689 14.8249C20.0882 17.3475 21.1975 19.8735 22.3469 22.3811C22.6159 22.9675 22.4688 23.0744 21.8975 23.0444C21.2359 23.0109 20.5694 23.0059 19.9078 23.046C19.4333 23.0761 19.2295 22.8806 19.0708 22.4563C18.6582 21.3437 18.1904 20.2527 17.756 19.1468C17.6357 18.8411 17.5071 18.6423 17.1145 18.6573C16.0119 18.6991 14.906 18.6974 13.8033 18.7124C14.0055 19.0081 13.9671 19.3439 13.9671 19.673C13.9671 23.1212 13.9654 26.5694 13.9637 30.0175C16.5348 28.6159 19.1059 27.2176 21.6753 25.8126C22.8147 25.1894 23.9373 24.5329 25.0884 23.9298C25.5294 23.6992 25.7316 23.4069 25.7884 22.9124C26.4349 17.2256 27.0965 11.5371 27.7564 5.85034C27.8065 5.41431 27.8098 5.10525 27.2585 4.91146C22.8748 3.38284 18.5045 1.81079 14.1308 0.255443C14.0823 0.238737 14.0222 0.253772 13.9671 0.253772Z" fill="black"/>
<path d="M13.8042 18.7143C14.9085 18.6993 16.0128 18.7009 17.1154 18.6592C17.5063 18.6441 17.6366 18.8413 17.7569 19.1486C18.1896 20.2529 18.659 21.3455 19.0717 22.4581C19.2287 22.8842 19.4325 23.0779 19.9086 23.0479C20.5702 23.0061 21.2368 23.0111 21.8983 23.0462C22.468 23.0763 22.6167 22.9694 22.3477 22.383C21.1967 19.8754 20.0891 17.3477 18.9697 14.8268C17.3025 11.0695 15.6369 7.31065 13.9713 3.55176C13.3047 4.38038 13.0173 5.39946 12.5913 6.34503C10.2207 11.6125 7.88018 16.895 5.52962 22.1708C5.27235 22.7477 5.46614 23.0367 6.111 23.0378C7.69363 23.0423 8.77229 22.3134 9.34698 20.851C9.62932 20.1343 9.76631 19.162 10.3026 18.8012C10.8422 18.437 11.7961 18.6809 12.5679 18.6742C12.9806 18.6709 13.3949 18.7009 13.8092 18.716L13.8042 18.7143ZM14.1333 15.8709C13.4149 15.8843 12.6966 15.8709 11.9799 15.921C11.4436 15.9578 11.4603 15.7239 11.6174 15.3513C12.015 14.4091 12.3925 13.4585 12.8068 12.5246C13.1243 11.8113 13.2746 11.0161 13.8092 10.403C13.8861 10.286 14.0264 10.2727 14.0698 10.3762C14.8333 12.1855 15.5834 14.0015 16.3602 15.8709H14.1316H14.1333Z" fill="#FEFDFD"/>
<path d="M13.8107 10.4028C13.2761 11.0143 13.1257 11.8095 12.8083 12.5245C12.3923 13.4584 12.0164 14.409 11.6188 15.3512C11.4618 15.7238 11.4434 15.956 11.9813 15.9209C12.6964 15.8724 13.4164 15.8858 14.1348 15.8708C13.8224 15.2426 14.0195 14.571 13.9694 13.9212C13.8808 12.7501 14.1498 11.5639 13.8123 10.4028H13.8107Z" fill="black"/>
<path d="M13.8113 10.4034C14.1487 11.5628 13.8798 12.7506 13.9683 13.9217C14.0184 14.5716 13.8196 15.2432 14.1337 15.8713C14.842 15.8713 15.5521 15.8713 16.3623 15.8713C15.5855 14.0019 14.8354 12.1859 14.0719 10.3767C14.0285 10.2731 13.8881 10.2864 13.8113 10.4034Z" fill="black"/>
</g>
<defs>
<clipPath id="clip0_332_1509">
<rect width="27.7774" height="29.7938" fill="white" transform="matrix(-1 0 0 1 27.7773 0.247559)"/>
</clipPath>
</defs>
</svg>
