<svg width="198" height="34" viewBox="0 0 198 34" fill="none" xmlns="http://www.w3.org/2000/svg">
<g clip-path="url(#clip0_479_1938)">
<path fill-rule="evenodd" clip-rule="evenodd" d="M74.6788 11.5225H77.0543V13.8167H74.6788V11.5225ZM87.4032 25.4059C87.1225 25.2533 86.933 25.0342 86.8345 24.7536C86.7361 24.4754 86.6868 24.1653 86.6868 23.828V17.5189H90.3054V15.7933H86.6868V12.448L84.5625 13.6049V15.7933H81.8276V17.5189H84.5625V23.828C84.5625 24.5443 84.688 25.1696 84.9416 25.7013C85.1926 26.233 85.5717 26.6466 86.0764 26.942C86.581 27.2226 87.1915 27.3629 87.9078 27.3629H92.1566V25.6373H88.6857C88.1244 25.6373 87.6961 25.561 87.4032 25.4059ZM101.498 20.9259C102.045 21.0662 102.544 21.2607 102.992 21.5142V21.5118C103.44 21.7505 103.8 22.0804 104.066 22.5013C104.346 22.9223 104.486 23.4712 104.486 24.1432C104.486 25.2239 104.051 26.0707 103.182 26.6886C102.313 27.3064 101.156 27.6141 99.7109 27.6141C98.6869 27.6141 97.7835 27.4369 96.9982 27.0873C96.2278 26.723 95.632 26.2184 95.2111 25.5734C94.7902 24.9137 94.5736 24.1285 94.5588 23.2177H96.5576C96.5576 24.0719 96.8456 24.7463 97.4192 25.2362C97.9952 25.7261 98.7509 25.9722 99.6913 25.9722C100.491 25.9722 101.129 25.827 101.606 25.5316C102.096 25.2239 102.342 24.8103 102.342 24.2909C102.342 23.8848 102.202 23.5623 101.921 23.3235C101.656 23.0724 101.299 22.8755 100.848 22.7352C100.398 22.5949 99.9005 22.4767 99.354 22.3783C98.8223 22.265 98.2807 22.1395 97.7343 21.9992C97.2026 21.8441 96.7102 21.6545 96.2622 21.4305C95.8142 21.1918 95.4499 20.8767 95.1693 20.4828C94.8886 20.089 94.7483 19.604 94.7483 18.9468C94.7483 18.2895 94.9379 17.7061 95.317 17.2015C95.6936 16.6821 96.2278 16.2759 96.9145 15.9805C97.6161 15.6876 98.4432 15.5399 99.3959 15.5399C100.841 15.5399 101.998 15.8771 102.867 16.5492C103.75 17.2089 104.226 18.1197 104.297 19.284H102.298C102.256 18.612 101.976 18.0926 101.456 17.7283C100.949 17.3492 100.262 17.1596 99.3934 17.1596C98.5811 17.1596 97.9583 17.3221 97.5226 17.6446C97.1016 17.967 96.8924 18.3757 96.8924 18.8655C96.8924 19.2422 97.0327 19.5449 97.3133 19.7689C97.594 19.9782 97.9583 20.148 98.4063 20.2736C98.8543 20.3844 99.3442 20.4902 99.8783 20.5887C100.425 20.6724 100.966 20.7856 101.498 20.9259ZM115.163 25.1968C114.56 25.6301 113.801 25.8491 112.891 25.8491C112.12 25.8491 111.46 25.6719 110.914 25.3224C110.367 24.9728 109.947 24.4805 109.651 23.8503C109.37 23.2054 109.23 22.4693 109.23 21.6422C109.23 21.5339 109.233 21.4281 109.238 21.3247H118.338C118.451 19.5302 118.053 18.1221 117.139 17.0981C116.229 16.0593 114.84 15.5399 112.974 15.5399C111.756 15.5399 110.702 15.7787 109.819 16.2562C108.95 16.7338 108.278 17.4206 107.8 18.3191C107.337 19.2151 107.106 20.2957 107.106 21.5561C107.106 22.8164 107.337 23.9069 107.8 24.8177C108.263 25.7162 108.93 26.4104 109.799 26.9002C110.668 27.3778 111.699 27.6166 112.891 27.6166C114.434 27.6166 115.694 27.2449 116.677 26.5015C117.659 25.7581 118.24 24.734 118.424 23.4294H116.297C116.16 24.1728 115.781 24.7611 115.163 25.1968ZM110.198 18.4224C110.843 17.6667 111.768 17.2876 112.974 17.2876C113.873 17.2876 114.616 17.5116 115.205 17.9597C115.793 18.4101 116.115 19.0058 116.172 19.7493L109.494 19.7296C109.654 19.22 109.89 18.7868 110.198 18.4224ZM127.308 22.7572L126.466 25.4059L125.647 22.7572L122.976 15.7933H120.724L125.248 27.3629H127.646L132.145 15.7933H129.979L127.308 22.7572ZM76.9509 15.7933H72.0917V17.5189H74.8241V25.6373H70.5556V27.3629H80.9264V25.6373H76.9509V15.7933ZM62.6936 15.5423C63.7299 15.5423 64.6284 15.7171 65.3866 16.0666C66.1423 16.4039 66.7257 16.8937 67.1319 17.5387C67.5528 18.1836 67.762 18.9689 67.762 19.8944V27.363H65.7435L65.6869 25.5512C65.3447 26.1076 64.9016 26.5556 64.3552 26.9002C63.597 27.3777 62.664 27.6165 61.5563 27.6165C60.8006 27.6165 60.1335 27.4811 59.5599 27.2153C58.9839 26.9347 58.5359 26.5433 58.2134 26.0386C57.8885 25.5192 57.7285 24.9161 57.7285 24.2293C57.7285 23.0379 58.1839 22.1124 59.0972 21.4526C60.0203 20.7929 61.3126 20.4631 62.9668 20.4631H65.6598V19.791C65.6598 18.9639 65.3866 18.319 64.8376 17.8562C64.3059 17.3787 63.5404 17.1399 62.6296 17.1399C61.7188 17.1399 60.9754 17.3491 60.3993 17.7701C59.8258 18.1787 59.5082 18.7449 59.4541 19.476H57.3716C57.4405 18.6464 57.7088 17.9473 58.1691 17.3713C58.6319 16.783 59.2498 16.3325 60.0203 16.0248C60.7932 15.7023 61.6572 15.5423 62.6936 15.5423ZM64.2075 25.1968C64.7909 24.7881 65.2734 24.2466 65.6598 23.5745V22.041H62.8831C61.928 22.041 61.1772 22.2231 60.6307 22.5874C60.099 22.9518 59.8332 23.4638 59.8332 24.1235C59.8332 24.67 60.0203 25.0983 60.3993 25.406C60.7932 25.7162 61.32 25.8688 61.9772 25.8688C62.8191 25.8688 63.5625 25.6448 64.2075 25.1968ZM50.8727 19.5178V19.4342C51.9534 19.2668 52.8149 18.8877 53.4599 18.2993C54.1048 17.6962 54.4273 16.8839 54.4273 15.8599C54.4273 15.1312 54.2377 14.4937 53.8586 13.9447C53.4796 13.3835 52.9183 12.9429 52.1749 12.6204C51.4463 12.2979 50.5404 12.1355 49.4622 12.1355C48.7459 12.1355 48.0738 12.2044 47.4437 12.3447C46.8135 12.485 46.2375 12.6746 45.7181 12.9133C45.2135 13.1373 44.7654 13.3983 44.3716 13.6912L45.2775 14.9737C45.8658 14.5946 46.4689 14.2869 47.0867 14.0481C47.7169 13.8094 48.5022 13.6912 49.4425 13.6912C50.3828 13.6912 51.0696 13.8955 51.6309 14.3017C52.1921 14.7078 52.4728 15.2913 52.4728 16.047C52.4728 16.6082 52.3054 17.0981 51.9681 17.519C51.6457 17.9252 51.1558 18.2403 50.4961 18.4667C49.8511 18.6907 49.0314 18.804 48.0345 18.804H45.9938V20.3819H48.1403C49.5976 20.3819 50.7349 20.5985 51.5472 21.0342C52.3595 21.4699 52.7682 22.1641 52.7682 23.1167C52.7682 24.0694 52.4161 24.7586 51.717 25.2633C51.0302 25.7679 50.0136 26.0214 48.6671 26.0214C48.2043 26.0214 47.7194 25.987 47.2147 25.9156C46.7101 25.8319 46.2055 25.7187 45.7009 25.5783C45.211 25.4233 44.7482 25.2411 44.3125 25.0319V26.7575C44.9427 27.0652 45.6245 27.2769 46.3532 27.3876C47.0966 27.5132 47.8745 27.5772 48.6868 27.5772C50.0333 27.5772 51.1558 27.3876 52.0518 27.0085C52.9503 26.6295 53.6223 26.1101 54.0703 25.4528C54.5184 24.7808 54.7424 24.0004 54.7424 23.1167C54.7424 22.1222 54.4125 21.3148 53.7528 20.697C53.0931 20.0791 52.1331 19.6877 50.8702 19.5178H50.8727ZM174.478 16.1307C175.263 16.6353 175.881 17.3442 176.329 18.255C176.777 19.1658 177.001 20.2243 177.001 21.3887C177.001 22.553 176.777 23.5918 176.329 24.5026C175.881 25.4159 175.263 26.1298 174.478 26.6492C173.707 27.1686 172.804 27.427 171.765 27.427C170.968 27.427 170.229 27.2596 169.557 26.9224C168.9 26.5728 168.366 26.1174 167.959 25.5562L167.895 27.1759H165.877V11.7145H168.001V17.1424C168.407 16.5811 168.939 16.1454 169.599 15.8377C170.259 15.5153 170.98 15.3528 171.765 15.3528C172.801 15.3528 173.707 15.6113 174.478 16.1307ZM173.173 25.0934C173.705 24.7291 174.118 24.2294 174.414 23.5992C174.707 22.9543 174.854 22.233 174.854 21.3911C174.854 20.5493 174.709 19.8132 174.414 19.1831C174.121 18.5381 173.707 18.0384 173.173 17.6889C172.641 17.3246 172.046 17.1424 171.302 17.1424C170.559 17.1424 169.892 17.3516 169.303 17.7726C168.715 18.1787 168.279 18.7548 167.999 19.4982V23.2644C168.279 23.9931 168.715 24.574 169.303 25.0097C169.892 25.4307 170.588 25.6399 171.302 25.6399C172.016 25.6399 172.641 25.4577 173.173 25.0934ZM159.787 25.0073C159.184 25.443 158.425 25.6597 157.515 25.6597C156.742 25.6597 156.084 25.4849 155.535 25.1329C154.989 24.7833 154.568 24.291 154.275 23.6608C153.994 23.0159 153.854 22.2799 153.854 21.4528C153.854 21.3469 153.857 21.2411 153.862 21.1377H162.962C163.075 19.3407 162.674 17.9326 161.763 16.9086C160.853 15.8698 159.464 15.3529 157.598 15.3529C156.377 15.3529 155.326 15.5892 154.443 16.0667C153.574 16.5443 152.899 17.2311 152.424 18.1296C151.961 19.0256 151.73 20.1062 151.73 21.3691C151.73 22.6319 151.961 23.7174 152.424 24.6282C152.887 25.5267 153.551 26.2209 154.423 26.7108C155.292 27.1883 156.321 27.4271 157.515 27.4271C159.056 27.4271 160.318 27.0554 161.301 26.312C162.283 25.5686 162.864 24.5445 163.046 23.2399H160.921C160.781 23.9833 160.402 24.5716 159.787 25.0073ZM154.822 18.233C155.467 17.4772 156.392 17.0982 157.598 17.0982C158.494 17.0982 159.238 17.3222 159.829 17.7702C160.417 18.2207 160.739 18.8164 160.796 19.5598L154.118 19.5401C154.278 19.0305 154.514 18.5973 154.822 18.233ZM147.008 25.2582L147.198 21.8095L148.123 12.4898H150.228L148.567 27.1733H145.6L144.19 19.0328L143.769 15.7293L143.306 19.0328L141.856 27.1733H138.868L137.228 12.4898H139.353L140.32 21.8095L140.552 25.1745L141.076 21.8095L142.737 12.4898H144.778L146.462 21.8095L147.008 25.2582Z" fill="white"/>
<path d="M33.478 0V27.8039H27.8975V33.3352H16.739V27.8039H11.1585V33.3352H5.58048V27.8039H0V22.2235H5.58048V27.7572H11.1585V0H16.739V16.6922H27.8975V0H33.478Z" fill="#B5F602"/>
</g>
<defs>
<clipPath id="clip0_479_1938">
<rect width="177" height="33.3352" fill="white"/>
</clipPath>
</defs>
</svg>
