<svg width="291" height="55" viewBox="0 0 291 55" fill="none" xmlns="http://www.w3.org/2000/svg">
<g clip-path="url(#clip0_2198_44)">
<path fill-rule="evenodd" clip-rule="evenodd" d="M122.617 19.0527H126.517V22.8197H122.617V19.0527ZM143.509 41.8488C143.048 41.5982 142.737 41.2385 142.575 40.7777C142.414 40.321 142.333 39.8117 142.333 39.258V28.8987H148.274V26.0654H142.333V20.5726L138.845 22.4722V26.0654H134.354V28.8987H138.845V39.258C138.845 40.4341 139.051 41.4608 139.467 42.3338C139.879 43.2068 140.502 43.8858 141.331 44.3709C142.159 44.8316 143.161 45.062 144.338 45.062H151.314V42.2287H145.615C144.693 42.2287 143.99 42.1034 143.509 41.8488ZM166.653 34.4925C167.55 34.7228 168.37 35.0421 169.106 35.4585V35.4544C169.842 35.8465 170.432 36.3881 170.868 37.0792C171.329 37.7704 171.559 38.6717 171.559 39.7751C171.559 41.5495 170.844 42.9399 169.417 43.9544C167.99 44.9689 166.091 45.4741 163.718 45.4741C162.037 45.4741 160.553 45.1831 159.264 44.6092C157.999 44.011 157.021 43.1824 156.33 42.1234C155.639 41.0402 155.283 39.7509 155.259 38.2554H158.541C158.541 39.6579 159.014 40.7654 159.955 41.5697C160.901 42.374 162.142 42.7782 163.686 42.7782C164.999 42.7782 166.046 42.5397 166.83 42.0547C167.635 41.5495 168.039 40.8705 168.039 40.0176C168.039 39.3507 167.809 38.8213 167.348 38.4292C166.911 38.0169 166.325 37.6936 165.586 37.4632C164.846 37.2328 164.029 37.0388 163.132 36.8771C162.259 36.6912 161.37 36.4851 160.473 36.2547C159.6 36.0001 158.791 35.6888 158.056 35.321C157.32 34.929 156.722 34.4116 156.261 33.7649C155.8 33.1182 155.57 32.322 155.57 31.2428C155.57 30.1637 155.881 29.2057 156.504 28.3772C157.122 27.5243 157.999 26.8574 159.127 26.3724C160.279 25.8914 161.637 25.6489 163.201 25.6489C165.573 25.6489 167.473 26.2027 168.9 27.3061C170.351 28.3893 171.131 29.8848 171.248 31.7966H167.966C167.897 30.6931 167.437 29.8403 166.584 29.2421C165.751 28.6197 164.624 28.3085 163.197 28.3085C161.863 28.3085 160.84 28.5752 160.125 29.1047C159.434 29.6342 159.09 30.3051 159.09 31.1094C159.09 31.7278 159.321 32.225 159.781 32.5928C160.242 32.9364 160.84 33.2152 161.576 33.4214C162.312 33.6033 163.116 33.7771 163.993 33.9387C164.89 34.0762 165.78 34.2621 166.653 34.4925ZM189.089 41.505C188.099 42.2164 186.854 42.5761 185.358 42.5761C184.093 42.5761 183.01 42.2851 182.113 41.7112C181.215 41.1372 180.524 40.3289 180.039 39.2942C179.578 38.2352 179.348 37.0267 179.348 35.6686C179.348 35.4908 179.352 35.317 179.36 35.1472H194.303C194.489 32.2007 193.834 29.8888 192.334 28.2074C190.839 26.5018 188.559 25.6489 185.496 25.6489C183.495 25.6489 181.765 26.041 180.314 26.8251C178.887 27.6092 177.784 28.7369 177 30.2122C176.24 31.6834 175.86 33.4578 175.86 35.5272C175.86 37.5966 176.24 39.3871 177 40.8826C177.76 42.3579 178.855 43.4977 180.282 44.302C181.708 45.0861 183.402 45.4782 185.358 45.4782C187.892 45.4782 189.962 44.8678 191.575 43.6472C193.187 42.4266 194.141 40.7452 194.444 38.603H190.952C190.726 39.8236 190.103 40.7896 189.089 41.505ZM180.936 30.3819C181.995 29.1411 183.515 28.5186 185.496 28.5186C186.971 28.5186 188.192 28.8864 189.158 29.6221C190.124 30.3617 190.653 31.3398 190.746 32.5605L179.781 32.5281C180.043 31.6915 180.431 30.9801 180.936 30.3819ZM209.031 37.4997L207.649 41.8487L206.303 37.4997L201.918 26.0654H198.219L205.648 45.062H209.585L216.973 26.0654H213.417L209.031 37.4997ZM126.348 26.0654H118.369V28.8987H122.855V42.2286H115.847V45.062H132.875V42.2286H126.348V26.0654ZM102.937 25.6529C104.639 25.6529 106.114 25.9398 107.359 26.5138C108.6 27.0675 109.558 27.8718 110.225 28.9308C110.916 29.9898 111.259 31.2791 111.259 32.7988V45.0618H107.945L107.852 42.087C107.29 43.0004 106.563 43.736 105.665 44.3019C104.421 45.086 102.889 45.4781 101.07 45.4781C99.829 45.4781 98.7337 45.2558 97.792 44.8192C96.8462 44.3585 96.1106 43.7158 95.5811 42.8872C95.0476 42.0344 94.7848 41.0442 94.7848 39.9165C94.7848 37.9603 95.5326 36.4405 97.0321 35.3573C98.5478 34.2741 100.67 33.7325 103.386 33.7325H107.808V32.6291C107.808 31.271 107.359 30.2121 106.458 29.4522C105.585 28.6681 104.328 28.276 102.832 28.276C101.337 28.276 100.116 28.6196 99.1702 29.3107C98.2285 29.9817 97.7071 30.9113 97.6182 32.1117H94.1988C94.3119 30.7496 94.7525 29.6017 95.5083 28.656C96.2682 27.69 97.2827 26.9503 98.5478 26.4451C99.8169 25.9156 101.236 25.6529 102.937 25.6529ZM105.423 41.5049C106.381 40.834 107.173 39.9448 107.808 38.8414V36.3233H103.248C101.68 36.3233 100.447 36.6224 99.5502 37.2206C98.6771 37.8188 98.2406 38.6595 98.2406 39.7427C98.2406 40.64 98.5478 41.3433 99.1702 41.8485C99.8169 42.3578 100.682 42.6084 101.761 42.6084C103.143 42.6084 104.364 42.2406 105.423 41.5049ZM83.5283 32.1805V32.0431C85.3027 31.7682 86.7173 31.1458 87.7763 30.1798C88.8352 29.1895 89.3647 27.8557 89.3647 26.1743C89.3647 24.978 89.0535 23.9311 88.4311 23.0298C87.8086 22.1083 86.8871 21.3848 85.6664 20.8553C84.4701 20.3258 82.9827 20.059 81.2123 20.059C80.0362 20.059 78.9328 20.1722 77.898 20.4026C76.8633 20.633 75.9176 20.9442 75.0647 21.3363C74.2361 21.7041 73.5005 22.1325 72.8538 22.6135L74.3412 24.7193C75.3072 24.0968 76.2975 23.5916 77.312 23.1996C78.3467 22.8075 79.636 22.6135 81.18 22.6135C82.724 22.6135 83.8517 22.949 84.7732 23.6159C85.6947 24.2828 86.1555 25.2407 86.1555 26.4815C86.1555 27.4031 85.8807 28.2074 85.3269 28.8985C84.7975 29.5654 83.9931 30.0828 82.9099 30.4546C81.851 30.8224 80.505 31.0084 78.8681 31.0084H75.5174V33.5992H79.0419C81.4346 33.5992 83.302 33.9549 84.6358 34.6703C85.9696 35.3857 86.6405 36.5255 86.6405 38.0897C86.6405 39.6538 86.0625 40.7856 84.9147 41.6141C83.787 42.4427 82.1177 42.859 79.9068 42.859C79.147 42.859 78.3507 42.8024 77.5222 42.6852C76.6936 42.5478 75.865 42.3619 75.0364 42.1315C74.2321 41.8769 73.4722 41.5778 72.7568 41.2342V44.0675C73.7915 44.5728 74.9111 44.9204 76.1075 45.1022C77.3282 45.3084 78.6054 45.4135 79.9392 45.4135C82.1501 45.4135 83.9931 45.1022 85.4644 44.4798C86.9396 43.8574 88.043 43.0045 88.7787 41.9254C89.5143 40.8219 89.8821 39.5407 89.8821 38.0897C89.8821 36.4568 89.3405 35.131 88.2573 34.1165C87.1741 33.102 85.5977 32.4594 83.5243 32.1805H83.5283ZM286.481 26.619C287.77 27.4475 288.785 28.6116 289.52 30.1071C290.256 31.6025 290.624 33.3405 290.624 35.2523C290.624 37.1641 290.256 38.8697 289.52 40.3652C288.785 41.8647 287.77 43.0369 286.481 43.8897C285.216 44.7425 283.732 45.1669 282.027 45.1669C280.717 45.1669 279.505 44.8921 278.401 44.3383C277.322 43.7644 276.445 43.0167 275.778 42.0951L275.673 44.7547H272.359V19.3679H275.847V28.2801C276.514 27.3586 277.387 26.6432 278.47 26.138C279.553 25.6085 280.737 25.3417 282.027 25.3417C283.728 25.3417 285.216 25.7661 286.481 26.619ZM284.339 41.3353C285.212 40.7371 285.891 39.9166 286.376 38.8819C286.857 37.8229 287.099 36.6387 287.099 35.2564C287.099 33.874 286.861 32.6655 286.376 31.6308C285.895 30.5719 285.216 29.7514 284.339 29.1774C283.466 28.5792 282.488 28.2801 281.267 28.2801C280.046 28.2801 278.951 28.6237 277.985 29.3149C277.019 29.9818 276.303 30.9275 275.843 32.1482V38.3322C276.303 39.5286 277.019 40.4824 277.985 41.1978C278.951 41.889 280.095 42.2326 281.267 42.2326C282.439 42.2326 283.466 41.9335 284.339 41.3353ZM262.359 41.1939C261.369 41.9093 260.124 42.265 258.628 42.265C257.359 42.265 256.28 41.978 255.379 41.4C254.482 40.8261 253.79 40.0177 253.309 38.983C252.849 37.9241 252.618 36.7156 252.618 35.3575C252.618 35.1837 252.622 35.0099 252.63 34.8402H267.573C267.759 31.8896 267.1 29.5777 265.605 27.8963C264.109 26.1906 261.83 25.3418 258.766 25.3418C256.761 25.3418 255.035 25.7299 253.584 26.514C252.158 27.2981 251.05 28.4258 250.27 29.901C249.51 31.3723 249.13 33.1466 249.13 35.2201C249.13 37.2935 249.51 39.076 250.27 40.5715C251.03 42.0467 252.121 43.1865 253.552 43.9909C254.979 44.775 256.668 45.167 258.628 45.167C261.159 45.167 263.232 44.5567 264.845 43.3361C266.458 42.1154 267.411 40.434 267.71 38.2919H264.222C263.992 39.5125 263.37 40.4785 262.359 41.1939ZM254.207 30.0708C255.266 28.8299 256.785 28.2075 258.766 28.2075C260.237 28.2075 261.458 28.5753 262.428 29.3109C263.394 30.0506 263.923 31.0287 264.016 32.2493L253.051 32.217C253.313 31.3803 253.701 30.669 254.207 30.0708ZM241.378 41.6062L241.689 35.9436L243.209 20.6412H246.665L243.936 44.7508H239.066L236.75 31.3844L236.059 25.9603L235.299 31.3844L232.918 44.7508H228.012L225.32 20.6412H228.808L230.396 35.9436L230.776 41.4688L231.637 35.9436L234.365 20.6412H237.716L240.481 35.9436L241.378 41.6062Z" fill="black"/>
<path d="M54.9689 0.132812V45.7853H45.8061V54.8673H27.4845V45.7853H18.3216V54.8673H9.16283V45.7853H0V36.6225H9.16283V45.7085H18.3216V0.132812H27.4845V27.5405H45.8061V0.132812H54.9689Z" fill="#B5F602"/>
</g>
<defs>
<clipPath id="clip0_2198_44">
<rect width="290.624" height="54.7345" fill="white" transform="translate(0 0.132812)"/>
</clipPath>
</defs>
</svg>