<svg width="19" height="15" viewBox="0 0 19 15" fill="none" xmlns="http://www.w3.org/2000/svg">
<path d="M18.454 4.3675C18.4177 4.38607 18.3931 4.3974 18.3698 4.41093C16.1803 5.67782 13.9912 6.94472 11.8017 8.21161C11.0682 8.63611 10.335 9.06093 9.60154 9.48543C9.35089 9.6305 9.10024 9.62892 8.84958 9.48385C6.31907 8.01934 3.78887 6.55515 1.25836 5.09063C0.870539 4.86627 0.482719 4.64127 0.094593 4.41691C0.0684509 4.4018 0.0416927 4.38827 0.00540161 4.36845C0.00355721 4.40715 0.00109863 4.43453 0.00109863 4.46191C0.00109863 7.41705 0.00079155 10.3725 0.00109863 13.3276C0.00109863 14.0697 0.539923 14.621 1.26451 14.621C6.5771 14.621 11.89 14.6213 17.2026 14.621C17.91 14.621 18.4537 14.064 18.4537 13.3387C18.4543 10.3807 18.454 7.42303 18.454 4.46505C18.454 4.43705 18.454 4.40935 18.454 4.36719V4.3675Z" fill="black"/>
<path d="M9.23026 0.775929C6.57243 0.775929 3.9149 0.775929 1.25706 0.775929C0.655806 0.775929 0.167418 1.16959 0.0317898 1.76528C0.0114918 1.8537 0.00411034 1.94685 0.0028801 2.0381C-0.000810623 2.30558 0.00349426 2.57306 0.000110626 2.84053C-0.00050354 2.89906 0.0201015 2.92864 0.068079 2.95602C1.23523 3.62314 2.40176 4.29183 3.56829 4.96021C5.19307 5.89102 6.81754 6.82216 8.44232 7.75297C8.67698 7.88734 8.91287 8.01951 9.14569 8.15702C9.20351 8.19132 9.24656 8.19321 9.30654 8.15859C10.689 7.36403 12.0726 6.57199 13.456 5.77963C15.0426 4.87052 16.6296 3.96142 18.2159 3.05231C18.294 3.00763 18.3995 2.97773 18.4395 2.90882C18.4792 2.84053 18.454 2.73134 18.4546 2.6404C18.4555 2.44907 18.4555 2.25743 18.4546 2.06611C18.4524 1.32976 17.9142 0.776559 17.1955 0.776559C14.5404 0.775615 11.8853 0.775929 9.23026 0.775929Z" fill="black"/>
</svg>
