<svg width="19" height="14" viewBox="0 0 19 14" fill="none" xmlns="http://www.w3.org/2000/svg">
<g clip-path="url(#clip0_479_1670)">
<path d="M18.2187 3.95734C18.1832 3.97547 18.1592 3.98653 18.1364 3.99974C15.9985 5.23679 13.861 6.47385 11.7231 7.7109C11.0069 8.1254 10.2909 8.54021 9.57472 8.95471C9.32997 9.09636 9.08522 9.09482 8.84047 8.95317C6.36957 7.52316 3.89896 6.09345 1.42806 4.66344C1.04938 4.44435 0.670692 4.22466 0.29171 4.00558C0.266184 3.99083 0.240055 3.97762 0.20462 3.95826C0.202818 3.99605 0.200417 4.02279 0.200417 4.04952C0.200417 6.93505 0.200117 9.82089 0.200417 12.7064C0.200417 13.431 0.726549 13.9693 1.43407 13.9693C6.62152 13.9693 11.8093 13.9696 16.9967 13.9693C17.6874 13.9693 18.2184 13.4254 18.2184 12.7172C18.219 9.82888 18.2187 6.94089 18.2187 4.05259C18.2187 4.02524 18.2187 3.9982 18.2187 3.95703V3.95734Z" fill="white"/>
<path d="M9.21237 0.451221C6.61714 0.451221 4.02221 0.451221 1.42698 0.451221C0.839886 0.451221 0.363003 0.835611 0.230568 1.41726C0.210749 1.50361 0.203541 1.59456 0.202339 1.68366C0.198736 1.94484 0.20294 2.20602 0.199636 2.46719C0.199036 2.52434 0.219156 2.55323 0.266005 2.57996C1.40566 3.23136 2.54471 3.8843 3.68377 4.53693C5.27027 5.44583 6.85648 6.35503 8.44299 7.26392C8.67212 7.39512 8.90245 7.52417 9.12979 7.65845C9.18624 7.69194 9.22828 7.69378 9.28684 7.65998C10.6367 6.88414 11.9878 6.11075 13.3386 5.33705C14.8878 4.44936 16.4374 3.56167 17.9864 2.67398C18.0626 2.63035 18.1656 2.60116 18.2047 2.53387C18.2434 2.46719 18.2188 2.36057 18.2194 2.27177C18.2203 2.08495 18.2203 1.89783 18.2194 1.71101C18.2173 0.992009 17.6918 0.451836 16.99 0.451836C14.3974 0.450914 11.8049 0.451221 9.21237 0.451221Z" fill="white"/>
</g>
<defs>
<clipPath id="clip0_479_1670">
<rect width="18.0267" height="13.52" fill="white" transform="matrix(-1 0 0 1 18.2266 0.454102)"/>
</clipPath>
</defs>
</svg>
