<svg width="844" height="548" viewBox="0 0 844 548" fill="none" xmlns="http://www.w3.org/2000/svg">
<path d="M135.822 416.964H756.25" stroke="#E2E2E2" stroke-width="3.73752" stroke-linecap="round"/>
<path d="M134.576 238.23H755.004" stroke="#BDBDBD" stroke-width="1.24584" stroke-linecap="round" stroke-dasharray="7.48 7.48"/>
<path d="M453.512 414.517C461.61 395.206 492.856 340.961 564.391 331.046C627.306 322.325 688.975 326.685 762.48 241.345" stroke="url(#paint0_linear_332_1556)" stroke-width="3.73752"/>
<rect x="546.949" y="359.076" width="180.9" height="37.9667" rx="18.9834" fill="#B5F602"/>
<path d="M573.73 376.342V377.909H566.114V376.342H573.73ZM572.777 377.888V376.67C572.777 374.742 572.396 373.309 571.633 372.369C570.87 371.43 569.836 370.96 568.529 370.96C567.308 370.96 566.361 371.278 565.69 371.914C565.027 372.549 564.691 373.383 564.684 374.414V374.583H562.799V374.414C562.799 372.91 563.304 371.688 564.313 370.749C565.323 369.809 566.732 369.34 568.54 369.34C570.404 369.34 571.894 369.982 573.01 371.268C574.126 372.553 574.684 374.361 574.684 376.691V377.602C574.684 380.257 574.098 382.214 572.925 383.471C571.76 384.728 570.274 385.356 568.466 385.356C566.672 385.356 565.274 384.862 564.271 383.873C563.275 382.877 562.777 381.663 562.777 380.229V380.113H564.663V380.208C564.663 381.218 564.977 382.058 565.606 382.729C566.241 383.4 567.195 383.735 568.466 383.735C569.921 383.735 571.001 383.213 571.707 382.168C572.42 381.115 572.777 379.689 572.777 377.888ZM578.561 379.784C578.561 380.957 578.847 381.91 579.419 382.644C579.998 383.379 580.965 383.781 582.321 383.852V375.378C580.965 375.448 579.998 375.851 579.419 376.585C578.847 377.313 578.561 378.266 578.561 379.445V379.784ZM587.904 379.445C587.904 378.266 587.614 377.313 587.035 376.585C586.463 375.851 585.499 375.448 584.143 375.378V383.841C585.499 383.771 586.463 383.372 587.035 382.644C587.614 381.917 587.904 380.964 587.904 379.784V379.445ZM582.321 385.356C580.492 385.286 579.098 384.759 578.137 383.778C577.177 382.789 576.696 381.458 576.696 379.784V379.445C576.696 377.772 577.177 376.441 578.137 375.452C579.098 374.463 580.492 373.934 582.321 373.863V368.927H584.143V373.863C585.972 373.934 587.367 374.463 588.327 375.452C589.288 376.441 589.768 377.772 589.768 379.445V379.784C589.768 381.458 589.288 382.789 588.327 383.778C587.367 384.759 585.972 385.286 584.143 385.356V389.519H582.321V385.356ZM593.327 379.784C593.327 380.957 593.613 381.91 594.185 382.644C594.764 383.379 595.732 383.781 597.088 383.852V375.378C595.732 375.448 594.764 375.851 594.185 376.585C593.613 377.313 593.327 378.266 593.327 379.445V379.784ZM602.67 379.445C602.67 378.266 602.381 377.313 601.802 376.585C601.23 375.851 600.266 375.448 598.91 375.378V383.841C600.266 383.771 601.23 383.372 601.802 382.644C602.381 381.917 602.67 380.964 602.67 379.784V379.445ZM597.088 385.356C595.259 385.286 593.864 384.759 592.904 383.778C591.943 382.789 591.463 381.458 591.463 379.784V379.445C591.463 377.772 591.943 376.441 592.904 375.452C593.864 374.463 595.259 373.934 597.088 373.863V368.927H598.91V373.863C600.739 373.934 602.133 374.463 603.094 375.452C604.054 376.441 604.534 377.772 604.534 379.445V379.784C604.534 381.458 604.054 382.789 603.094 383.778C602.133 384.759 600.739 385.286 598.91 385.356V389.519H597.088V385.356ZM606.229 379.784V379.445C606.229 377.8 606.674 376.458 607.564 375.42C608.461 374.382 609.644 373.863 611.113 373.863C612.582 373.863 613.708 374.347 614.492 375.314C615.283 376.282 615.678 377.599 615.678 379.265V380.007H607.342V378.534H613.846V378.312C613.846 377.514 613.62 376.825 613.168 376.246C612.723 375.667 612.059 375.378 611.176 375.378C610.145 375.378 609.372 375.766 608.856 376.543C608.348 377.32 608.094 378.287 608.094 379.445V379.784C608.094 380.935 608.362 381.903 608.899 382.687C609.443 383.464 610.272 383.852 611.388 383.852C612.094 383.852 612.698 383.7 613.199 383.396C613.701 383.093 614.107 382.729 614.418 382.305L615.593 383.259C615.262 383.774 614.739 384.255 614.026 384.699C613.312 385.137 612.437 385.356 611.399 385.356C609.732 385.356 608.454 384.841 607.564 383.81C606.674 382.772 606.229 381.43 606.229 379.784ZM624.968 385.06L620.646 380.113L621.78 378.884L627.214 385.06H624.968ZM618.909 378.778H620.72L624.672 374.17H626.811L621.589 380.229H618.909V378.778ZM619.82 374.17V385.06H617.998V374.17H619.82ZM627.394 375.611V374.17H636.112V375.611H632.669V385.06H630.837V375.611H627.394ZM642.976 389.519V374.17H644.628L644.703 375.611H644.756C645.038 375.152 645.469 374.763 646.048 374.446C646.627 374.121 647.298 373.958 648.061 373.958C649.445 373.958 650.543 374.47 651.355 375.494C652.174 376.518 652.584 377.832 652.584 379.435V379.774C652.584 381.377 652.174 382.694 651.355 383.725C650.543 384.756 649.445 385.271 648.061 385.271C647.298 385.271 646.645 385.134 646.101 384.858C645.557 384.576 645.123 384.209 644.798 383.757V389.519H642.976ZM644.798 381.861C645.017 382.355 645.373 382.796 645.868 383.185C646.362 383.566 646.959 383.757 647.658 383.757C648.71 383.757 649.484 383.375 649.978 382.613C650.472 381.85 650.719 380.904 650.719 379.774V379.435C650.719 378.305 650.472 377.362 649.978 376.606C649.484 375.851 648.71 375.473 647.658 375.473C646.959 375.473 646.362 375.667 645.868 376.056C645.373 376.437 645.017 376.871 644.798 377.359V381.861ZM654.332 381.871C654.332 380.777 654.762 379.922 655.624 379.308C656.492 378.686 657.605 378.375 658.961 378.375H661.45V377.57C661.45 376.9 661.277 376.363 660.931 375.96C660.585 375.551 659.992 375.346 659.151 375.346C658.318 375.346 657.714 375.515 657.34 375.854C656.966 376.193 656.778 376.603 656.778 377.083V377.168H654.967V377.051C654.967 376.197 655.345 375.452 656.101 374.816C656.863 374.181 657.898 373.863 659.204 373.863C660.497 373.863 661.499 374.17 662.213 374.784C662.926 375.399 663.282 376.328 663.282 377.57V382.517C663.282 382.976 663.314 383.411 663.378 383.82C663.448 384.223 663.547 384.579 663.674 384.89V385.06H661.916C661.817 384.883 661.725 384.654 661.641 384.371C661.563 384.089 661.513 383.806 661.492 383.524C661.238 383.976 660.821 384.378 660.242 384.731C659.67 385.084 658.932 385.261 658.028 385.261C656.983 385.261 656.104 384.971 655.391 384.392C654.685 383.806 654.332 382.966 654.332 381.871ZM656.153 381.776C656.153 382.411 656.337 382.906 656.704 383.259C657.079 383.612 657.647 383.788 658.41 383.788C659.18 383.788 659.879 383.524 660.507 382.994C661.136 382.457 661.45 381.885 661.45 381.278V379.7H659.172C658.177 379.7 657.425 379.887 656.916 380.261C656.408 380.635 656.153 381.14 656.153 381.776ZM667.551 379.615V379.954C667.551 381.055 667.82 381.981 668.356 382.729C668.9 383.478 669.705 383.852 670.772 383.852C671.838 383.852 672.643 383.478 673.187 382.729C673.731 381.981 674.002 381.055 674.002 379.954V379.615C674.002 378.513 673.731 377.592 673.187 376.85C672.643 376.102 671.838 375.727 670.772 375.727C669.705 375.727 668.9 376.102 668.356 376.85C667.82 377.592 667.551 378.513 667.551 379.615ZM671.217 374.223C672.643 374.223 673.773 374.735 674.606 375.759C675.447 376.783 675.867 378.068 675.867 379.615V379.954C675.867 381.55 675.404 382.849 674.479 383.852C673.554 384.855 672.318 385.356 670.772 385.356C669.176 385.356 667.926 384.858 667.022 383.863C666.125 382.86 665.676 381.179 665.676 378.82V378.45C665.676 375.907 666.086 373.93 666.905 372.518C667.731 371.105 669.289 370.23 671.577 369.891C672.735 369.721 673.413 369.566 673.611 369.425C673.808 369.283 673.925 369.121 673.96 368.937H675.56C675.489 369.65 675.199 370.215 674.691 370.632C674.19 371.042 673.222 371.345 671.789 371.543C670.016 371.776 668.823 372.334 668.208 373.217C667.594 374.092 667.223 375.258 667.096 376.712H667.212C667.566 375.943 668.081 375.335 668.759 374.89C669.444 374.446 670.263 374.223 671.217 374.223ZM677.562 379.784V379.445C677.562 377.8 678.024 376.458 678.949 375.42C679.874 374.382 681.11 373.863 682.657 373.863C684.203 373.863 685.439 374.382 686.364 375.42C687.289 376.458 687.752 377.8 687.752 379.445V379.784C687.752 381.43 687.289 382.772 686.364 383.81C685.439 384.841 684.203 385.356 682.657 385.356C681.11 385.356 679.874 384.841 678.949 383.81C678.024 382.772 677.562 381.43 677.562 379.784ZM679.426 379.445V379.784C679.426 380.928 679.698 381.892 680.242 382.676C680.785 383.46 681.59 383.852 682.657 383.852C683.723 383.852 684.525 383.46 685.061 382.676C685.605 381.892 685.877 380.928 685.877 379.784V379.445C685.877 378.294 685.605 377.33 685.061 376.554C684.525 375.77 683.723 375.378 682.657 375.378C681.59 375.378 680.785 375.77 680.242 376.554C679.698 377.33 679.426 378.294 679.426 379.445ZM688.917 375.611V374.17H697.635V375.611H694.192V385.06H692.36V375.611H688.917ZM701.3 374.17V377.92H703.853C705.195 377.92 706.229 378.241 706.957 378.884C707.684 379.52 708.048 380.381 708.048 381.469C708.048 382.556 707.684 383.428 706.957 384.085C706.229 384.735 705.195 385.06 703.853 385.06H699.478V374.17H701.3ZM703.853 379.371H701.3V383.608H703.853C704.722 383.608 705.333 383.407 705.686 383.005C706.039 382.602 706.215 382.09 706.215 381.469C706.215 380.854 706.039 380.353 705.686 379.964C705.333 379.569 704.722 379.371 703.853 379.371ZM709.541 385.06V374.17H711.374V385.06H709.541Z" fill="black"/>
<path d="M561.898 346.385V362.323C561.898 363.876 563.305 365.051 564.834 364.774L578.381 362.322C580.362 361.964 581.122 359.525 579.695 358.105L566.148 344.619C564.577 343.055 561.898 344.168 561.898 346.385Z" fill="#B5F602"/>
<path d="M257.415 540.624V525.201H262.33C263.976 525.201 265.236 525.628 266.112 526.483C266.988 527.33 267.425 528.449 267.425 529.84C267.425 531.239 266.988 532.369 266.112 533.23C265.236 534.092 263.976 534.523 262.33 534.523H259.301V540.624H257.415ZM259.301 532.965H262.33C263.517 532.965 264.346 532.662 264.82 532.054C265.3 531.447 265.54 530.713 265.54 529.851C265.54 528.982 265.3 528.252 264.82 527.658C264.346 527.065 263.517 526.769 262.33 526.769H259.301V532.965ZM268.855 537.436C268.855 536.341 269.286 535.486 270.148 534.872C271.016 534.251 272.129 533.94 273.484 533.94H275.974V533.135C275.974 532.464 275.801 531.927 275.455 531.525C275.109 531.115 274.516 530.91 273.675 530.91C272.842 530.91 272.238 531.08 271.864 531.419C271.489 531.758 271.302 532.167 271.302 532.648V532.732H269.491V532.616C269.491 531.761 269.869 531.016 270.624 530.381C271.387 529.745 272.422 529.427 273.728 529.427C275.02 529.427 276.023 529.735 276.736 530.349C277.45 530.963 277.806 531.892 277.806 533.135V538.082C277.806 538.541 277.838 538.975 277.902 539.385C277.972 539.787 278.071 540.144 278.198 540.455V540.624H276.44C276.341 540.447 276.249 540.218 276.164 539.935C276.087 539.653 276.037 539.371 276.016 539.088C275.762 539.54 275.345 539.943 274.766 540.296C274.194 540.649 273.456 540.825 272.552 540.825C271.507 540.825 270.628 540.536 269.915 539.957C269.208 539.371 268.855 538.53 268.855 537.436ZM270.677 537.34C270.677 537.976 270.861 538.47 271.228 538.823C271.602 539.176 272.171 539.353 272.934 539.353C273.703 539.353 274.403 539.088 275.031 538.558C275.66 538.022 275.974 537.45 275.974 536.842V535.264H273.696C272.701 535.264 271.949 535.451 271.44 535.825C270.932 536.2 270.677 536.705 270.677 537.34ZM282.075 535.179V535.518C282.075 536.62 282.344 537.545 282.88 538.294C283.424 539.042 284.229 539.416 285.296 539.416C286.362 539.416 287.167 539.042 287.711 538.294C288.254 537.545 288.526 536.62 288.526 535.518V535.179C288.526 534.078 288.254 533.156 287.711 532.415C287.167 531.666 286.362 531.292 285.296 531.292C284.229 531.292 283.424 531.666 282.88 532.415C282.344 533.156 282.075 534.078 282.075 535.179ZM285.74 529.788C287.167 529.788 288.297 530.3 289.13 531.323C289.97 532.347 290.391 533.633 290.391 535.179V535.518C290.391 537.114 289.928 538.414 289.003 539.416C288.078 540.419 286.842 540.921 285.296 540.921C283.7 540.921 282.45 540.423 281.546 539.427C280.649 538.424 280.2 536.744 280.2 534.385V534.014C280.2 531.472 280.61 529.494 281.429 528.082C282.255 526.67 283.813 525.794 286.101 525.455C287.259 525.286 287.937 525.13 288.134 524.989C288.332 524.848 288.449 524.685 288.484 524.502H290.083C290.013 525.215 289.723 525.78 289.215 526.197C288.713 526.606 287.746 526.91 286.312 527.108C284.54 527.341 283.346 527.898 282.732 528.781C282.118 529.657 281.747 530.822 281.62 532.277H281.736C282.089 531.507 282.605 530.9 283.283 530.455C283.968 530.01 284.787 529.788 285.74 529.788ZM292.086 535.349V535.01C292.086 533.364 292.548 532.023 293.473 530.985C294.398 529.946 295.634 529.427 297.181 529.427C298.727 529.427 299.963 529.946 300.888 530.985C301.813 532.023 302.276 533.364 302.276 535.01V535.349C302.276 536.994 301.813 538.336 300.888 539.374C299.963 540.405 298.727 540.921 297.181 540.921C295.634 540.921 294.398 540.405 293.473 539.374C292.548 538.336 292.086 536.994 292.086 535.349ZM293.95 535.01V535.349C293.95 536.493 294.222 537.457 294.766 538.241C295.309 539.025 296.114 539.416 297.181 539.416C298.247 539.416 299.049 539.025 299.585 538.241C300.129 537.457 300.401 536.493 300.401 535.349V535.01C300.401 533.859 300.129 532.895 299.585 532.118C299.049 531.334 298.247 530.942 297.181 530.942C296.114 530.942 295.309 531.334 294.766 532.118C294.222 532.895 293.95 533.859 293.95 535.01ZM303.441 531.175V529.735H312.159V531.175H308.716V540.624H306.884V531.175H303.441ZM315.824 529.735V533.484H318.377C319.719 533.484 320.753 533.806 321.481 534.448C322.208 535.084 322.572 535.946 322.572 537.033C322.572 538.121 322.208 538.993 321.481 539.649C320.753 540.299 319.719 540.624 318.377 540.624H314.002V529.735H315.824ZM318.377 534.936H315.824V539.173H318.377C319.246 539.173 319.856 538.972 320.21 538.569C320.563 538.166 320.739 537.654 320.739 537.033C320.739 536.419 320.563 535.917 320.21 535.529C319.856 535.133 319.246 534.936 318.377 534.936ZM324.065 540.624V529.735H325.898V540.624H324.065ZM333.959 529.735H342.465V540.624H340.633V531.175H335.781V540.624H333.959V529.735ZM344.817 535.349V535.01C344.817 533.364 345.279 532.023 346.204 530.985C347.13 529.946 348.365 529.427 349.912 529.427C351.459 529.427 352.694 529.946 353.619 530.985C354.545 532.023 355.007 533.364 355.007 535.01V535.349C355.007 536.994 354.545 538.336 353.619 539.374C352.694 540.405 351.459 540.921 349.912 540.921C348.365 540.921 347.13 540.405 346.204 539.374C345.279 538.336 344.817 536.994 344.817 535.349ZM346.681 535.01V535.349C346.681 536.493 346.953 537.457 347.497 538.241C348.041 539.025 348.846 539.416 349.912 539.416C350.978 539.416 351.78 539.025 352.317 538.241C352.86 537.457 353.132 536.493 353.132 535.349V535.01C353.132 533.859 352.86 532.895 352.317 532.118C351.78 531.334 350.978 530.942 349.912 530.942C348.846 530.942 348.041 531.334 347.497 532.118C346.953 532.895 346.681 533.859 346.681 535.01ZM361.723 535.349V535.01C361.723 533.35 362.164 532.005 363.047 530.974C363.937 529.943 365.155 529.427 366.702 529.427C368.142 529.427 369.233 529.816 369.975 530.593C370.723 531.362 371.098 532.245 371.098 533.241V533.315H369.318V533.241C369.318 532.612 369.106 532.072 368.682 531.62C368.266 531.168 367.606 530.942 366.702 530.942C365.649 530.942 364.866 531.327 364.35 532.097C363.842 532.867 363.587 533.838 363.587 535.01V535.349C363.587 536.5 363.842 537.467 364.35 538.251C364.866 539.028 365.649 539.416 366.702 539.416C367.606 539.416 368.266 539.19 368.682 538.738C369.106 538.279 369.318 537.732 369.318 537.097V537.022H371.098V537.097C371.098 538.092 370.723 538.979 369.975 539.755C369.226 540.532 368.135 540.921 366.702 540.921C365.155 540.921 363.937 540.405 363.047 539.374C362.164 538.343 361.723 537.001 361.723 535.349ZM372.665 537.436C372.665 536.341 373.096 535.486 373.958 534.872C374.826 534.251 375.939 533.94 377.294 533.94H379.784V533.135C379.784 532.464 379.611 531.927 379.265 531.525C378.919 531.115 378.326 530.91 377.485 530.91C376.652 530.91 376.048 531.08 375.674 531.419C375.299 531.758 375.112 532.167 375.112 532.648V532.732H373.301V532.616C373.301 531.761 373.679 531.016 374.434 530.381C375.197 529.745 376.232 529.427 377.538 529.427C378.83 529.427 379.833 529.735 380.546 530.349C381.26 530.963 381.616 531.892 381.616 533.135V538.082C381.616 538.541 381.648 538.975 381.712 539.385C381.782 539.787 381.881 540.144 382.008 540.455V540.624H380.25C380.151 540.447 380.059 540.218 379.974 539.935C379.897 539.653 379.847 539.371 379.826 539.088C379.572 539.54 379.155 539.943 378.576 540.296C378.004 540.649 377.266 540.825 376.362 540.825C375.317 540.825 374.438 540.536 373.725 539.957C373.018 539.371 372.665 538.53 372.665 537.436ZM374.487 537.34C374.487 537.976 374.671 538.47 375.038 538.823C375.412 539.176 375.981 539.353 376.744 539.353C377.513 539.353 378.213 539.088 378.841 538.558C379.47 538.022 379.784 537.45 379.784 536.842V535.264H377.506C376.511 535.264 375.759 535.451 375.25 535.825C374.742 536.2 374.487 536.705 374.487 537.34ZM384.593 540.624V529.735H386.394V536.62C386.394 536.846 386.39 537.082 386.383 537.33C386.383 537.57 386.376 537.803 386.362 538.029H386.457C386.563 537.838 386.673 537.647 386.786 537.457C386.906 537.259 387.033 537.047 387.167 536.821L391.542 529.735H393.396V540.624H391.595V533.739C391.595 533.52 391.598 533.283 391.605 533.029C391.62 532.768 391.634 532.524 391.648 532.298H391.51C391.418 532.489 391.312 532.69 391.192 532.902C391.079 533.107 390.952 533.322 390.811 533.548L386.447 540.624H384.593ZM389.01 526.557C389.49 526.557 389.896 526.419 390.228 526.144C390.567 525.861 390.843 525.416 391.055 524.809L392.474 525.646C392.149 526.458 391.683 527.058 391.076 527.447C390.476 527.835 389.787 528.029 389.01 528.029C388.219 528.029 387.527 527.842 386.934 527.468C386.341 527.086 385.875 526.479 385.536 525.646L386.966 524.777C387.185 525.434 387.46 525.896 387.792 526.165C388.124 526.426 388.53 526.557 389.01 526.557ZM395.239 531.175V529.735H403.957V531.175H400.514V540.624H398.681V531.175H395.239ZM404.772 545.031V543.474C404.956 543.53 405.157 543.576 405.376 543.611C405.595 543.647 405.81 543.664 406.022 543.664C406.51 543.664 406.933 543.463 407.293 543.06C407.661 542.658 408.049 541.839 408.459 540.603V540.592L404.37 529.735H406.16L408.808 537.044C408.907 537.319 408.992 537.577 409.062 537.817C409.14 538.05 409.207 538.269 409.264 538.474H409.327C409.384 538.269 409.451 538.05 409.529 537.817C409.606 537.577 409.694 537.316 409.793 537.033L412.293 529.735H414.031L409.55 542.107C409.19 543.11 408.734 543.883 408.183 544.427C407.632 544.971 406.944 545.243 406.118 545.243C405.842 545.243 405.599 545.225 405.387 545.19C405.175 545.154 404.97 545.101 404.772 545.031Z" fill="black"/>
<line x1="218.67" y1="485.528" x2="218.67" y2="242.59" stroke="#BDBDBD" stroke-width="1.24584" stroke-linecap="round" stroke-dasharray="7.48 7.48"/>
<path d="M782.246 490.64V475.217H787.14C788.644 475.217 789.824 475.542 790.678 476.191C791.54 476.841 791.97 477.865 791.97 479.263C791.97 480.125 791.762 480.828 791.345 481.371C790.929 481.908 790.41 482.286 789.788 482.505V482.547C790.551 482.766 791.172 483.186 791.653 483.808C792.14 484.429 792.384 485.238 792.384 486.234C792.384 487.632 791.935 488.716 791.038 489.486C790.141 490.255 788.948 490.64 787.458 490.64H782.246ZM784.1 489.072H787.458C788.51 489.072 789.283 488.818 789.778 488.31C790.272 487.794 790.519 487.102 790.519 486.234C790.519 485.358 790.272 484.666 789.778 484.157C789.283 483.642 788.51 483.384 787.458 483.384H784.1V489.072ZM784.1 481.837H787.14C788.192 481.837 788.948 481.611 789.407 481.16C789.873 480.708 790.106 480.079 790.106 479.274C790.106 478.469 789.873 477.855 789.407 477.431C788.948 477 788.192 476.785 787.14 476.785H784.1V481.837ZM794.894 495.1V479.751H796.547L796.621 481.191H796.674C796.956 480.732 797.387 480.344 797.966 480.026C798.545 479.701 799.216 479.539 799.979 479.539C801.363 479.539 802.461 480.051 803.273 481.075C804.092 482.099 804.502 483.412 804.502 485.015V485.354C804.502 486.957 804.092 488.274 803.273 489.305C802.461 490.336 801.363 490.852 799.979 490.852C799.216 490.852 798.563 490.714 798.019 490.439C797.475 490.156 797.041 489.789 796.716 489.337V495.1H794.894ZM796.716 487.441C796.935 487.935 797.292 488.377 797.786 488.765C798.28 489.147 798.877 489.337 799.576 489.337C800.628 489.337 801.402 488.956 801.896 488.193C802.39 487.431 802.637 486.484 802.637 485.354V485.015C802.637 483.885 802.39 482.943 801.896 482.187C801.402 481.431 800.628 481.054 799.576 481.054C798.877 481.054 798.28 481.248 797.786 481.636C797.292 482.018 796.935 482.452 796.716 482.939V487.441ZM806.197 485.365V485.026C806.197 483.38 806.642 482.039 807.531 481.001C808.428 479.963 809.611 479.443 811.08 479.443C812.549 479.443 813.675 479.927 814.459 480.895C815.25 481.862 815.645 483.179 815.645 484.846V485.587H807.309V484.115H813.813V483.892C813.813 483.094 813.587 482.406 813.135 481.827C812.69 481.248 812.026 480.958 811.143 480.958C810.112 480.958 809.339 481.347 808.824 482.123C808.315 482.9 808.061 483.868 808.061 485.026V485.365C808.061 486.516 808.329 487.483 808.866 488.267C809.41 489.044 810.24 489.433 811.355 489.433C812.062 489.433 812.665 489.281 813.167 488.977C813.668 488.673 814.074 488.31 814.385 487.886L815.561 488.839C815.229 489.355 814.706 489.835 813.993 490.28C813.28 490.718 812.404 490.937 811.366 490.937C809.699 490.937 808.421 490.421 807.531 489.39C806.642 488.352 806.197 487.01 806.197 485.365ZM817.965 490.64V479.751H820.444L823.664 487.367C823.82 487.748 823.926 488.027 823.982 488.204C824.039 488.373 824.088 488.55 824.13 488.733H824.226C824.261 488.55 824.303 488.373 824.353 488.204C824.409 488.027 824.519 487.755 824.681 487.388L827.901 479.751H830.348V490.64H828.601V483.162C828.601 482.773 828.604 482.484 828.611 482.293C828.625 482.095 828.639 481.912 828.653 481.742H828.569C828.526 481.912 828.477 482.092 828.42 482.282C828.364 482.473 828.254 482.756 828.092 483.13L824.914 490.64H823.336L820.137 483.109C820.003 482.777 819.904 482.508 819.84 482.304C819.777 482.099 819.727 481.912 819.692 481.742H819.597C819.611 481.912 819.621 482.092 819.628 482.282C819.642 482.473 819.65 482.745 819.65 483.098V490.64H817.965ZM834.734 490.64H832.711L836.037 485.948L837.869 486.106L834.734 490.64ZM839.882 490.64V486.615H837.318L837.16 486.509C835.846 486.509 834.833 486.212 834.119 485.619C833.406 485.019 833.05 484.214 833.05 483.204C833.05 482.152 833.406 481.315 834.119 480.693C834.833 480.065 835.846 479.751 837.16 479.751H841.714V490.64H839.882ZM837.16 485.174H839.882V481.191H837.16C836.319 481.191 835.73 481.382 835.391 481.763C835.052 482.145 834.882 482.625 834.882 483.204C834.882 483.783 835.048 484.256 835.38 484.623C835.719 484.991 836.312 485.174 837.16 485.174Z" fill="black"/>
<path d="M2.73905 230.077V214.653H7.63295C9.13713 214.653 10.3165 214.978 11.171 215.628C12.0325 216.278 12.4633 217.302 12.4633 218.7C12.4633 219.561 12.255 220.264 11.8383 220.808C11.4217 221.345 10.9026 221.722 10.2812 221.941V221.984C11.0438 222.203 11.6653 222.623 12.1455 223.244C12.6328 223.866 12.8764 224.674 12.8764 225.67C12.8764 227.068 12.428 228.152 11.5311 228.922C10.6343 229.692 9.4408 230.077 7.95073 230.077H2.73905ZM4.5928 228.509H7.95073C9.00296 228.509 9.77624 228.255 10.2706 227.746C10.7649 227.231 11.0121 226.539 11.0121 225.67C11.0121 224.794 10.7649 224.102 10.2706 223.594C9.77624 223.078 9.00296 222.821 7.95073 222.821H4.5928V228.509ZM4.5928 221.274H7.63295C8.68517 221.274 9.4408 221.048 9.89982 220.596C10.3659 220.144 10.5989 219.516 10.5989 218.711C10.5989 217.905 10.3659 217.291 9.89982 216.867C9.4408 216.437 8.68517 216.221 7.63295 216.221H4.5928V221.274ZM14.7196 224.801V224.462C14.7196 222.817 15.1821 221.475 16.1072 220.437C17.0323 219.399 18.2682 218.88 19.8147 218.88C21.3613 218.88 22.5971 219.399 23.5222 220.437C24.4473 221.475 24.9099 222.817 24.9099 224.462V224.801C24.9099 226.447 24.4473 227.789 23.5222 228.827C22.5971 229.858 21.3613 230.373 19.8147 230.373C18.2682 230.373 17.0323 229.858 16.1072 228.827C15.1821 227.789 14.7196 226.447 14.7196 224.801ZM16.5839 224.462V224.801C16.5839 225.945 16.8558 226.909 17.3996 227.693C17.9433 228.477 18.7484 228.869 19.8147 228.869C20.8811 228.869 21.6826 228.477 22.2193 227.693C22.7631 226.909 23.035 225.945 23.035 224.801V224.462C23.035 223.311 22.7631 222.347 22.2193 221.571C21.6826 220.787 20.8811 220.395 19.8147 220.395C18.7484 220.395 17.9433 220.787 17.3996 221.571C16.8558 222.347 16.5839 223.311 16.5839 224.462ZM31.2021 230.373C29.6414 230.373 28.4832 229.992 27.7276 229.229C26.972 228.459 26.5942 227.573 26.5942 226.57V226.496H28.3738V226.57C28.3738 227.178 28.5892 227.714 29.0199 228.181C29.4578 228.64 30.1851 228.869 31.2021 228.869C32.0565 228.869 32.7239 228.696 33.2041 228.35C33.6914 227.997 33.935 227.51 33.935 226.888C33.935 226.394 33.7655 225.998 33.4266 225.702C33.0876 225.405 32.5473 225.257 31.8058 225.257H29.9309V223.816H31.5092C32.2437 223.816 32.7698 223.672 33.0876 223.382C33.4124 223.085 33.5749 222.683 33.5749 222.174C33.5749 221.602 33.3771 221.165 32.9817 220.861C32.5862 220.55 32.0318 220.395 31.3186 220.395C30.4288 220.395 29.7508 220.607 29.2847 221.03C28.8257 221.454 28.5962 222.001 28.5962 222.672V222.746H26.8166V222.672C26.8166 221.528 27.2085 220.61 27.9924 219.918C28.7834 219.226 29.8921 218.88 31.3186 218.88C32.6533 218.88 33.6702 219.166 34.3693 219.738C35.0684 220.303 35.418 221.073 35.418 222.047C35.418 222.612 35.2309 223.121 34.8566 223.573C34.4823 224.025 33.9809 224.314 33.3524 224.441V224.473C34.101 224.586 34.6906 224.851 35.1214 225.268C35.5522 225.684 35.7676 226.231 35.7676 226.909C35.7676 228.025 35.3333 228.883 34.4647 229.483C33.596 230.077 32.5085 230.373 31.2021 230.373ZM38.3946 230.077V219.187H40.8733L44.0936 226.803C44.2489 227.185 44.3549 227.464 44.4114 227.64C44.4678 227.81 44.5173 227.986 44.5597 228.17H44.655C44.6903 227.986 44.7327 227.81 44.7821 227.64C44.8386 227.464 44.9481 227.192 45.1105 226.825L48.3307 219.187H50.7777V230.077H49.0298V222.598C49.0298 222.21 49.0334 221.92 49.0404 221.729C49.0546 221.532 49.0687 221.348 49.0828 221.179H48.9981C48.9557 221.348 48.9063 221.528 48.8498 221.719C48.7933 221.91 48.6838 222.192 48.5214 222.566L45.3435 230.077H43.7652L40.5661 222.545C40.432 222.213 40.3331 221.945 40.2695 221.74C40.206 221.535 40.1566 221.348 40.1212 221.179H40.0259C40.04 221.348 40.0506 221.528 40.0577 221.719C40.0718 221.91 40.0789 222.181 40.0789 222.535V230.077H38.3946ZM53.1505 224.801V224.462C53.1505 222.817 53.613 221.475 54.5381 220.437C55.4632 219.399 56.6991 218.88 58.2456 218.88C59.7922 218.88 61.028 219.399 61.9531 220.437C62.8782 221.475 63.3408 222.817 63.3408 224.462V224.801C63.3408 226.447 62.8782 227.789 61.9531 228.827C61.028 229.858 59.7922 230.373 58.2456 230.373C56.6991 230.373 55.4632 229.858 54.5381 228.827C53.613 227.789 53.1505 226.447 53.1505 224.801ZM55.0148 224.462V224.801C55.0148 225.945 55.2867 226.909 55.8304 227.693C56.3742 228.477 57.1793 228.869 58.2456 228.869C59.312 228.869 60.1135 228.477 60.6502 227.693C61.194 226.909 61.4658 225.945 61.4658 224.801V224.462C61.4658 223.311 61.194 222.347 60.6502 221.571C60.1135 220.787 59.312 220.395 58.2456 220.395C57.1793 220.395 56.3742 220.787 55.8304 221.571C55.2867 222.347 55.0148 223.311 55.0148 224.462ZM72.26 230.077H70.491V219.187H72.26V230.077ZM76.7408 230.077L73.2345 225.172L74.4315 224.007L78.8381 230.077H76.7408ZM71.3702 223.795H73.1921L76.4018 219.187H78.4144L74.1349 225.246H71.3702V223.795ZM65.9996 230.077H63.9552L68.3724 224.007L69.5058 225.172L65.9996 230.077ZM71.3702 223.795V225.246H68.5948L64.3153 219.187H66.3492L69.5588 223.795H71.3702ZM80.1305 219.187H81.9524V223.795H86.9099V219.187H88.7425V230.077H86.9099V225.246H81.9524V230.077H80.1305V219.187ZM93.5834 219.187V222.937H96.1363C97.478 222.937 98.5126 223.258 99.24 223.901C99.9674 224.537 100.331 225.398 100.331 226.486C100.331 227.573 99.9674 228.445 99.24 229.102C98.5126 229.752 97.478 230.077 96.1363 230.077H91.7614V219.187H93.5834ZM96.1363 224.388H93.5834V228.625H96.1363C97.0049 228.625 97.6157 228.424 97.9688 228.022C98.3219 227.619 98.4985 227.107 98.4985 226.486C98.4985 225.871 98.3219 225.37 97.9688 224.981C97.6157 224.586 97.0049 224.388 96.1363 224.388ZM101.825 230.077V219.187H103.657V230.077H101.825ZM106.697 230.077V219.187H108.498V226.073C108.498 226.299 108.495 226.535 108.488 226.782C108.488 227.022 108.48 227.255 108.466 227.481H108.562C108.668 227.291 108.777 227.1 108.89 226.909C109.01 226.712 109.137 226.5 109.271 226.274L113.646 219.187H115.5V230.077H113.699V223.191C113.699 222.972 113.703 222.736 113.71 222.482C113.724 222.22 113.738 221.977 113.752 221.751H113.614C113.523 221.941 113.417 222.143 113.297 222.354C113.184 222.559 113.057 222.775 112.915 223.001L108.551 230.077H106.697ZM111.115 216.009C111.595 216.009 112.001 215.872 112.333 215.596C112.672 215.314 112.947 214.869 113.159 214.262L114.578 215.098C114.254 215.91 113.788 216.511 113.18 216.899C112.58 217.288 111.891 217.482 111.115 217.482C110.324 217.482 109.632 217.295 109.038 216.92C108.445 216.539 107.979 215.932 107.64 215.098L109.07 214.23C109.289 214.887 109.564 215.349 109.896 215.617C110.228 215.879 110.634 216.009 111.115 216.009ZM69.866 260.916V258.077H61.8896V260.916H60.2265V256.625H71.5185V260.916H69.866ZM64.0293 248.628L63.8281 252.886C63.7857 253.903 63.7186 254.698 63.6268 255.27C63.535 255.842 63.3973 256.354 63.2137 256.806H61.2964C61.5153 256.474 61.6989 256.004 61.8472 255.397C61.9955 254.782 62.0944 253.864 62.1438 252.643L62.398 247.187H69.919V258.077H68.0864V248.628H64.0293ZM72.5778 252.801V252.462C72.5778 250.817 73.0403 249.475 73.9654 248.437C74.8905 247.399 76.1264 246.88 77.6729 246.88C79.2195 246.88 80.4553 247.399 81.3804 248.437C82.3055 249.475 82.7681 250.817 82.7681 252.462V252.801C82.7681 254.447 82.3055 255.789 81.3804 256.827C80.4553 257.858 79.2195 258.373 77.6729 258.373C76.1264 258.373 74.8905 257.858 73.9654 256.827C73.0403 255.789 72.5778 254.447 72.5778 252.801ZM74.4421 252.462V252.801C74.4421 253.945 74.714 254.909 75.2578 255.693C75.8015 256.477 76.6066 256.869 77.6729 256.869C78.7393 256.869 79.5408 256.477 80.0775 255.693C80.6213 254.909 80.8932 253.945 80.8932 252.801V252.462C80.8932 251.311 80.6213 250.347 80.0775 249.571C79.5408 248.787 78.7393 248.395 77.6729 248.395C76.6066 248.395 75.8015 248.787 75.2578 249.571C74.714 250.347 74.4421 251.311 74.4421 252.462ZM83.7956 258.077L87.8738 252.06L88.001 252.039L91.0729 247.187H93.1279L89.2403 253.034L89.1132 253.045L85.84 258.077H83.7956ZM84.0075 247.187H86.0942L89.1556 252.028L89.2615 252.06L93.3398 258.077H91.2424L87.9904 253.066L87.8844 253.034L84.0075 247.187ZM94.3779 252.801V252.462C94.3779 250.817 94.8404 249.475 95.7655 248.437C96.6906 247.399 97.9265 246.88 99.473 246.88C101.02 246.88 102.255 247.399 103.181 248.437C104.106 249.475 104.568 250.817 104.568 252.462V252.801C104.568 254.447 104.106 255.789 103.181 256.827C102.255 257.858 101.02 258.373 99.473 258.373C97.9265 258.373 96.6906 257.858 95.7655 256.827C94.8404 255.789 94.3779 254.447 94.3779 252.801ZM96.2422 252.462V252.801C96.2422 253.945 96.5141 254.909 97.0579 255.693C97.6016 256.477 98.4067 256.869 99.473 256.869C100.539 256.869 101.341 256.477 101.878 255.693C102.421 254.909 102.693 253.945 102.693 252.801V252.462C102.693 251.311 102.421 250.347 101.878 249.571C101.341 248.787 100.539 248.395 99.473 248.395C98.4067 248.395 97.6016 248.787 97.0579 249.571C96.5141 250.347 96.2422 251.311 96.2422 252.462ZM115.161 260.916V258.077H107.185V260.916H105.522V256.625H116.814V260.916H115.161ZM109.324 248.628L109.123 252.886C109.081 253.903 109.014 254.698 108.922 255.27C108.83 255.842 108.692 256.354 108.509 256.806H106.591C106.81 256.474 106.994 256.004 107.142 255.397C107.291 254.782 107.389 253.864 107.439 252.643L107.693 247.187H115.214V258.077H113.381V248.628H109.324Z" fill="black"/>
<path d="M31.7882 440.971V439.403H43.398V440.971H38.5358V454.826H36.6503V440.971H31.7882ZM44.4784 449.551V449.212C44.4784 447.567 44.9233 446.225 45.8131 445.187C46.71 444.149 47.8929 443.63 49.3617 443.63C50.8306 443.63 51.957 444.113 52.7409 445.081C53.5318 446.048 53.9273 447.365 53.9273 449.032V449.773H45.5907V448.301H52.0947V448.079C52.0947 447.281 51.8687 446.592 51.4168 446.013C50.9719 445.434 50.308 445.144 49.4253 445.144C48.3943 445.144 47.621 445.533 47.1055 446.31C46.597 447.086 46.3428 448.054 46.3428 449.212V449.551C46.3428 450.702 46.6111 451.67 47.1478 452.453C47.6916 453.23 48.5214 453.619 49.6372 453.619C50.3434 453.619 50.9471 453.467 51.4485 453.163C51.9499 452.859 52.356 452.496 52.6667 452.072L53.8425 453.025C53.5106 453.541 52.988 454.021 52.2748 454.466C51.5615 454.904 50.6859 455.123 49.6478 455.123C47.9811 455.123 46.7029 454.607 45.8131 453.576C44.9233 452.538 44.4784 451.196 44.4784 449.551ZM63.2172 454.826L58.8953 449.879L60.0288 448.651L65.4629 454.826H63.2172ZM57.1581 448.545H58.9695L62.9206 443.937H65.0604L59.8381 449.996H57.1581V448.545ZM58.0691 443.937V454.826H56.2471V443.937H58.0691ZM65.8125 459.233V457.676C65.9961 457.732 66.1973 457.778 66.4162 457.813C66.6352 457.849 66.8506 457.866 67.0624 457.866C67.5497 457.866 67.9734 457.665 68.3336 457.263C68.7008 456.86 69.0892 456.041 69.4988 454.805V454.794L65.4099 443.937H67.2001L69.8483 451.246C69.9472 451.521 70.0319 451.779 70.1026 452.019C70.1802 452.252 70.2473 452.471 70.3038 452.676H70.3674C70.4239 452.471 70.491 452.252 70.5686 452.019C70.6463 451.779 70.7346 451.518 70.8335 451.235L73.3334 443.937H75.0706L70.5898 456.309C70.2297 457.312 69.7742 458.085 69.2234 458.629C68.6725 459.173 67.984 459.445 67.1577 459.445C66.8823 459.445 66.6387 459.427 66.4268 459.392C66.215 459.356 66.0102 459.303 65.8125 459.233ZM76.5854 454.826V443.937H78.4074V453.375H82.7081V443.937H84.5406V453.375H88.8413V443.937H90.6633V453.375H92.2734V457.665H90.6103V454.826H76.5854ZM94 454.826V443.937H95.8008V450.822C95.8008 451.048 95.7973 451.285 95.7902 451.532C95.7902 451.772 95.7832 452.005 95.7691 452.231H95.8644C95.9703 452.04 96.0798 451.85 96.1928 451.659C96.3128 451.461 96.4399 451.249 96.5741 451.023L100.949 443.937H102.803V454.826H101.002V447.941C101.002 447.722 101.005 447.485 101.013 447.231C101.027 446.97 101.041 446.726 101.055 446.5H100.917C100.825 446.691 100.719 446.892 100.599 447.104C100.486 447.309 100.359 447.524 100.218 447.75L95.8538 454.826H94ZM105.843 454.826V443.937H107.644V450.822C107.644 451.048 107.64 451.285 107.633 451.532C107.633 451.772 107.626 452.005 107.612 452.231H107.707C107.813 452.04 107.923 451.85 108.036 451.659C108.156 451.461 108.283 451.249 108.417 451.023L112.792 443.937H114.646V454.826H112.845V447.941C112.845 447.722 112.848 447.485 112.855 447.231C112.869 446.97 112.884 446.726 112.898 446.5H112.76C112.668 446.691 112.562 446.892 112.442 447.104C112.329 447.309 112.202 447.524 112.061 447.75L107.697 454.826H105.843ZM110.26 440.759C110.74 440.759 111.146 440.621 111.478 440.346C111.817 440.063 112.093 439.618 112.305 439.011L113.724 439.848C113.399 440.66 112.933 441.26 112.326 441.649C111.725 442.037 111.037 442.231 110.26 442.231C109.469 442.231 108.777 442.044 108.184 441.67C107.591 441.289 107.125 440.681 106.786 439.848L108.216 438.979C108.435 439.636 108.71 440.099 109.042 440.367C109.374 440.628 109.78 440.759 110.26 440.759ZM69.0115 485.665V482.826H61.0351V485.665H59.372V481.375H70.664V485.665H69.0115ZM63.1748 473.377L62.9736 477.636C62.9312 478.653 62.8641 479.447 62.7723 480.019C62.6805 480.591 62.5428 481.103 62.3592 481.555H60.4419C60.6608 481.223 60.8444 480.754 60.9927 480.146C61.141 479.532 61.2399 478.614 61.2893 477.392L61.5435 471.937H69.0645V482.826H67.2319V473.377H63.1748ZM71.7233 477.551V477.212C71.7233 475.567 72.1858 474.225 73.1109 473.187C74.036 472.149 75.2719 471.63 76.8184 471.63C78.365 471.63 79.6008 472.149 80.5259 473.187C81.451 474.225 81.9136 475.567 81.9136 477.212V477.551C81.9136 479.196 81.451 480.538 80.5259 481.576C79.6008 482.607 78.365 483.123 76.8184 483.123C75.2719 483.123 74.036 482.607 73.1109 481.576C72.1858 480.538 71.7233 479.196 71.7233 477.551ZM73.5876 477.212V477.551C73.5876 478.695 73.8595 479.659 74.4033 480.443C74.947 481.227 75.7521 481.619 76.8184 481.619C77.8848 481.619 78.6863 481.227 79.223 480.443C79.7668 479.659 80.0387 478.695 80.0387 477.551V477.212C80.0387 476.061 79.7668 475.097 79.223 474.32C78.6863 473.536 77.8848 473.144 76.8184 473.144C75.7521 473.144 74.947 473.536 74.4033 474.32C73.8595 475.097 73.5876 476.061 73.5876 477.212ZM82.9411 482.826L87.0194 476.809L87.1465 476.788L90.2184 471.937H92.2734L88.3858 477.784L88.2587 477.795L84.9855 482.826H82.9411ZM83.153 471.937H85.2398L88.3011 476.778L88.407 476.809L92.4853 482.826H90.3879L87.1359 477.816L87.0299 477.784L83.153 471.937ZM93.5234 477.551V477.212C93.5234 475.567 93.9859 474.225 94.911 473.187C95.8361 472.149 97.072 471.63 98.6185 471.63C100.165 471.63 101.401 472.149 102.326 473.187C103.251 474.225 103.714 475.567 103.714 477.212V477.551C103.714 479.196 103.251 480.538 102.326 481.576C101.401 482.607 100.165 483.123 98.6185 483.123C97.072 483.123 95.8361 482.607 94.911 481.576C93.9859 480.538 93.5234 479.196 93.5234 477.551ZM95.3877 477.212V477.551C95.3877 478.695 95.6596 479.659 96.2034 480.443C96.7471 481.227 97.5522 481.619 98.6185 481.619C99.6849 481.619 100.486 481.227 101.023 480.443C101.567 479.659 101.839 478.695 101.839 477.551V477.212C101.839 476.061 101.567 475.097 101.023 474.32C100.486 473.536 99.6849 473.144 98.6185 473.144C97.5522 473.144 96.7471 473.536 96.2034 474.32C95.6596 475.097 95.3877 476.061 95.3877 477.212ZM114.307 485.665V482.826H106.33V485.665H104.667V481.375H115.959V485.665H114.307ZM108.47 473.377L108.269 477.636C108.226 478.653 108.159 479.447 108.067 480.019C107.976 480.591 107.838 481.103 107.654 481.555H105.737C105.956 481.223 106.139 480.754 106.288 480.146C106.436 479.532 106.535 478.614 106.584 477.392L106.839 471.937H114.36V482.826H112.527V473.377H108.47Z" fill="black"/>
<circle cx="218.67" cy="415.763" r="8.09796" fill="#2A2A2A"/>
<path d="M135.822 8.37256L127.162 23.3726H144.483L135.822 8.37256ZM760.181 484.283L745.181 475.623V492.944L760.181 484.283ZM134.322 21.8726V449.4H137.322V21.8726H134.322ZM170.706 485.783H746.681V482.783H170.706V485.783ZM134.322 449.4C134.322 469.494 150.612 485.783 170.706 485.783V482.783C152.269 482.783 137.322 467.837 137.322 449.4H134.322Z" fill="#E2E2E2"/>
<rect x="294.044" y="351.602" width="156.9" height="37.9667" rx="18.9834" fill="#E2E2E2"/>
<path d="M315.829 376.261C317.029 376.261 317.912 375.982 318.477 375.424C319.042 374.859 319.324 374.111 319.324 373.178C319.324 372.303 319.07 371.611 318.562 371.102C318.06 370.587 317.266 370.329 316.178 370.329H313.858V368.782H315.914C316.973 368.782 317.735 368.549 318.202 368.083C318.675 367.617 318.911 366.967 318.911 366.134C318.911 365.301 318.657 364.651 318.149 364.185C317.647 363.719 316.839 363.486 315.723 363.486C314.614 363.486 313.756 363.754 313.149 364.291C312.541 364.828 312.238 365.654 312.238 366.77V366.929H310.352V366.791C310.352 365.364 310.804 364.189 311.708 363.263C312.612 362.331 313.947 361.865 315.712 361.865C317.308 361.865 318.551 362.222 319.441 362.935C320.331 363.641 320.776 364.711 320.776 366.145C320.776 367.02 320.56 367.737 320.129 368.295C319.706 368.846 319.176 369.234 318.541 369.46V369.503C319.317 369.722 319.953 370.142 320.447 370.763C320.942 371.378 321.189 372.183 321.189 373.178C321.189 374.661 320.698 375.816 319.716 376.642C318.735 377.468 317.439 377.882 315.829 377.882C314.092 377.882 312.711 377.468 311.687 376.642C310.663 375.809 310.151 374.527 310.151 372.797V372.638H312.037V372.776C312.037 373.99 312.351 374.877 312.979 375.435C313.608 375.985 314.558 376.261 315.829 376.261ZM323.085 374.397C323.085 373.302 323.516 372.447 324.377 371.833C325.246 371.212 326.358 370.901 327.714 370.901H330.203V370.096C330.203 369.425 330.03 368.888 329.684 368.486C329.338 368.076 328.745 367.871 327.905 367.871C327.071 367.871 326.468 368.041 326.093 368.38C325.719 368.719 325.532 369.128 325.532 369.609V369.693H323.72V369.577C323.72 368.722 324.098 367.977 324.854 367.342C325.617 366.706 326.651 366.388 327.958 366.388C329.25 366.388 330.253 366.696 330.966 367.31C331.679 367.924 332.036 368.853 332.036 370.096V375.043C332.036 375.502 332.068 375.936 332.131 376.346C332.202 376.748 332.301 377.105 332.428 377.415V377.585H330.669C330.57 377.408 330.479 377.179 330.394 376.896C330.316 376.614 330.267 376.331 330.246 376.049C329.991 376.501 329.575 376.903 328.996 377.257C328.424 377.61 327.686 377.786 326.782 377.786C325.737 377.786 324.857 377.497 324.144 376.918C323.438 376.331 323.085 375.491 323.085 374.397ZM324.907 374.301C324.907 374.937 325.09 375.431 325.458 375.784C325.832 376.137 326.4 376.314 327.163 376.314C327.933 376.314 328.632 376.049 329.261 375.519C329.889 374.983 330.203 374.411 330.203 373.803V372.225H327.926C326.93 372.225 326.178 372.412 325.67 372.786C325.161 373.161 324.907 373.666 324.907 374.301ZM335.012 366.696H343.518V377.585H341.686V368.136H336.834V377.585H335.012V366.696ZM345.51 381.992V380.434C345.694 380.491 345.895 380.537 346.114 380.572C346.333 380.607 346.548 380.625 346.76 380.625C347.247 380.625 347.671 380.424 348.031 380.021C348.398 379.619 348.787 378.8 349.196 377.564V377.553L345.107 366.696H346.898L349.546 374.005C349.645 374.28 349.729 374.538 349.8 374.778C349.878 375.011 349.945 375.23 350.001 375.435H350.065C350.121 375.23 350.188 375.011 350.266 374.778C350.344 374.538 350.432 374.276 350.531 373.994L353.031 366.696H354.768L350.287 379.068C349.927 380.071 349.472 380.844 348.921 381.388C348.37 381.932 347.681 382.203 346.855 382.203C346.58 382.203 346.336 382.186 346.124 382.15C345.912 382.115 345.708 382.062 345.51 381.992ZM355.616 372.31V371.971C355.616 370.311 356.057 368.966 356.94 367.935C357.829 366.904 359.048 366.388 360.594 366.388C362.035 366.388 363.126 366.777 363.867 367.554C364.616 368.323 364.99 369.206 364.99 370.202V370.276H363.211V370.202C363.211 369.573 362.999 369.033 362.575 368.581C362.158 368.129 361.498 367.903 360.594 367.903C359.542 367.903 358.758 368.288 358.243 369.058C357.734 369.827 357.48 370.798 357.48 371.971V372.31C357.48 373.461 357.734 374.428 358.243 375.212C358.758 375.989 359.542 376.377 360.594 376.377C361.498 376.377 362.158 376.151 362.575 375.699C362.999 375.24 363.211 374.693 363.211 374.058V373.983H364.99V374.058C364.99 375.053 364.616 375.94 363.867 376.716C363.119 377.493 362.028 377.882 360.594 377.882C359.048 377.882 357.829 377.366 356.94 376.335C356.057 375.304 355.616 373.962 355.616 372.31ZM374.142 377.585L369.821 372.638L370.954 371.409L376.388 377.585H374.142ZM368.083 371.303H369.895L373.846 366.696H375.986L370.763 372.755H368.083V371.303ZM368.994 366.696V377.585H367.172V366.696H368.994ZM382.119 372.31V371.971C382.119 370.311 382.56 368.966 383.443 367.935C384.333 366.904 385.551 366.388 387.098 366.388C388.538 366.388 389.629 366.777 390.371 367.554C391.119 368.323 391.494 369.206 391.494 370.202V370.276H389.714V370.202C389.714 369.573 389.502 369.033 389.078 368.581C388.662 368.129 388.001 367.903 387.098 367.903C386.045 367.903 385.261 368.288 384.746 369.058C384.237 369.827 383.983 370.798 383.983 371.971V372.31C383.983 373.461 384.237 374.428 384.746 375.212C385.261 375.989 386.045 376.377 387.098 376.377C388.001 376.377 388.662 376.151 389.078 375.699C389.502 375.24 389.714 374.693 389.714 374.058V373.983H391.494V374.058C391.494 375.053 391.119 375.94 390.371 376.716C389.622 377.493 388.531 377.882 387.098 377.882C385.551 377.882 384.333 377.366 383.443 376.335C382.56 375.304 382.119 373.962 382.119 372.31ZM393.061 374.397C393.061 373.302 393.492 372.447 394.354 371.833C395.222 371.212 396.334 370.901 397.69 370.901H400.18V370.096C400.18 369.425 400.007 368.888 399.661 368.486C399.315 368.076 398.721 367.871 397.881 367.871C397.048 367.871 396.444 368.041 396.07 368.38C395.695 368.719 395.508 369.128 395.508 369.609V369.693H393.697V369.577C393.697 368.722 394.075 367.977 394.83 367.342C395.593 366.706 396.628 366.388 397.934 366.388C399.226 366.388 400.229 366.696 400.942 367.31C401.656 367.924 402.012 368.853 402.012 370.096V375.043C402.012 375.502 402.044 375.936 402.108 376.346C402.178 376.748 402.277 377.105 402.404 377.415V377.585H400.646C400.547 377.408 400.455 377.179 400.37 376.896C400.293 376.614 400.243 376.331 400.222 376.049C399.968 376.501 399.551 376.903 398.972 377.257C398.4 377.61 397.662 377.786 396.758 377.786C395.713 377.786 394.834 377.497 394.121 376.918C393.414 376.331 393.061 375.491 393.061 374.397ZM394.883 374.301C394.883 374.937 395.067 375.431 395.434 375.784C395.808 376.137 396.377 376.314 397.14 376.314C397.909 376.314 398.608 376.049 399.237 375.519C399.865 374.983 400.18 374.411 400.18 373.803V372.225H397.902C396.906 372.225 396.154 372.412 395.646 372.786C395.137 373.161 394.883 373.666 394.883 374.301ZM404.989 377.585V366.696H406.79V373.581C406.79 373.807 406.786 374.043 406.779 374.291C406.779 374.531 406.772 374.764 406.758 374.99H406.853C406.959 374.799 407.069 374.608 407.182 374.418C407.302 374.22 407.429 374.008 407.563 373.782L411.938 366.696H413.792V377.585H411.991V370.7C411.991 370.481 411.994 370.244 412.001 369.99C412.015 369.729 412.03 369.485 412.044 369.259H411.906C411.814 369.45 411.708 369.651 411.588 369.863C411.475 370.068 411.348 370.283 411.207 370.509L406.843 377.585H404.989ZM409.406 363.518C409.886 363.518 410.292 363.38 410.624 363.105C410.963 362.822 411.239 362.377 411.45 361.77L412.87 362.607C412.545 363.419 412.079 364.019 411.472 364.407C410.871 364.796 410.183 364.99 409.406 364.99C408.615 364.99 407.923 364.803 407.33 364.429C406.737 364.047 406.271 363.44 405.932 362.607L407.362 361.738C407.581 362.395 407.856 362.857 408.188 363.126C408.52 363.387 408.926 363.518 409.406 363.518ZM415.635 368.136V366.696H424.353V368.136H420.91V377.585H419.077V368.136H415.635ZM425.581 374.397C425.581 373.302 426.012 372.447 426.874 371.833C427.742 371.212 428.855 370.901 430.21 370.901H432.7V370.096C432.7 369.425 432.527 368.888 432.181 368.486C431.835 368.076 431.241 367.871 430.401 367.871C429.568 367.871 428.964 368.041 428.59 368.38C428.215 368.719 428.028 369.128 428.028 369.609V369.693H426.217V369.577C426.217 368.722 426.595 367.977 427.35 367.342C428.113 366.706 429.148 366.388 430.454 366.388C431.746 366.388 432.749 366.696 433.462 367.31C434.176 367.924 434.532 368.853 434.532 370.096V375.043C434.532 375.502 434.564 375.936 434.628 376.346C434.698 376.748 434.797 377.105 434.924 377.415V377.585H433.166C433.067 377.408 432.975 377.179 432.89 376.896C432.813 376.614 432.763 376.331 432.742 376.049C432.488 376.501 432.071 376.903 431.492 377.257C430.92 377.61 430.182 377.786 429.278 377.786C428.233 377.786 427.354 377.497 426.641 376.918C425.934 376.331 425.581 375.491 425.581 374.397ZM427.403 374.301C427.403 374.937 427.587 375.431 427.954 375.784C428.328 376.137 428.897 376.314 429.66 376.314C430.429 376.314 431.128 376.049 431.757 375.519C432.386 374.983 432.7 374.411 432.7 373.803V372.225H430.422C429.427 372.225 428.674 372.412 428.166 372.786C427.658 373.161 427.403 373.666 427.403 374.301Z" fill="black"/>
<path d="M443.545 400.423V384.485C443.545 382.931 442.138 381.757 440.609 382.033L427.063 384.485C425.081 384.844 424.322 387.282 425.749 388.703L439.295 402.188C440.867 403.753 443.545 402.64 443.545 400.423Z" fill="#E2E2E2"/>
<rect x="118.38" y="352.848" width="91.9001" height="37.9667" rx="18.9834" fill="#E2E2E2"/>
<path d="M135.766 378.831V363.408H140.66C142.165 363.408 143.344 363.733 144.198 364.382C145.06 365.032 145.491 366.056 145.491 367.454C145.491 368.316 145.282 369.019 144.866 369.562C144.449 370.099 143.93 370.477 143.309 370.696V370.738C144.071 370.957 144.693 371.377 145.173 371.999C145.66 372.62 145.904 373.429 145.904 374.424C145.904 375.823 145.455 376.907 144.559 377.676C143.662 378.446 142.468 378.831 140.978 378.831H135.766ZM137.62 377.263H140.978C142.03 377.263 142.804 377.009 143.298 376.501C143.792 375.985 144.039 375.293 144.039 374.424C144.039 373.549 143.792 372.857 143.298 372.348C142.804 371.833 142.03 371.575 140.978 371.575H137.62V377.263ZM137.62 370.028H140.66C141.713 370.028 142.468 369.802 142.927 369.35C143.393 368.898 143.626 368.27 143.626 367.465C143.626 366.66 143.393 366.045 142.927 365.622C142.468 365.191 141.713 364.976 140.66 364.976H137.62V370.028ZM150.236 367.942V371.691H152.789C154.131 371.691 155.165 372.013 155.893 372.655C156.62 373.291 156.984 374.153 156.984 375.24C156.984 376.328 156.62 377.2 155.893 377.857C155.165 378.506 154.131 378.831 152.789 378.831H148.414V367.942H150.236ZM152.789 373.143H150.236V377.38H152.789C153.658 377.38 154.269 377.179 154.622 376.776C154.975 376.374 155.151 375.862 155.151 375.24C155.151 374.626 154.975 374.124 154.622 373.736C154.269 373.34 153.658 373.143 152.789 373.143ZM158.478 378.831V367.942H160.31V378.831H158.478ZM167.174 369.382V367.942H175.892V369.382H172.45V378.831H170.617V369.382H167.174ZM176.708 383.238V381.681C176.891 381.737 177.093 381.783 177.312 381.818C177.531 381.854 177.746 381.871 177.958 381.871C178.445 381.871 178.869 381.67 179.229 381.267C179.596 380.865 179.985 380.046 180.394 378.81V378.799L176.305 367.942H178.095L180.744 375.251C180.843 375.526 180.927 375.784 180.998 376.024C181.076 376.257 181.143 376.476 181.199 376.681H181.263C181.319 376.476 181.386 376.257 181.464 376.024C181.542 375.784 181.63 375.523 181.729 375.24L184.229 367.942H185.966L181.485 380.314C181.125 381.317 180.67 382.09 180.119 382.634C179.568 383.178 178.879 383.45 178.053 383.45C177.778 383.45 177.534 383.432 177.322 383.397C177.11 383.361 176.906 383.308 176.708 383.238ZM186.284 369.382V367.942H195.002V369.382H191.559V378.831H189.726V369.382H186.284Z" fill="black"/>
<path d="M206.834 401.67V385.732C206.834 384.178 205.427 383.004 203.899 383.28L190.352 385.732C188.37 386.091 187.611 388.529 189.038 389.95L202.584 403.435C204.156 405 206.834 403.887 206.834 401.67Z" fill="#E2E2E2"/>
<path d="M58.252 21.2744V5.85121H63.1459C64.6501 5.85121 65.8294 6.17606 66.6839 6.82576C67.5454 7.47545 67.9762 8.49943 67.9762 9.89769C67.9762 10.7592 67.7679 11.4619 67.3512 12.0057C66.9346 12.5424 66.4155 12.9202 65.7941 13.1391V13.1815C66.5568 13.4004 67.1782 13.8206 67.6584 14.442C68.1457 15.0635 68.3893 15.8721 68.3893 16.8678C68.3893 18.266 67.9409 19.35 67.044 20.1198C66.1472 20.8895 64.9537 21.2744 63.4637 21.2744H58.252ZM60.1057 19.7067H63.4637C64.5159 19.7067 65.2892 19.4524 65.7835 18.944C66.2778 18.4285 66.525 17.7364 66.525 16.8678C66.525 15.9921 66.2778 15.3 65.7835 14.7916C65.2892 14.2761 64.5159 14.0183 63.4637 14.0183H60.1057V19.7067ZM60.1057 12.4717H63.1459C64.1981 12.4717 64.9537 12.2458 65.4127 11.7938C65.8788 11.3418 66.1119 10.7133 66.1119 9.90828C66.1119 9.10322 65.8788 8.48884 65.4127 8.06512C64.9537 7.63434 64.1981 7.41896 63.1459 7.41896H60.1057V12.4717ZM70.2855 18.086C70.2855 16.9914 70.7162 16.1369 71.5778 15.5225C72.4464 14.901 73.5587 14.5903 74.9145 14.5903H77.4039V13.7853C77.4039 13.1144 77.2308 12.5777 76.8848 12.1751C76.5388 11.7656 75.9456 11.5608 75.1052 11.5608C74.2719 11.5608 73.6681 11.7302 73.2938 12.0692C72.9196 12.4082 72.7324 12.8178 72.7324 13.298V13.3827H70.921V13.2662C70.921 12.4117 71.2988 11.6667 72.0545 11.0311C72.8172 10.3955 73.8517 10.0778 75.1582 10.0778C76.4505 10.0778 77.4533 10.385 78.1665 10.9993C78.8798 11.6137 79.2364 12.5424 79.2364 13.7853V18.7321C79.2364 19.1912 79.2682 19.6255 79.3318 20.035C79.4024 20.4376 79.5012 20.7942 79.6284 21.1049V21.2744H77.8699C77.7711 21.0979 77.6793 20.8684 77.5945 20.5859C77.5169 20.3034 77.4674 20.0209 77.4462 19.7384C77.192 20.1904 76.7754 20.5929 76.1963 20.946C75.6243 21.2991 74.8863 21.4757 73.9824 21.4757C72.9372 21.4757 72.058 21.1861 71.3447 20.6071C70.6386 20.0209 70.2855 19.1806 70.2855 18.086ZM72.1074 17.9906C72.1074 18.6262 72.291 19.1205 72.6583 19.4736C73.0325 19.8267 73.601 20.0033 74.3637 20.0033C75.1335 20.0033 75.8326 19.7384 76.4611 19.2088C77.0896 18.6721 77.4039 18.1001 77.4039 17.4928V15.9144H75.1264C74.1307 15.9144 73.3786 16.1016 72.8701 16.4758C72.3617 16.8501 72.1074 17.3551 72.1074 17.9906ZM82.213 21.2744V10.385H84.035V19.8232H88.3357V10.385H90.1683V19.8232H94.469V10.385H96.2909V21.2744H82.213ZM99.3311 21.2744V10.385H101.132V17.2703C101.132 17.4963 101.128 17.7329 101.121 17.98C101.121 18.2201 101.114 18.4532 101.1 18.6792H101.195C101.301 18.4885 101.411 18.2978 101.524 18.1071C101.644 17.9094 101.771 17.6976 101.905 17.4716L106.28 10.385H108.134V21.2744H106.333V14.3891C106.333 14.1701 106.336 13.9336 106.344 13.6793C106.358 13.418 106.372 13.1744 106.386 12.9484H106.248C106.156 13.1391 106.05 13.3404 105.93 13.5522C105.817 13.757 105.69 13.9724 105.549 14.1984L101.185 21.2744H99.3311ZM53.6653 52.1133V49.2744H45.6888V52.1133H44.0258V47.8232H55.3178V52.1133H53.6653ZM47.8286 39.8256L47.6273 44.0839C47.585 45.1008 47.5179 45.8953 47.4261 46.4673C47.3343 47.0393 47.1966 47.5513 47.013 48.0033H45.0956C45.3146 47.6714 45.4982 47.2017 45.6465 46.5944C45.7948 45.98 45.8936 45.062 45.9431 43.8403L46.1973 38.385H53.7182V49.2744H51.8857V39.8256H47.8286ZM56.377 43.9992V43.6602C56.377 42.0148 56.8219 40.673 57.7117 39.6349C58.6086 38.5968 59.7915 38.0778 61.2603 38.0778C62.7292 38.0778 63.8556 38.5615 64.6395 39.529C65.4304 40.4965 65.8259 41.8135 65.8259 43.4801V44.2216H57.4893V42.7492H63.9933V42.5268C63.9933 41.7288 63.7673 41.0402 63.3154 40.4612C62.8705 39.8821 62.2066 39.5925 61.3239 39.5925C60.2929 39.5925 59.5196 39.9809 59.0041 40.7578C58.4956 41.5346 58.2414 42.502 58.2414 43.6602V43.9992C58.2414 45.1503 58.5097 46.1177 59.0464 46.9016C59.5902 47.6784 60.42 48.0668 61.5358 48.0668C62.242 48.0668 62.8457 47.915 63.3471 47.6113C63.8485 47.3077 64.2546 46.944 64.5653 46.5203L65.7411 47.4736C65.4092 47.9891 64.8866 48.4694 64.1734 48.9143C63.4601 49.3521 62.5845 49.571 61.5464 49.571C59.8797 49.571 58.6015 49.0555 57.7117 48.0245C56.8219 46.9864 56.377 45.6446 56.377 43.9992ZM68.1457 38.385H69.9677V42.9928H74.9251V38.385H76.7577V49.2744H74.9251V44.4441H69.9677V49.2744H68.1457V38.385ZM81.5986 38.385V42.1348H84.1515C85.4933 42.1348 86.5278 42.4561 87.2552 43.0988C87.9826 43.7343 88.3463 44.5959 88.3463 45.6834C88.3463 46.771 87.9826 47.6431 87.2552 48.2999C86.5278 48.9496 85.4933 49.2744 84.1515 49.2744H79.7767V38.385H81.5986ZM84.1515 43.586H81.5986V47.8232H84.1515C85.0201 47.8232 85.631 47.6219 85.9841 47.2194C86.3372 46.8169 86.5137 46.3049 86.5137 45.6834C86.5137 45.069 86.3372 44.5677 85.9841 44.1792C85.631 43.7838 85.0201 43.586 84.1515 43.586ZM90.4966 38.385H97.4985V39.8256H92.3186V49.2744H90.4966V38.385ZM99.3311 49.2744V38.385H101.132V45.2703C101.132 45.4963 101.128 45.7329 101.121 45.98C101.121 46.2201 101.114 46.4532 101.1 46.6792H101.195C101.301 46.4885 101.411 46.2978 101.524 46.1071C101.644 45.9094 101.771 45.6976 101.905 45.4716L106.28 38.385H108.134V49.2744H106.333V42.3891C106.333 42.1701 106.336 41.9336 106.344 41.6793C106.358 41.418 106.372 41.1744 106.386 40.9484H106.248C106.156 41.1391 106.05 41.3404 105.93 41.5522C105.817 41.757 105.69 41.9724 105.549 42.1984L101.185 49.2744H99.3311Z" fill="black"/>
<line x1="452.888" y1="481.791" x2="452.888" y2="238.852" stroke="#BDBDBD" stroke-width="1.24584" stroke-linecap="round" stroke-dasharray="7.48 7.48"/>
<circle cx="452.888" cy="415.763" r="8.09796" fill="#B5F602"/>
<path d="M219.161 495.594V496.555C219.161 505.049 226.047 511.935 234.541 511.935H437.841C446.335 511.935 453.221 505.049 453.221 496.555V495.594" stroke="#B5F602" stroke-width="2.88369" stroke-linecap="round"/>
<defs>
<linearGradient id="paint0_linear_332_1556" x1="776.184" y1="227.018" x2="622.323" y2="307.998" gradientUnits="userSpaceOnUse">
<stop stop-color="#B5F602" stop-opacity="0"/>
<stop offset="1" stop-color="#B5F602"/>
</linearGradient>
</defs>
</svg>
