<svg width="351" height="260" viewBox="0 0 351 260" fill="none" xmlns="http://www.w3.org/2000/svg">
<path d="M48.0059 196.775H346.8" stroke="#E2E2E2" stroke-width="1.79996" stroke-linecap="round"/>
<path d="M47.4062 110.699H346.2" stroke="#BDBDBD" stroke-width="0.599988" stroke-linecap="round" stroke-dasharray="3.6 3.6"/>
<g clip-path="url(#clip0_479_1999)">
<path d="M201.004 195.596C204.904 186.296 219.952 160.172 254.403 155.396C284.702 151.197 314.402 153.296 349.801 112.197" stroke="url(#paint0_linear_479_1999)" stroke-width="1.79996"/>
</g>
<rect x="246.002" y="168.896" width="93.3997" height="17.7999" rx="8.89995" fill="#B5F602"/>
<path d="M260.25 177.042V177.889H256.542V177.042H260.25ZM259.74 177.818V177.318C259.74 176.44 259.541 175.767 259.143 175.298C258.749 174.828 258.234 174.594 257.598 174.594C256.972 174.594 256.499 174.757 256.179 175.083C255.863 175.406 255.693 175.781 255.669 176.206V176.267H254.649L254.654 176.206C254.691 175.505 254.96 174.915 255.46 174.435C255.963 173.956 256.676 173.716 257.598 173.716C258.523 173.716 259.283 174.036 259.878 174.675C260.473 175.311 260.771 176.192 260.771 177.318V177.751C260.771 178.952 260.468 179.868 259.863 180.501C259.257 181.134 258.494 181.45 257.572 181.45C256.654 181.45 255.945 181.205 255.445 180.715C254.945 180.222 254.674 179.63 254.634 178.94L254.629 178.899H255.649L255.654 178.94C255.678 179.362 255.843 179.739 256.149 180.073C256.458 180.406 256.933 180.572 257.572 180.572C258.245 180.572 258.774 180.326 259.159 179.833C259.546 179.336 259.74 178.665 259.74 177.818ZM262.806 178.639C262.806 179.204 262.957 179.668 263.26 180.032C263.566 180.396 264.047 180.596 264.704 180.634V176.481C264.047 176.519 263.566 176.719 263.26 177.083C262.957 177.447 262.806 177.911 262.806 178.476V178.639ZM267.591 178.476C267.591 177.911 267.438 177.447 267.132 177.083C266.829 176.719 266.348 176.519 265.688 176.481V180.634C266.348 180.596 266.829 180.396 267.132 180.032C267.438 179.668 267.591 179.204 267.591 178.639V178.476ZM264.704 181.45C263.792 181.416 263.08 181.147 262.566 180.644C262.053 180.141 261.796 179.472 261.796 178.639V178.476C261.796 177.643 262.053 176.974 262.566 176.471C263.08 175.968 263.792 175.699 264.704 175.665V173.461H265.688V175.665C266.6 175.699 267.312 175.968 267.826 176.471C268.343 176.974 268.601 177.643 268.601 178.476V178.639C268.601 179.472 268.343 180.141 267.826 180.644C267.312 181.147 266.6 181.416 265.688 181.45V183.419H264.704V181.45ZM270.479 178.639C270.479 179.204 270.63 179.668 270.933 180.032C271.239 180.396 271.72 180.596 272.376 180.634V176.481C271.72 176.519 271.239 176.719 270.933 177.083C270.63 177.447 270.479 177.911 270.479 178.476V178.639ZM275.264 178.476C275.264 177.911 275.111 177.447 274.805 177.083C274.502 176.719 274.021 176.519 273.361 176.481V180.634C274.021 180.596 274.502 180.396 274.805 180.032C275.111 179.668 275.264 179.204 275.264 178.639V178.476ZM272.376 181.45C271.465 181.416 270.752 181.147 270.239 180.644C269.725 180.141 269.469 179.472 269.469 178.639V178.476C269.469 177.643 269.725 176.974 270.239 176.471C270.752 175.968 271.465 175.699 272.376 175.665V173.461H273.361V175.665C274.272 175.699 274.985 175.968 275.499 176.471C276.015 176.974 276.274 177.643 276.274 178.476V178.639C276.274 179.472 276.015 180.141 275.499 180.644C274.985 181.147 274.272 181.416 273.361 181.45V183.419H272.376V181.45ZM277.141 178.639V178.476C277.141 177.649 277.374 176.974 277.84 176.45C278.306 175.927 278.922 175.665 279.687 175.665C280.455 175.665 281.047 175.91 281.462 176.399C281.877 176.889 282.085 177.551 282.085 178.384V178.792H277.748V178.006H281.085V177.966C281.085 177.544 280.974 177.19 280.753 176.905C280.535 176.619 280.185 176.476 279.702 176.476C279.189 176.476 278.801 176.67 278.539 177.058C278.277 177.442 278.146 177.915 278.146 178.476V178.639C278.146 179.2 278.284 179.675 278.559 180.062C278.835 180.447 279.263 180.639 279.845 180.639C280.205 180.639 280.513 180.564 280.768 180.414C281.027 180.265 281.236 180.086 281.396 179.879L282.034 180.404C281.857 180.663 281.581 180.902 281.207 181.123C280.833 181.341 280.379 181.45 279.845 181.45C278.971 181.45 278.301 181.188 277.835 180.664C277.372 180.141 277.141 179.465 277.141 178.639ZM286.727 181.297L284.579 178.761L285.196 178.119L287.956 181.297H286.727ZM283.661 178.124H284.645L286.574 175.818H287.711L285.089 178.904H283.661V178.124ZM284.151 175.818V181.297H283.166V175.818H284.151ZM288.125 176.604V175.818H292.599V176.604H290.854V181.297H289.869V176.604H288.125ZM296.093 183.419V175.818H296.986L297.032 176.532H297.057C297.2 176.308 297.421 176.116 297.72 175.956C298.02 175.796 298.367 175.716 298.761 175.716C299.475 175.716 300.045 175.976 300.47 176.496C300.899 177.017 301.113 177.677 301.113 178.476V178.639C301.113 179.435 300.899 180.095 300.47 180.618C300.045 181.139 299.475 181.399 298.761 181.399C298.367 181.399 298.028 181.331 297.746 181.195C297.467 181.059 297.244 180.877 297.078 180.649V183.419H296.093ZM297.078 179.649C297.19 179.891 297.372 180.107 297.624 180.297C297.875 180.487 298.181 180.583 298.542 180.583C299.079 180.583 299.474 180.396 299.725 180.022C299.977 179.647 300.103 179.187 300.103 178.639V178.476C300.103 177.928 299.977 177.467 299.725 177.093C299.474 176.719 299.079 176.532 298.542 176.532C298.181 176.532 297.875 176.627 297.624 176.818C297.372 177.008 297.19 177.224 297.078 177.466V179.649ZM302.011 179.685C302.011 179.13 302.237 178.699 302.689 178.389C303.145 178.076 303.721 177.92 304.419 177.92H305.709V177.512C305.709 177.199 305.621 176.945 305.444 176.751C305.267 176.554 304.961 176.456 304.526 176.456C304.094 176.456 303.784 176.541 303.597 176.711C303.41 176.881 303.317 177.078 303.317 177.302V177.328H302.337V177.302C302.337 176.864 302.536 176.481 302.934 176.155C303.335 175.828 303.876 175.665 304.556 175.665C305.233 175.665 305.759 175.82 306.133 176.129C306.507 176.439 306.694 176.899 306.694 177.512V180.073C306.694 180.294 306.711 180.503 306.745 180.7C306.782 180.894 306.833 181.066 306.898 181.215V181.297H305.939C305.891 181.208 305.847 181.095 305.806 180.955C305.765 180.816 305.74 180.676 305.73 180.537C305.597 180.765 305.381 180.965 305.082 181.139C304.786 181.312 304.403 181.399 303.934 181.399C303.4 181.399 302.946 181.253 302.572 180.96C302.198 180.664 302.011 180.239 302.011 179.685ZM302.995 179.634C302.995 179.94 303.089 180.18 303.276 180.353C303.466 180.523 303.759 180.608 304.153 180.608C304.551 180.608 304.91 180.479 305.23 180.22C305.549 179.962 305.709 179.688 305.709 179.399V178.629H304.526C304.022 178.629 303.642 178.719 303.383 178.899C303.125 179.079 302.995 179.324 302.995 179.634ZM308.918 178.608V178.772C308.918 179.292 309.056 179.732 309.331 180.093C309.607 180.453 310.017 180.634 310.561 180.634C311.108 180.634 311.52 180.453 311.795 180.093C312.071 179.732 312.209 179.292 312.209 178.772V178.608C312.209 178.085 312.071 177.644 311.795 177.287C311.52 176.927 311.108 176.746 310.561 176.746C310.017 176.746 309.607 176.927 309.331 177.287C309.056 177.644 308.918 178.085 308.918 178.608ZM310.734 175.93C311.465 175.93 312.062 176.182 312.525 176.685C312.987 177.185 313.219 177.826 313.219 178.608V178.772C313.219 179.561 312.977 180.205 312.494 180.705C312.015 181.202 311.37 181.45 310.561 181.45C309.734 181.45 309.085 181.197 308.612 180.69C308.143 180.18 307.908 179.384 307.908 178.302V178.103C307.908 176.865 308.121 175.901 308.546 175.211C308.974 174.52 309.755 174.089 310.887 173.915C311.503 173.82 311.858 173.742 311.954 173.68C312.049 173.619 312.105 173.546 312.122 173.461H312.974C312.936 173.839 312.79 174.131 312.535 174.338C312.283 174.546 311.77 174.701 310.994 174.803C310.114 174.918 309.518 175.179 309.209 175.583C308.903 175.988 308.723 176.51 308.668 177.149H308.724C308.894 176.762 309.151 176.462 309.495 176.252C309.842 176.037 310.255 175.93 310.734 175.93ZM314.086 178.639V178.476C314.086 177.649 314.327 176.974 314.81 176.45C315.293 175.927 315.936 175.665 316.739 175.665C317.548 175.665 318.193 175.927 318.672 176.45C319.155 176.974 319.397 177.649 319.397 178.476V178.639C319.397 179.465 319.155 180.141 318.672 180.664C318.193 181.188 317.548 181.45 316.739 181.45C315.936 181.45 315.293 181.188 314.81 180.664C314.327 180.141 314.086 179.465 314.086 178.639ZM315.096 178.476V178.639C315.096 179.197 315.234 179.67 315.509 180.057C315.785 180.442 316.195 180.634 316.739 180.634C317.286 180.634 317.698 180.442 317.973 180.057C318.249 179.67 318.386 179.197 318.386 178.639V178.476C318.386 177.918 318.249 177.447 317.973 177.063C317.698 176.675 317.286 176.481 316.739 176.481C316.195 176.481 315.785 176.675 315.509 177.063C315.234 177.447 315.096 177.918 315.096 178.476ZM320.019 176.604V175.818H324.493V176.604H322.748V181.297H321.764V176.604H320.019ZM326.421 175.818V177.711H327.651C328.324 177.711 328.843 177.872 329.207 178.195C329.571 178.515 329.752 178.947 329.752 179.491C329.752 180.035 329.571 180.472 329.207 180.802C328.843 181.132 328.324 181.297 327.651 181.297H325.437V175.818H326.421ZM327.651 178.496H326.421V180.511H327.651C328.059 180.511 328.344 180.414 328.508 180.22C328.671 180.027 328.753 179.783 328.753 179.491C328.753 179.202 328.671 178.964 328.508 178.777C328.344 178.59 328.059 178.496 327.651 178.496ZM330.462 181.297V175.818H331.446V181.297H330.462Z" fill="black"/>
<path d="M253.197 162.784V170.46C253.197 171.208 253.875 171.774 254.611 171.641L261.135 170.46C262.089 170.287 262.455 169.113 261.768 168.429L255.244 161.934C254.487 161.181 253.197 161.717 253.197 162.784Z" fill="#B5F602"/>
<path d="M106.598 256.215V248.787H109.154C110 248.787 110.652 248.995 111.107 249.41C111.563 249.821 111.791 250.37 111.791 251.057C111.791 251.741 111.563 252.294 111.107 252.715C110.652 253.134 110 253.343 109.154 253.343H107.618V256.215H106.598ZM107.618 252.496H109.154C109.752 252.496 110.172 252.356 110.414 252.078C110.655 251.799 110.776 251.459 110.776 251.057C110.776 250.653 110.655 250.314 110.414 250.042C110.172 249.77 109.752 249.634 109.154 249.634H107.618V252.496ZM112.505 254.603C112.505 254.048 112.731 253.617 113.184 253.307C113.639 252.994 114.216 252.838 114.913 252.838H116.204V252.43C116.204 252.117 116.115 251.863 115.938 251.669C115.762 251.472 115.456 251.374 115.02 251.374C114.588 251.374 114.279 251.459 114.092 251.629C113.905 251.799 113.811 251.996 113.811 252.22V252.246H112.832V252.22C112.832 251.782 113.031 251.399 113.429 251.073C113.83 250.746 114.371 250.583 115.051 250.583C115.728 250.583 116.253 250.738 116.627 251.047C117.001 251.357 117.188 251.817 117.188 252.43V254.99C117.188 255.212 117.205 255.421 117.239 255.618C117.277 255.812 117.328 255.984 117.392 256.133V256.215H116.433C116.386 256.126 116.341 256.012 116.301 255.873C116.26 255.734 116.234 255.594 116.224 255.455C116.092 255.683 115.876 255.883 115.576 256.057C115.28 256.23 114.898 256.317 114.428 256.317C113.894 256.317 113.44 256.171 113.066 255.878C112.692 255.582 112.505 255.157 112.505 254.603ZM113.49 254.552C113.49 254.858 113.583 255.098 113.77 255.271C113.961 255.441 114.253 255.526 114.648 255.526C115.046 255.526 115.405 255.397 115.724 255.138C116.044 254.88 116.204 254.606 116.204 254.317V253.547H115.02C114.517 253.547 114.136 253.637 113.877 253.817C113.619 253.997 113.49 254.242 113.49 254.552ZM119.413 253.526V253.69C119.413 254.21 119.55 254.65 119.826 255.011C120.101 255.371 120.511 255.552 121.055 255.552C121.603 255.552 122.014 255.371 122.29 255.011C122.565 254.65 122.703 254.21 122.703 253.69V253.526C122.703 253.003 122.565 252.562 122.29 252.205C122.014 251.845 121.603 251.664 121.055 251.664C120.511 251.664 120.101 251.845 119.826 252.205C119.55 252.562 119.413 253.003 119.413 253.526ZM121.229 250.848C121.96 250.848 122.557 251.1 123.019 251.603C123.482 252.103 123.713 252.744 123.713 253.526V253.69C123.713 254.479 123.472 255.123 122.989 255.623C122.509 256.12 121.865 256.368 121.055 256.368C120.229 256.368 119.579 256.115 119.106 255.608C118.637 255.098 118.402 254.302 118.402 253.22V253.021C118.402 251.783 118.615 250.819 119.04 250.129C119.469 249.438 120.249 249.006 121.382 248.833C121.997 248.738 122.353 248.66 122.448 248.598C122.543 248.537 122.599 248.464 122.616 248.379H123.468C123.431 248.757 123.285 249.049 123.029 249.256C122.778 249.464 122.264 249.619 121.489 249.721C120.608 249.836 120.013 250.097 119.703 250.501C119.397 250.906 119.217 251.428 119.163 252.067H119.219C119.389 251.68 119.646 251.38 119.989 251.17C120.336 250.955 120.749 250.848 121.229 250.848ZM124.58 253.557V253.394C124.58 252.567 124.822 251.892 125.305 251.368C125.788 250.845 126.43 250.583 127.233 250.583C128.043 250.583 128.687 250.845 129.167 251.368C129.649 251.892 129.891 252.567 129.891 253.394V253.557C129.891 254.383 129.649 255.059 129.167 255.582C128.687 256.106 128.043 256.368 127.233 256.368C126.43 256.368 125.788 256.106 125.305 255.582C124.822 255.059 124.58 254.383 124.58 253.557ZM125.59 253.394V253.557C125.59 254.115 125.728 254.587 126.004 254.975C126.279 255.36 126.689 255.552 127.233 255.552C127.781 255.552 128.192 255.36 128.468 254.975C128.743 254.587 128.881 254.115 128.881 253.557V253.394C128.881 252.836 128.743 252.365 128.468 251.981C128.192 251.593 127.781 251.399 127.233 251.399C126.689 251.399 126.279 251.593 126.004 251.981C125.728 252.365 125.59 252.836 125.59 253.394ZM130.513 251.522V250.736H134.987V251.522H133.243V256.215H132.258V251.522H130.513ZM136.916 250.736V252.629H138.145C138.818 252.629 139.337 252.79 139.701 253.113C140.065 253.433 140.247 253.865 140.247 254.409C140.247 254.953 140.065 255.39 139.701 255.72C139.337 256.05 138.818 256.215 138.145 256.215H135.931V250.736H136.916ZM138.145 253.414H136.916V255.429H138.145C138.553 255.429 138.839 255.332 139.002 255.138C139.165 254.945 139.247 254.701 139.247 254.409C139.247 254.12 139.165 253.882 139.002 253.695C138.839 253.508 138.553 253.414 138.145 253.414ZM140.956 256.215V250.736H141.941V256.215H140.956ZM146.001 250.736H150.47V256.215H149.486V251.522H146.986V256.215H146.001V250.736ZM151.659 253.557V253.394C151.659 252.567 151.9 251.892 152.383 251.368C152.866 250.845 153.509 250.583 154.312 250.583C155.121 250.583 155.766 250.845 156.245 251.368C156.728 251.892 156.969 252.567 156.969 253.394V253.557C156.969 254.383 156.728 255.059 156.245 255.582C155.766 256.106 155.121 256.368 154.312 256.368C153.509 256.368 152.866 256.106 152.383 255.582C151.9 255.059 151.659 254.383 151.659 253.557ZM152.669 253.394V253.557C152.669 254.115 152.807 254.587 153.082 254.975C153.358 255.36 153.767 255.552 154.312 255.552C154.859 255.552 155.271 255.36 155.546 254.975C155.822 254.587 155.959 254.115 155.959 253.557V253.394C155.959 252.836 155.822 252.365 155.546 251.981C155.271 251.593 154.859 251.399 154.312 251.399C153.767 251.399 153.358 251.593 153.082 251.981C152.807 252.365 152.669 252.836 152.669 253.394ZM160.393 253.557V253.394C160.393 252.567 160.624 251.892 161.086 251.368C161.549 250.845 162.185 250.583 162.994 250.583C163.746 250.583 164.316 250.78 164.703 251.175C165.094 251.566 165.29 252.004 165.29 252.491V252.516H164.331V252.491C164.331 252.202 164.225 251.948 164.015 251.731C163.804 251.51 163.464 251.399 162.994 251.399C162.447 251.399 162.044 251.593 161.785 251.981C161.53 252.365 161.403 252.836 161.403 253.394V253.557C161.403 254.118 161.53 254.591 161.785 254.975C162.044 255.36 162.447 255.552 162.994 255.552C163.464 255.552 163.804 255.443 164.015 255.225C164.225 255.004 164.331 254.749 164.331 254.46V254.434H165.29V254.46C165.29 254.946 165.094 255.387 164.703 255.781C164.316 256.172 163.746 256.368 162.994 256.368C162.185 256.368 161.549 256.106 161.086 255.582C160.624 255.059 160.393 254.383 160.393 253.557ZM165.999 254.603C165.999 254.048 166.225 253.617 166.678 253.307C167.133 252.994 167.71 252.838 168.407 252.838H169.698V252.43C169.698 252.117 169.609 251.863 169.432 251.669C169.255 251.472 168.949 251.374 168.514 251.374C168.082 251.374 167.773 251.459 167.586 251.629C167.399 251.799 167.305 251.996 167.305 252.22V252.246H166.326V252.22C166.326 251.782 166.524 251.399 166.922 251.073C167.324 250.746 167.864 250.583 168.545 250.583C169.221 250.583 169.747 250.738 170.121 251.047C170.495 251.357 170.682 251.817 170.682 252.43V254.99C170.682 255.212 170.699 255.421 170.733 255.618C170.771 255.812 170.822 255.984 170.886 256.133V256.215H169.927C169.88 256.126 169.835 256.012 169.794 255.873C169.754 255.734 169.728 255.594 169.718 255.455C169.585 255.683 169.369 255.883 169.07 256.057C168.774 256.23 168.392 256.317 167.922 256.317C167.388 256.317 166.934 256.171 166.56 255.878C166.186 255.582 165.999 255.157 165.999 254.603ZM166.984 254.552C166.984 254.858 167.077 255.098 167.264 255.271C167.455 255.441 167.747 255.526 168.142 255.526C168.54 255.526 168.898 255.397 169.218 255.138C169.538 254.88 169.698 254.606 169.698 254.317V253.547H168.514C168.011 253.547 167.63 253.637 167.371 253.817C167.113 253.997 166.984 254.242 166.984 254.552ZM172.182 256.215V250.736H173.161V254.149C173.161 254.251 173.16 254.368 173.156 254.501C173.156 254.63 173.155 254.747 173.151 254.853H173.197C173.245 254.764 173.297 254.669 173.355 254.567C173.417 254.465 173.481 254.36 173.549 254.251L175.773 250.736H176.773V256.215H175.794V252.807C175.794 252.705 175.795 252.588 175.799 252.455C175.802 252.322 175.806 252.203 175.809 252.098H175.753C175.709 252.186 175.656 252.283 175.595 252.389C175.537 252.494 175.474 252.6 175.406 252.705L173.177 256.215H172.182ZM174.483 249.042C174.738 249.042 174.947 248.974 175.11 248.838C175.273 248.699 175.413 248.467 175.529 248.144L176.278 248.583C176.102 249.012 175.857 249.324 175.544 249.522C175.234 249.716 174.881 249.813 174.483 249.813C174.081 249.813 173.726 249.716 173.417 249.522C173.11 249.328 172.867 249.015 172.687 248.583L173.437 248.134C173.553 248.471 173.69 248.707 173.85 248.843C174.013 248.976 174.224 249.042 174.483 249.042ZM177.712 251.522V250.736H182.186V251.522H180.441V256.215H179.457V251.522H177.712ZM182.65 258.337V257.495C182.742 257.523 182.844 257.545 182.956 257.562C183.072 257.579 183.182 257.587 183.288 257.587C183.536 257.587 183.745 257.512 183.915 257.363C184.089 257.213 184.288 256.819 184.512 256.179V256.174L182.426 250.736H183.4L184.721 254.312C184.769 254.451 184.813 254.586 184.854 254.715C184.898 254.841 184.932 254.965 184.956 255.087H184.987C185.014 254.965 185.048 254.841 185.089 254.715C185.133 254.586 185.179 254.451 185.226 254.312L186.466 250.736H187.4L185.124 256.929C184.948 257.405 184.713 257.776 184.42 258.041C184.128 258.306 183.767 258.439 183.339 258.439C183.199 258.439 183.074 258.431 182.961 258.414C182.853 258.397 182.749 258.371 182.65 258.337Z" fill="black"/>
<line x1="87.9031" y1="229.798" x2="87.9031" y2="112.8" stroke="#BDBDBD" stroke-width="0.599988" stroke-linecap="round" stroke-dasharray="3.6 3.6"/>
<path d="M317.393 255.799V248.371H319.938C320.717 248.371 321.329 248.529 321.775 248.846C322.22 249.162 322.443 249.66 322.443 250.34C322.443 250.748 322.336 251.08 322.122 251.335C321.911 251.59 321.649 251.772 321.336 251.881V251.901C321.72 252.01 322.033 252.211 322.275 252.503C322.516 252.796 322.637 253.18 322.637 253.656C322.637 254.336 322.404 254.864 321.938 255.238C321.475 255.612 320.862 255.799 320.096 255.799H317.393ZM318.393 254.957H320.096C320.624 254.957 321.011 254.84 321.26 254.605C321.508 254.367 321.632 254.047 321.632 253.646C321.632 253.248 321.508 252.932 321.26 252.697C321.011 252.462 320.624 252.345 320.096 252.345H318.393V254.957ZM318.393 251.519H319.938C320.469 251.519 320.85 251.417 321.081 251.213C321.316 251.005 321.433 250.718 321.433 250.35C321.433 249.983 321.316 249.703 321.081 249.509C320.85 249.311 320.469 249.213 319.938 249.213H318.393V251.519ZM323.902 257.921V250.32H324.795L324.841 251.034H324.866C325.009 250.81 325.23 250.617 325.529 250.458C325.829 250.298 326.176 250.218 326.57 250.218C327.284 250.218 327.854 250.478 328.279 250.998C328.708 251.519 328.922 252.178 328.922 252.978V253.141C328.922 253.937 328.708 254.597 328.279 255.12C327.854 255.641 327.284 255.901 326.57 255.901C326.176 255.901 325.837 255.833 325.555 255.697C325.276 255.561 325.053 255.379 324.887 255.151V257.921H323.902ZM324.887 254.151C324.999 254.393 325.181 254.608 325.433 254.799C325.684 254.989 325.99 255.085 326.351 255.085C326.888 255.085 327.283 254.898 327.534 254.523C327.786 254.149 327.912 253.689 327.912 253.141V252.978C327.912 252.43 327.786 251.969 327.534 251.595C327.283 251.221 326.888 251.034 326.351 251.034C325.99 251.034 325.684 251.129 325.433 251.32C325.181 251.51 324.999 251.726 324.887 251.968V254.151ZM329.794 253.141V252.978C329.794 252.151 330.027 251.476 330.493 250.952C330.959 250.429 331.575 250.167 332.34 250.167C333.109 250.167 333.7 250.412 334.115 250.901C334.53 251.391 334.738 252.053 334.738 252.886V253.294H330.401V252.508H333.738V252.468C333.738 252.046 333.627 251.692 333.406 251.406C333.188 251.121 332.838 250.978 332.355 250.978C331.842 250.978 331.454 251.172 331.192 251.56C330.93 251.944 330.799 252.417 330.799 252.978V253.141C330.799 253.702 330.937 254.177 331.212 254.564C331.488 254.949 331.916 255.141 332.498 255.141C332.859 255.141 333.166 255.066 333.421 254.916C333.68 254.767 333.889 254.588 334.049 254.381L334.687 254.906C334.51 255.165 334.234 255.404 333.86 255.625C333.486 255.843 333.032 255.952 332.498 255.952C331.624 255.952 330.954 255.69 330.488 255.166C330.026 254.642 329.794 253.967 329.794 253.141ZM335.819 255.799V250.32H337.202L338.732 254.095C338.814 254.299 338.866 254.44 338.89 254.518C338.914 254.593 338.934 254.673 338.951 254.758H339.002C339.023 254.673 339.043 254.593 339.064 254.518C339.087 254.44 339.142 254.302 339.227 254.105L340.762 250.32H342.119V255.799H341.165V252.07C341.165 251.866 341.167 251.719 341.171 251.631C341.177 251.543 341.184 251.463 341.191 251.391H341.145C341.128 251.463 341.106 251.543 341.079 251.631C341.055 251.719 341.004 251.861 340.926 252.054L339.4 255.799H338.508L336.982 252.039C336.911 251.862 336.86 251.728 336.829 251.636C336.802 251.544 336.78 251.463 336.763 251.391H336.712C336.719 251.463 336.725 251.543 336.732 251.631C336.739 251.716 336.741 251.85 336.737 252.034V255.799H335.819ZM344.364 255.799H343.267L344.869 253.483L345.874 253.569L344.364 255.799ZM346.833 255.799V253.83H345.619L345.527 253.774C344.871 253.774 344.366 253.622 344.012 253.32C343.658 253.013 343.481 252.602 343.481 252.085C343.481 251.551 343.662 251.124 344.022 250.805C344.383 250.481 344.896 250.32 345.563 250.32H347.818V255.799H346.833ZM345.563 253.044H346.833V251.105H345.563C345.165 251.105 344.884 251.199 344.721 251.386C344.561 251.57 344.481 251.803 344.481 252.085C344.481 252.367 344.561 252.599 344.721 252.779C344.884 252.956 345.165 253.044 345.563 253.044Z" fill="black"/>
<path d="M10 138.863L2.57229 138.863L2.57229 136.317C2.57229 135.538 2.73043 134.926 3.04672 134.481C3.36301 134.035 3.86125 133.812 4.54145 133.812C4.94956 133.812 5.28116 133.919 5.53623 134.134C5.7913 134.344 5.97325 134.606 6.08209 134.919L6.10249 134.919C6.21132 134.535 6.41198 134.222 6.70446 133.981C6.99695 133.739 7.38125 133.618 7.85739 133.618C8.53758 133.618 9.06473 133.851 9.43884 134.317C9.81295 134.78 10 135.394 10 136.159L10 138.863ZM9.15826 137.863L9.15826 136.159C9.15826 135.632 9.04093 135.244 8.80626 134.996C8.56819 134.748 8.2485 134.623 7.84719 134.623C7.44927 134.623 7.13298 134.748 6.89832 134.996C6.66365 135.244 6.54632 135.632 6.54632 136.159L6.54632 137.863L9.15826 137.863ZM5.71988 137.863L5.71988 136.317C5.71988 135.786 5.61785 135.406 5.4138 135.174C5.20634 134.94 4.91895 134.822 4.55165 134.822C4.18435 134.822 3.90377 134.94 3.70991 135.174C3.51265 135.406 3.41403 135.786 3.41403 136.317L3.41403 137.863L5.71988 137.863ZM7.34214 132.675L7.1789 132.675C6.35246 132.675 5.67737 132.433 5.15362 131.95C4.62987 131.467 4.368 130.824 4.368 130.022C4.368 129.212 4.62987 128.568 5.15362 128.088C5.67737 127.605 6.35246 127.364 7.1789 127.364L7.34214 127.364C8.16858 127.364 8.84367 127.605 9.36742 128.088C9.89117 128.568 10.153 129.212 10.153 130.022C10.153 130.824 9.89117 131.467 9.36742 131.95C8.84367 132.433 8.16858 132.675 7.34214 132.675ZM7.1789 131.665L7.34214 131.665C7.8999 131.665 8.37264 131.527 8.76035 131.251C9.14466 130.976 9.33681 130.566 9.33681 130.022C9.33681 129.474 9.14466 129.063 8.76035 128.787C8.37264 128.512 7.8999 128.374 7.34214 128.374L7.1789 128.374C6.62114 128.374 6.1501 128.512 5.7658 128.787C5.37808 129.063 5.18423 129.474 5.18423 130.022C5.18423 130.566 5.37808 130.976 5.7658 131.251C6.1501 131.527 6.62114 131.665 7.1789 131.665ZM10.153 124.298C10.153 125.077 9.95919 125.662 9.57148 126.053C9.18377 126.441 8.75184 126.634 8.27571 126.634L8.2502 126.634L8.2502 125.675L8.27571 125.675C8.55119 125.675 8.79776 125.57 9.01542 125.359C9.22968 125.148 9.33681 124.793 9.33681 124.293C9.33681 123.854 9.25519 123.523 9.09194 123.298C8.92529 123.074 8.69403 122.961 8.39814 122.961C8.15327 122.961 7.95942 123.046 7.81658 123.217C7.67374 123.387 7.60232 123.677 7.60232 124.089L7.60232 125.043L6.8269 125.043L6.8269 124.14C6.8269 123.786 6.75718 123.531 6.61774 123.375C6.4783 123.218 6.28444 123.14 6.03617 123.14C5.75389 123.14 5.54133 123.232 5.39849 123.415C5.25565 123.596 5.18423 123.871 5.18423 124.242C5.18423 124.694 5.28966 125.028 5.50052 125.242C5.70798 125.453 5.95625 125.558 6.24533 125.558L6.27084 125.558L6.27084 126.517L6.24533 126.517C5.73179 126.517 5.29136 126.322 4.92406 125.93C4.55335 125.539 4.368 124.977 4.368 124.242C4.368 123.582 4.50744 123.069 4.78632 122.701C5.06179 122.331 5.45801 122.145 5.97495 122.145C6.27084 122.145 6.52761 122.239 6.74527 122.426C6.95953 122.609 7.10067 122.859 7.16869 123.176L7.184 123.176C7.23841 122.798 7.37275 122.504 7.58701 122.293C7.79787 122.082 8.06825 121.977 8.39814 121.977C8.9559 121.977 9.38783 122.193 9.69391 122.625C10 123.053 10.153 123.611 10.153 124.298ZM10 120.773L4.52104 120.773L4.52104 119.39L8.29611 117.86C8.50017 117.778 8.64131 117.726 8.71953 117.702C8.79436 117.678 8.87428 117.658 8.9593 117.641L8.9593 117.59C8.87428 117.569 8.79436 117.549 8.71953 117.528C8.64131 117.505 8.50357 117.45 8.30632 117.365L4.52104 115.83L4.52104 114.473L10 114.473L10 115.427L6.27084 115.427C6.06678 115.427 5.92054 115.425 5.83211 115.422C5.74369 115.415 5.66377 115.408 5.59235 115.401L5.59235 115.447C5.66377 115.464 5.74369 115.486 5.83211 115.513C5.92054 115.537 6.06168 115.588 6.25553 115.666L10 117.192L10 118.084L6.24023 119.61C6.06338 119.681 5.92904 119.732 5.83721 119.763C5.74539 119.79 5.66377 119.812 5.59235 119.829L5.59235 119.88C5.66377 119.873 5.74369 119.867 5.83211 119.86C5.91714 119.853 6.05148 119.851 6.23513 119.855L10 119.855L10 120.773ZM7.34214 113.279L7.1789 113.279C6.35246 113.279 5.67737 113.037 5.15362 112.554C4.62987 112.072 4.368 111.429 4.368 110.626C4.368 109.817 4.62987 109.172 5.15362 108.693C5.67737 108.21 6.35246 107.968 7.1789 107.968L7.34214 107.968C8.16858 107.968 8.84367 108.21 9.36742 108.693C9.89117 109.172 10.153 109.817 10.153 110.626C10.153 111.429 9.89117 112.072 9.36742 112.554C8.84367 113.037 8.16858 113.279 7.34214 113.279ZM7.1789 112.269L7.34214 112.269C7.8999 112.269 8.37264 112.131 8.76035 111.856C9.14466 111.58 9.33681 111.17 9.33681 110.626C9.33681 110.079 9.14466 109.667 8.76035 109.392C8.37264 109.116 7.8999 108.978 7.34214 108.978L7.1789 108.978C6.62114 108.978 6.1501 109.116 5.76579 109.392C5.37808 109.667 5.18423 110.079 5.18423 110.626C5.18423 111.17 5.37808 111.58 5.76579 111.856C6.1501 112.131 6.62114 112.269 7.1789 112.269ZM10 103.183L10 104.152L4.52104 104.152L4.52104 103.183L10 103.183ZM10 100.852L7.49008 102.806L6.86261 102.148L10 99.6886L10 100.852ZM6.8269 103.668L6.8269 102.729L4.52104 100.964L4.52104 99.8774L7.60742 102.28L7.60742 103.668L6.8269 103.668ZM10 106.489L10 107.626L6.88811 105.178L7.51559 104.55L10 106.489ZM6.8269 103.668L7.60742 103.668L7.60742 105.076L4.52104 107.458L4.52104 106.351L6.8269 104.606L6.8269 103.668ZM4.52104 99.0305L4.52104 98.046L6.8269 98.046L6.8269 95.4952L4.52104 95.4952L4.52104 94.5107L10 94.5107L10 95.4952L7.60742 95.4952L7.60742 98.046L10 98.046L10 99.0305L4.52104 99.0305ZM4.52104 92.016L6.41368 92.016L6.41368 90.7866C6.41368 90.1132 6.57522 89.5946 6.89832 89.2307C7.21801 88.8668 7.64993 88.6848 8.19408 88.6848C8.73824 88.6848 9.17526 88.8668 9.50516 89.2307C9.83505 89.5946 10 90.1132 10 90.7866L10 93.0006L4.52104 93.0006L4.52104 92.016ZM7.1993 90.7866L7.1993 92.016L9.21437 92.016L9.21437 90.7866C9.21437 90.3785 9.11745 90.0928 8.92359 89.9296C8.72974 89.7663 8.48657 89.6847 8.19408 89.6847C7.905 89.6847 7.66693 89.7663 7.47988 89.9296C7.29283 90.0928 7.1993 90.3785 7.1993 90.7866ZM10 87.9757L4.52104 87.9757L4.52104 86.9911L10 86.9911L10 87.9757ZM10 85.4811L4.52104 85.4811L4.52104 84.5016L7.93391 84.5016C8.03594 84.5016 8.15327 84.5033 8.28591 84.5067C8.41515 84.5067 8.53248 84.5084 8.63791 84.5118L8.63791 84.4659C8.54948 84.4183 8.45426 84.3656 8.35223 84.3078C8.2502 84.2465 8.14477 84.1819 8.03594 84.1139L4.52104 81.8897L4.52104 80.8898L10 80.8898L10 81.8693L6.59223 81.8693C6.4902 81.8693 6.37287 81.8676 6.24023 81.8642C6.10759 81.8608 5.98856 81.8574 5.88313 81.854L5.88313 81.9101C5.97155 81.9543 6.06848 82.007 6.17391 82.0682C6.27934 82.126 6.38477 82.189 6.4902 82.257L10 84.4863L10 85.4811ZM2.82736 83.1803C2.82736 82.9253 2.75934 82.7161 2.6233 82.5529C2.48386 82.3896 2.25259 82.2502 1.9295 82.1345L2.36823 81.3846C2.79675 81.5615 3.10964 81.8063 3.30689 82.1192C3.50075 82.4287 3.59768 82.7824 3.59768 83.1803C3.59768 83.5816 3.50075 83.937 3.30689 84.2465C3.11304 84.5526 2.80015 84.7958 2.36823 84.976L1.9193 84.2261C2.25599 84.1105 2.49236 83.9728 2.6284 83.8129C2.76104 83.6497 2.82736 83.4388 2.82736 83.1803ZM24.3774 104.693L23 104.693L23 108.713L24.3774 108.713L24.3774 109.621L22.2144 109.621L22.2144 103.785L24.3774 103.785L24.3774 104.693ZM18.3067 107.678L20.0208 107.749C20.7248 107.78 21.2281 107.82 21.5308 107.871C21.8335 107.919 22.0834 107.989 22.2807 108.081L22.2807 109.101C22.1072 108.968 21.8658 108.868 21.5563 108.8C21.2468 108.732 20.6992 108.681 19.9136 108.647L17.521 108.55L17.521 104.576L23 104.576L23 105.56L18.3067 105.56L18.3067 107.678ZM20.3421 103.249L20.1789 103.249C19.3525 103.249 18.6774 103.008 18.1536 102.525C17.6299 102.042 17.368 101.399 17.368 100.597C17.368 99.7873 17.6299 99.1428 18.1536 98.6632C18.6774 98.1803 19.3525 97.9388 20.1789 97.9388L20.3421 97.9388C21.1686 97.9388 21.8437 98.1803 22.3674 98.6632C22.8912 99.1428 23.153 99.7873 23.153 100.597C23.153 101.399 22.8912 102.042 22.3674 102.525C21.8437 103.008 21.1686 103.249 20.3421 103.249ZM20.1789 102.239L20.3421 102.239C20.8999 102.239 21.3726 102.102 21.7603 101.826C22.1447 101.551 22.3368 101.141 22.3368 100.597C22.3368 100.049 22.1447 99.6376 21.7603 99.3621C21.3726 99.0867 20.8999 98.9489 20.3421 98.9489L20.1789 98.9489C19.6211 98.9489 19.1501 99.0867 18.7658 99.3621C18.3781 99.6376 18.1842 100.049 18.1842 100.597C18.1842 101.141 18.3781 101.551 18.7658 101.826C19.1501 102.102 19.6211 102.239 20.1789 102.239ZM23 97.3981L19.9748 95.2861L19.9748 95.2096L17.521 93.6332L17.521 92.516L20.4748 94.5311L20.4748 94.6076L23 96.2809L23 97.3981ZM17.521 97.2909L17.521 96.1431L19.9748 94.5719L19.9748 94.5209L23 92.4089L23 93.5567L20.4748 95.23L20.4748 95.281L17.521 97.2909ZM20.3421 91.8732L20.1789 91.8732C19.3525 91.8732 18.6774 91.6317 18.1536 91.1488C17.6299 90.6659 17.368 90.0231 17.368 89.2205C17.368 88.411 17.6299 87.7665 18.1536 87.287C18.6774 86.8041 19.3525 86.5626 20.1789 86.5626L20.3421 86.5626C21.1686 86.5626 21.8437 86.8041 22.3674 87.287C22.8912 87.7665 23.153 88.411 23.153 89.2205C23.153 90.0231 22.8912 90.6659 22.3674 91.1488C21.8437 91.6317 21.1686 91.8732 20.3421 91.8732ZM20.1789 90.8631L20.3421 90.8631C20.8999 90.8631 21.3726 90.7254 21.7603 90.4499C22.1447 90.1744 22.3368 89.7646 22.3368 89.2205C22.3368 88.6729 22.1447 88.2614 21.7603 87.9859C21.3726 87.7104 20.8999 87.5727 20.3421 87.5727L20.1789 87.5727C19.6211 87.5727 19.1501 87.7104 18.7658 87.9859C18.3781 88.2614 18.1842 88.6729 18.1842 89.2205C18.1842 89.7646 18.3781 90.1744 18.7658 90.4499C19.1501 90.7254 19.6211 90.8631 20.1789 90.8631ZM24.3774 81.1449L23 81.1449L23 85.1648L24.3774 85.1648L24.3774 86.0729L22.2144 86.0729L22.2144 80.2368L24.3774 80.2368L24.3774 81.1449ZM18.3067 84.1292L20.0208 84.2006C20.7248 84.2312 21.2281 84.272 21.5308 84.3231C21.8335 84.3707 22.0834 84.4404 22.2807 84.5322L22.2807 85.5525C22.1072 85.4199 21.8658 85.3195 21.5563 85.2515C21.2468 85.1835 20.6992 85.1325 19.9136 85.0985L17.521 85.0016L17.521 81.0275L23 81.0275L23 82.0121L18.3067 82.0121L18.3067 84.1292Z" fill="black"/>
<path d="M3.41913 239.998L2.57229 239.998L2.57229 234.044L3.41913 234.044L3.41913 236.513L10 236.513L10 237.529L3.41913 237.529L3.41913 239.998ZM7.34214 233.483L7.1789 233.483C6.35246 233.483 5.67737 233.25 5.15362 232.784C4.62987 232.318 4.368 231.703 4.368 230.937C4.368 230.169 4.61287 229.577 5.10261 229.162C5.59235 228.747 6.25383 228.54 7.08707 228.54L7.49519 228.54L7.49519 232.876L6.70956 232.876L6.70956 229.54L6.66875 229.54C6.24703 229.54 5.89333 229.65 5.60765 229.871C5.32197 230.089 5.17913 230.439 5.17913 230.922C5.17913 231.436 5.37298 231.823 5.76069 232.085C6.145 232.347 6.61774 232.478 7.1789 232.478L7.34214 232.478C7.9033 232.478 8.37774 232.34 8.76545 232.065C9.14976 231.789 9.34191 231.361 9.34191 230.779C9.34191 230.419 9.26709 230.111 9.11745 229.856C8.96781 229.597 8.78926 229.388 8.5818 229.228L9.10725 228.591C9.36572 228.768 9.60549 229.043 9.82655 229.417C10.0442 229.791 10.153 230.245 10.153 230.779C10.153 231.653 9.89117 232.323 9.36742 232.789C8.84367 233.252 8.16858 233.483 7.34214 233.483ZM10 223.897L7.46458 226.045L6.8218 225.428L10 222.668L10 223.897ZM6.8269 226.963L6.8269 225.979L4.52104 224.051L4.52104 222.913L7.60742 225.535L7.60742 226.963L6.8269 226.963ZM4.52104 226.474L10 226.474L10 227.458L4.52104 227.458L4.52104 226.474ZM12.1222 222.408L11.2805 222.408C11.3077 222.316 11.3298 222.214 11.3468 222.102C11.3638 221.986 11.3723 221.876 11.3723 221.77C11.3723 221.522 11.2975 221.313 11.1478 221.143C10.9982 220.969 10.6037 220.77 9.96429 220.546L9.95919 220.546L4.52104 222.632L4.52104 221.658L8.09716 220.337C8.2366 220.289 8.37094 220.245 8.50017 220.204C8.62601 220.16 8.75014 220.126 8.87258 220.102L8.87258 220.071C8.75014 220.044 8.62601 220.01 8.50017 219.969C8.37094 219.925 8.2366 219.879 8.09716 219.832L4.52104 218.592L4.52104 217.658L10.7142 219.934C11.1903 220.11 11.561 220.345 11.8263 220.638C12.0916 220.93 12.2242 221.291 12.2242 221.719C12.2242 221.859 12.2157 221.984 12.1987 222.097C12.1817 222.205 12.1562 222.309 12.1222 222.408ZM10 216.908L4.52104 216.908L4.52104 215.924L9.21438 215.924L9.21438 213.623L4.52104 213.623L4.52104 212.639L9.21438 212.639L9.21438 210.338L4.52104 210.338L4.52104 209.353L9.21438 209.353L9.21438 208.563L11.3774 208.563L11.3774 209.471L10 209.471L10 216.908ZM10 207.705L4.52104 207.705L4.52104 206.726L7.93391 206.726C8.03594 206.726 8.15327 206.728 8.28591 206.731C8.41515 206.731 8.53248 206.733 8.63791 206.736L8.63791 206.69C8.54949 206.643 8.45426 206.59 8.35223 206.532C8.2502 206.471 8.14477 206.406 8.03594 206.338L4.52104 204.114L4.52104 203.114L10 203.114L10 204.094L6.59223 204.094C6.4902 204.094 6.37287 204.092 6.24023 204.089C6.10759 204.085 5.98856 204.082 5.88313 204.078L5.88313 204.134C5.97155 204.179 6.06848 204.231 6.17391 204.293C6.27934 204.35 6.38477 204.413 6.4902 204.481L10 206.711L10 207.705ZM10 201.604L4.52104 201.604L4.52104 200.625L7.93391 200.625C8.03594 200.625 8.15327 200.626 8.28591 200.63C8.41515 200.63 8.53248 200.631 8.63791 200.635L8.63791 200.589C8.54949 200.541 8.45426 200.489 8.35223 200.431C8.2502 200.37 8.14477 200.305 8.03594 200.237L4.52104 198.013L4.52104 197.013L10 197.013L10 197.992L6.59223 197.992C6.4902 197.992 6.37287 197.991 6.24023 197.987C6.10759 197.984 5.98856 197.98 5.88313 197.977L5.88313 198.033C5.97155 198.077 6.06848 198.13 6.17391 198.191C6.27934 198.249 6.38477 198.312 6.4902 198.38L10 200.609L10 201.604ZM2.82736 199.303C2.82736 199.048 2.75934 198.839 2.6233 198.676C2.48386 198.513 2.25259 198.373 1.9295 198.258L2.36823 197.508C2.79675 197.685 3.10964 197.929 3.30689 198.242C3.50075 198.552 3.59768 198.905 3.59768 199.303C3.59768 199.705 3.50075 200.06 3.30689 200.37C3.11304 200.676 2.80015 200.919 2.36823 201.099L1.9193 200.349C2.256 200.234 2.49236 200.096 2.6284 199.936C2.76104 199.773 2.82736 199.562 2.82736 199.303ZM24.3774 220.816L23 220.816L23 224.836L24.3774 224.836L24.3774 225.744L22.2144 225.744L22.2144 219.908L24.3774 219.908L24.3774 220.816ZM18.3067 223.801L20.0208 223.872C20.7248 223.903 21.2281 223.943 21.5308 223.994C21.8335 224.042 22.0834 224.112 22.2807 224.204L22.2807 225.224C22.1072 225.091 21.8658 224.991 21.5563 224.923C21.2468 224.855 20.6992 224.804 19.9136 224.77L17.521 224.673L17.521 220.699L23 220.699L23 221.683L18.3067 221.683L18.3067 223.801ZM20.3421 219.372L20.1789 219.372C19.3525 219.372 18.6774 219.131 18.1536 218.648C17.6299 218.165 17.368 217.522 17.368 216.72C17.368 215.91 17.6299 215.266 18.1536 214.786C18.6774 214.303 19.3525 214.062 20.1789 214.062L20.3421 214.062C21.1686 214.062 21.8437 214.303 22.3674 214.786C22.8912 215.266 23.153 215.91 23.153 216.72C23.153 217.522 22.8912 218.165 22.3674 218.648C21.8437 219.131 21.1686 219.372 20.3421 219.372ZM20.1789 218.362L20.3421 218.362C20.8999 218.362 21.3726 218.225 21.7603 217.949C22.1447 217.674 22.3368 217.264 22.3368 216.72C22.3368 216.172 22.1447 215.761 21.7603 215.485C21.3726 215.21 20.8999 215.072 20.3421 215.072L20.1789 215.072C19.6211 215.072 19.1501 215.21 18.7658 215.485C18.3781 215.761 18.1842 216.172 18.1842 216.72C18.1842 217.264 18.3781 217.674 18.7658 217.949C19.1501 218.225 19.6211 218.362 20.1789 218.362ZM23 213.521L19.9748 211.409L19.9748 211.333L17.521 209.756L17.521 208.639L20.4748 210.654L20.4748 210.731L23 212.404L23 213.521ZM17.521 213.414L17.521 212.266L19.9748 210.695L19.9748 210.644L23 208.532L23 209.68L20.4748 211.353L20.4748 211.404L17.521 213.414ZM20.3421 207.996L20.1789 207.996C19.3525 207.996 18.6774 207.755 18.1536 207.272C17.6299 206.789 17.368 206.146 17.368 205.343C17.368 204.534 17.6299 203.89 18.1536 203.41C18.6774 202.927 19.3525 202.686 20.1789 202.686L20.3421 202.686C21.1686 202.686 21.8437 202.927 22.3674 203.41C22.8912 203.89 23.153 204.534 23.153 205.343C23.153 206.146 22.8912 206.789 22.3674 207.272C21.8437 207.755 21.1686 207.996 20.3421 207.996ZM20.1789 206.986L20.3421 206.986C20.8999 206.986 21.3726 206.848 21.7603 206.573C22.1447 206.297 22.3368 205.888 22.3368 205.343C22.3368 204.796 22.1447 204.384 21.7603 204.109C21.3726 203.833 20.8999 203.696 20.3421 203.696L20.1789 203.696C19.6211 203.696 19.1501 203.833 18.7658 204.109C18.3781 204.384 18.1842 204.796 18.1842 205.343C18.1842 205.888 18.3781 206.297 18.7658 206.573C19.1501 206.848 19.6211 206.986 20.1789 206.986ZM24.3774 197.268L23 197.268L23 201.288L24.3774 201.288L24.3774 202.196L22.2144 202.196L22.2144 196.36L24.3774 196.36L24.3774 197.268ZM18.3067 200.252L20.0208 200.324C20.7248 200.354 21.2281 200.395 21.5308 200.446C21.8335 200.494 22.0834 200.563 22.2807 200.655L22.2807 201.676C22.1072 201.543 21.8658 201.443 21.5563 201.375C21.2468 201.307 20.6992 201.256 19.9136 201.222L17.521 201.125L17.521 197.151L23 197.151L23 198.135L18.3067 198.135L18.3067 200.252Z" fill="black"/>
<circle cx="87.9038" cy="196.197" r="3.89992" fill="#2A2A2A"/>
<path d="M48.0059 0L43.8351 7.2239H52.1766L48.0059 0ZM348.693 229.196L341.469 225.025V233.366L348.693 229.196ZM47.2835 6.50151V212.396H48.7282V6.50151H47.2835ZM64.8055 229.918H342.191V228.473H64.8055V229.918ZM47.2835 212.396C47.2835 222.073 55.1284 229.918 64.8055 229.918V228.473C55.9263 228.473 48.7282 221.275 48.7282 212.396H47.2835Z" fill="#E2E2E2"/>
<rect x="124.203" y="165.297" width="80.3997" height="17.7999" rx="8.89995" fill="#E2E2E2"/>
<path d="M135.297 176.973C135.896 176.973 136.333 176.844 136.608 176.585C136.884 176.327 137.022 175.98 137.022 175.544C137.022 175.157 136.897 174.849 136.649 174.621C136.401 174.39 135.989 174.274 135.415 174.274H134.359V173.427H135.353C135.864 173.427 136.236 173.327 136.471 173.126C136.705 172.922 136.823 172.626 136.823 172.239C136.823 171.837 136.698 171.53 136.45 171.315C136.205 171.101 135.823 170.994 135.302 170.994C134.738 170.994 134.306 171.12 134.007 171.371C133.707 171.62 133.558 172.009 133.558 172.54V172.591H132.537V172.54C132.537 171.778 132.779 171.184 133.262 170.759C133.745 170.331 134.422 170.117 135.292 170.117C136.085 170.117 136.705 170.29 137.154 170.637C137.603 170.98 137.828 171.501 137.828 172.198C137.828 172.62 137.72 172.963 137.506 173.228C137.295 173.494 137.033 173.681 136.721 173.79V173.81C137.105 173.919 137.418 174.119 137.659 174.412C137.904 174.701 138.027 175.082 138.027 175.555C138.027 176.279 137.778 176.844 137.282 177.248C136.785 177.65 136.124 177.85 135.297 177.85C134.423 177.85 133.729 177.643 133.216 177.228C132.706 176.81 132.451 176.194 132.451 175.381V175.33H133.466V175.381C133.466 175.908 133.619 176.306 133.925 176.575C134.231 176.84 134.689 176.973 135.297 176.973ZM139.011 176.085C139.011 175.531 139.237 175.099 139.69 174.789C140.145 174.477 140.722 174.32 141.419 174.32H142.71V173.912C142.71 173.599 142.621 173.346 142.444 173.152C142.268 172.955 141.961 172.856 141.526 172.856C141.094 172.856 140.785 172.941 140.598 173.111C140.411 173.281 140.317 173.478 140.317 173.703V173.728H139.338V173.703C139.338 173.264 139.537 172.881 139.934 172.555C140.336 172.229 140.877 172.065 141.557 172.065C142.234 172.065 142.759 172.22 143.133 172.529C143.507 172.839 143.694 173.3 143.694 173.912V176.473C143.694 176.694 143.711 176.903 143.745 177.1C143.783 177.294 143.834 177.466 143.898 177.616V177.697H142.939C142.892 177.609 142.847 177.495 142.807 177.355C142.766 177.216 142.74 177.077 142.73 176.937C142.597 177.165 142.381 177.366 142.082 177.539C141.786 177.713 141.404 177.799 140.934 177.799C140.4 177.799 139.946 177.653 139.572 177.361C139.198 177.065 139.011 176.64 139.011 176.085ZM139.996 176.034C139.996 176.34 140.089 176.58 140.276 176.753C140.467 176.924 140.759 177.009 141.154 177.009C141.552 177.009 141.91 176.879 142.23 176.621C142.55 176.362 142.71 176.089 142.71 175.8V175.029H141.526C141.023 175.029 140.642 175.119 140.383 175.3C140.125 175.48 139.996 175.725 139.996 176.034ZM145.194 172.218H149.663V177.697H148.678V173.004H146.179V177.697H145.194V172.218ZM150.693 179.819V178.978C150.785 179.005 150.887 179.027 151 179.044C151.115 179.061 151.226 179.07 151.331 179.07C151.579 179.07 151.789 178.995 151.959 178.845C152.132 178.695 152.331 178.301 152.555 177.662V177.656L150.469 172.218H151.443L152.765 175.794C152.812 175.934 152.856 176.068 152.897 176.197C152.941 176.323 152.976 176.447 152.999 176.57H153.03C153.057 176.447 153.091 176.323 153.132 176.197C153.176 176.068 153.222 175.934 153.27 175.794L154.509 172.218H155.443L153.168 178.411C152.991 178.888 152.756 179.258 152.464 179.524C152.171 179.789 151.811 179.921 151.382 179.921C151.243 179.921 151.117 179.913 151.005 179.896C150.896 179.879 150.792 179.853 150.693 179.819ZM155.871 175.039V174.876C155.871 174.05 156.103 173.375 156.565 172.851C157.028 172.327 157.664 172.065 158.473 172.065C159.225 172.065 159.794 172.263 160.182 172.657C160.573 173.048 160.769 173.487 160.769 173.973V173.999H159.81V173.973C159.81 173.684 159.704 173.431 159.493 173.213C159.283 172.992 158.943 172.881 158.473 172.881C157.926 172.881 157.523 173.075 157.264 173.463C157.009 173.847 156.882 174.318 156.882 174.876V175.039C156.882 175.601 157.009 176.073 157.264 176.458C157.523 176.842 157.926 177.034 158.473 177.034C158.943 177.034 159.283 176.925 159.493 176.708C159.704 176.487 159.81 176.231 159.81 175.942V175.917H160.769V175.942C160.769 176.429 160.573 176.869 160.182 177.264C159.794 177.655 159.225 177.85 158.473 177.85C157.664 177.85 157.028 177.588 156.565 177.065C156.103 176.541 155.871 175.866 155.871 175.039ZM165.335 177.697L163.187 175.162L163.804 174.519L166.564 177.697H165.335ZM162.269 174.524H163.253L165.182 172.218H166.319L163.697 175.305H162.269V174.524ZM162.758 172.218V177.697H161.774V172.218H162.758ZM169.533 175.039V174.876C169.533 174.05 169.764 173.375 170.227 172.851C170.689 172.327 171.325 172.065 172.135 172.065C172.886 172.065 173.456 172.263 173.844 172.657C174.235 173.048 174.431 173.487 174.431 173.973V173.999H173.471V173.973C173.471 173.684 173.366 173.431 173.155 173.213C172.944 172.992 172.604 172.881 172.135 172.881C171.587 172.881 171.184 173.075 170.926 173.463C170.671 173.847 170.543 174.318 170.543 174.876V175.039C170.543 175.601 170.671 176.073 170.926 176.458C171.184 176.842 171.587 177.034 172.135 177.034C172.604 177.034 172.944 176.925 173.155 176.708C173.366 176.487 173.471 176.231 173.471 175.942V175.917H174.431V175.942C174.431 176.429 174.235 176.869 173.844 177.264C173.456 177.655 172.886 177.85 172.135 177.85C171.325 177.85 170.689 177.588 170.227 177.065C169.764 176.541 169.533 175.866 169.533 175.039ZM175.14 176.085C175.14 175.531 175.366 175.099 175.818 174.789C176.274 174.477 176.85 174.32 177.547 174.32H178.838V173.912C178.838 173.599 178.75 173.346 178.573 173.152C178.396 172.955 178.09 172.856 177.655 172.856C177.223 172.856 176.913 172.941 176.726 173.111C176.539 173.281 176.446 173.478 176.446 173.703V173.728H175.466V173.703C175.466 173.264 175.665 172.881 176.063 172.555C176.464 172.229 177.005 172.065 177.685 172.065C178.362 172.065 178.887 172.22 179.262 172.529C179.636 172.839 179.823 173.3 179.823 173.912V176.473C179.823 176.694 179.84 176.903 179.874 177.1C179.911 177.294 179.962 177.466 180.027 177.616V177.697H179.068C179.02 177.609 178.976 177.495 178.935 177.355C178.894 177.216 178.869 177.077 178.859 176.937C178.726 177.165 178.51 177.366 178.211 177.539C177.915 177.713 177.532 177.799 177.063 177.799C176.529 177.799 176.075 177.653 175.701 177.361C175.327 177.065 175.14 176.64 175.14 176.085ZM176.124 176.034C176.124 176.34 176.218 176.58 176.405 176.753C176.595 176.924 176.888 177.009 177.282 177.009C177.68 177.009 178.039 176.879 178.359 176.621C178.678 176.362 178.838 176.089 178.838 175.8V175.029H177.655C177.151 175.029 176.77 175.119 176.512 175.3C176.253 175.48 176.124 175.725 176.124 176.034ZM181.323 177.697V172.218H182.302V175.631C182.302 175.733 182.3 175.851 182.297 175.983C182.297 176.112 182.295 176.23 182.292 176.335H182.338C182.385 176.247 182.438 176.152 182.496 176.049C182.557 175.947 182.622 175.842 182.69 175.733L184.914 172.218H185.914V177.697H184.934V174.289C184.934 174.187 184.936 174.07 184.939 173.937C184.943 173.805 184.946 173.686 184.95 173.58H184.894C184.849 173.669 184.797 173.766 184.735 173.871C184.678 173.977 184.615 174.082 184.547 174.187L182.317 177.697H181.323ZM183.623 170.525C183.878 170.525 184.088 170.457 184.251 170.321C184.414 170.181 184.553 169.95 184.669 169.627L185.419 170.065C185.242 170.494 184.997 170.807 184.684 171.004C184.375 171.198 184.021 171.295 183.623 171.295C183.222 171.295 182.867 171.198 182.557 171.004C182.251 170.81 182.008 170.497 181.828 170.065L182.578 169.617C182.693 169.953 182.831 170.19 182.991 170.326C183.154 170.458 183.365 170.525 183.623 170.525ZM186.853 173.004V172.218H191.327V173.004H189.582V177.697H188.597V173.004H186.853ZM191.974 176.085C191.974 175.531 192.201 175.099 192.653 174.789C193.109 174.477 193.685 174.32 194.382 174.32H195.673V173.912C195.673 173.599 195.585 173.346 195.408 173.152C195.231 172.955 194.925 172.856 194.489 172.856C194.057 172.856 193.748 172.941 193.561 173.111C193.374 173.281 193.28 173.478 193.28 173.703V173.728H192.301V173.703C192.301 173.264 192.5 172.881 192.898 172.555C193.299 172.229 193.84 172.065 194.52 172.065C195.197 172.065 195.722 172.22 196.096 172.529C196.47 172.839 196.658 173.3 196.658 173.912V176.473C196.658 176.694 196.675 176.903 196.709 177.1C196.746 177.294 196.797 177.466 196.862 177.616V177.697H195.903C195.855 177.609 195.811 177.495 195.77 177.355C195.729 177.216 195.704 177.077 195.693 176.937C195.561 177.165 195.345 177.366 195.045 177.539C194.75 177.713 194.367 177.799 193.898 177.799C193.364 177.799 192.91 177.653 192.536 177.361C192.161 177.065 191.974 176.64 191.974 176.085ZM192.959 176.034C192.959 176.34 193.053 176.58 193.24 176.753C193.43 176.924 193.722 177.009 194.117 177.009C194.515 177.009 194.874 176.879 195.193 176.621C195.513 176.362 195.673 176.089 195.673 175.8V175.029H194.489C193.986 175.029 193.605 175.119 193.347 175.3C193.088 175.48 192.959 175.725 192.959 176.034Z" fill="black"/>
<path d="M196.201 188.809V181.134C196.201 180.386 195.524 179.82 194.787 179.953L188.263 181.134C187.309 181.307 186.943 182.481 187.631 183.165L194.155 189.66C194.911 190.413 196.201 189.877 196.201 188.809Z" fill="#E2E2E2"/>
<rect x="39.6016" y="165.896" width="46.3997" height="17.7999" rx="8.89995" fill="#E2E2E2"/>
<path d="M48.2635 178.297V170.869H50.8091C51.5879 170.869 52.2001 171.027 52.6456 171.344C53.0912 171.66 53.3139 172.158 53.3139 172.838C53.3139 173.246 53.2068 173.578 52.9925 173.833C52.7817 174.088 52.5198 174.27 52.2069 174.379V174.399C52.5912 174.508 52.9041 174.709 53.1456 175.001C53.3871 175.294 53.5078 175.678 53.5078 176.154C53.5078 176.834 53.2748 177.362 52.8089 177.736C52.3464 178.11 51.7325 178.297 50.9673 178.297H48.2635ZM49.2634 177.455H50.9673C51.4944 177.455 51.8821 177.338 52.1304 177.103C52.3787 176.865 52.5028 176.545 52.5028 176.144C52.5028 175.746 52.3787 175.43 52.1304 175.195C51.8821 174.961 51.4944 174.843 50.9673 174.843H49.2634V177.455ZM49.2634 174.017H50.8091C51.3397 174.017 51.7206 173.915 51.9518 173.711C52.1865 173.503 52.3038 173.216 52.3038 172.849C52.3038 172.481 52.1865 172.201 51.9518 172.007C51.7206 171.81 51.3397 171.711 50.8091 171.711H49.2634V174.017ZM55.7575 172.818V174.711H56.987C57.6604 174.711 58.179 174.872 58.5429 175.195C58.9068 175.515 59.0888 175.947 59.0888 176.491C59.0888 177.035 58.9068 177.472 58.5429 177.802C58.179 178.132 57.6604 178.297 56.987 178.297H54.7729V172.818H55.7575ZM56.987 175.496H55.7575V177.511H56.987C57.3951 177.511 57.6808 177.414 57.844 177.22C58.0073 177.027 58.0889 176.783 58.0889 176.491C58.0889 176.202 58.0073 175.964 57.844 175.777C57.6808 175.59 57.3951 175.496 56.987 175.496ZM59.7979 178.297V172.818H60.7825V178.297H59.7979ZM64.2718 173.604V172.818H68.7458V173.604H67.0011V178.297H66.0165V173.604H64.2718ZM69.2101 180.419V179.577C69.3019 179.605 69.4039 179.627 69.5161 179.644C69.6318 179.661 69.7423 179.669 69.8477 179.669C70.096 179.669 70.3052 179.594 70.4752 179.445C70.6487 179.295 70.8476 178.901 71.0721 178.261V178.256L68.9856 172.818H69.96L71.2812 176.394C71.3289 176.533 71.3731 176.668 71.4139 176.797C71.4581 176.923 71.4921 177.047 71.5159 177.169H71.5465C71.5737 177.047 71.6077 176.923 71.6485 176.797C71.6928 176.668 71.7387 176.533 71.7863 176.394L73.0259 172.818H73.9595L71.6843 179.011C71.5074 179.487 71.2727 179.858 70.9803 180.123C70.6878 180.388 70.3273 180.521 69.8987 180.521C69.7593 180.521 69.6335 180.513 69.5212 180.496C69.4124 180.479 69.3087 180.453 69.2101 180.419ZM74.1381 173.604V172.818H78.612V173.604H76.8673V178.297H75.8828V173.604H74.1381Z" fill="black"/>
<path d="M82.1992 189.409V181.734C82.1992 180.985 81.5218 180.419 80.7855 180.553L74.2615 181.734C73.3073 181.906 72.9414 183.081 73.6286 183.765L80.1527 190.259C80.9094 191.013 82.1992 190.477 82.1992 189.409Z" fill="#E2E2E2"/>
<line x1="200.7" y1="227.995" x2="200.7" y2="110.997" stroke="#BDBDBD" stroke-width="0.599988" stroke-linecap="round" stroke-dasharray="3.6 3.6"/>
<circle cx="200.703" cy="196.197" r="3.89992" fill="#B5F602"/>
<path d="M88.1426 234.643V235.105C88.1426 239.196 91.4587 242.512 95.5493 242.512H193.457C197.548 242.512 200.864 239.196 200.864 235.105V234.643" stroke="#B5F602" stroke-width="1.38877" stroke-linecap="round"/>
<path d="M10 27.5964L2.57229 27.5964L2.57229 25.0508C2.57229 24.272 2.73043 23.6598 3.04672 23.2143C3.36301 22.7688 3.86125 22.546 4.54145 22.546C4.94956 22.546 5.28116 22.6531 5.53623 22.8674C5.7913 23.0782 5.97325 23.3401 6.08209 23.653L6.10249 23.653C6.21132 23.2687 6.41198 22.9558 6.70446 22.7143C6.99695 22.4729 7.38125 22.3521 7.85739 22.3521C8.53758 22.3521 9.06473 22.5851 9.43884 23.051C9.81295 23.5136 10 24.1274 10 24.8927L10 27.5964ZM9.15826 26.5965L9.15826 24.8927C9.15826 24.3655 9.04093 23.9778 8.80626 23.7295C8.56819 23.4813 8.2485 23.3571 7.84719 23.3571C7.44927 23.3571 7.13298 23.4813 6.89832 23.7295C6.66365 23.9778 6.54632 24.3655 6.54632 24.8927L6.54632 26.5965L9.15826 26.5965ZM5.71988 26.5965L5.71988 25.0508C5.71988 24.5203 5.61785 24.1393 5.41379 23.9081C5.20634 23.6734 4.91895 23.5561 4.55165 23.5561C4.18435 23.5561 3.90377 23.6734 3.70991 23.9081C3.51265 24.1393 3.41403 24.5203 3.41403 25.0508L3.41403 26.5965L5.71988 26.5965ZM8.38794 21.3829C7.83358 21.3829 7.40166 21.1567 7.09217 20.7044C6.77928 20.2486 6.62284 19.6722 6.62284 18.975L6.62284 17.6843L6.21472 17.6843C5.90183 17.6843 5.64846 17.7727 5.45461 17.9496C5.25735 18.1264 5.15872 18.4325 5.15872 18.8678C5.15872 19.2998 5.24375 19.6093 5.41379 19.7963C5.58384 19.9834 5.7811 20.0769 6.00556 20.0769L6.03107 20.0769L6.03107 21.0564L6.00556 21.0564C5.56684 21.0564 5.18423 20.8574 4.85774 20.4595C4.53124 20.0582 4.368 19.5174 4.368 18.8372C4.368 18.1604 4.52274 17.635 4.83223 17.2609C5.14172 16.8868 5.60255 16.6997 6.21472 16.6997L8.77565 16.6997C8.99671 16.6997 9.20587 16.6827 9.40313 16.6487C9.59698 16.6113 9.76873 16.5603 9.91838 16.4957L10 16.4957L10 17.4547C9.91157 17.5024 9.79764 17.5466 9.6582 17.5874C9.51876 17.6282 9.37932 17.6537 9.23988 17.6639C9.46775 17.7965 9.6684 18.0125 9.84185 18.3118C10.0153 18.6077 10.102 18.9903 10.102 19.4596C10.102 19.9936 9.95579 20.4476 9.6633 20.8217C9.36742 21.1958 8.9423 21.3829 8.38794 21.3829ZM8.33693 20.3983C8.64301 20.3983 8.88278 20.3048 9.05623 20.1177C9.22628 19.9272 9.3113 19.6348 9.3113 19.2403C9.3113 18.8423 9.18207 18.4835 8.92359 18.1638C8.66512 17.8442 8.39134 17.6843 8.10226 17.6843L7.33194 17.6843L7.33194 18.8678C7.33194 19.3712 7.42207 19.7521 7.60232 20.0106C7.78257 20.269 8.02744 20.3983 8.33693 20.3983ZM10 15.1999L4.52104 15.1999L4.52104 14.2153L9.21438 14.2153L9.21438 11.9146L4.52104 11.9146L4.52104 10.93L9.21438 10.93L9.21438 8.62923L4.52104 8.62923L4.52104 7.64465L10 7.64465L10 15.1999ZM10 6.12952L4.52104 6.12952L4.52104 5.15005L7.93391 5.15004C8.03594 5.15004 8.15327 5.15175 8.28591 5.15515C8.41515 5.15515 8.53248 5.15685 8.63791 5.16025L8.63791 5.11433C8.54949 5.06672 8.45426 5.01401 8.35223 4.95619C8.2502 4.89497 8.14477 4.83035 8.03594 4.76233L4.52104 2.5381L4.52104 1.53822L10 1.53822L10 2.5177L6.59223 2.5177C6.4902 2.5177 6.37287 2.516 6.24023 2.51259C6.10759 2.50919 5.98856 2.50579 5.88313 2.50239L5.88313 2.55851C5.97155 2.60272 6.06848 2.65544 6.17391 2.71665C6.27934 2.77447 6.38477 2.83739 6.4902 2.90541L10 5.13474L10 6.12952ZM24.3774 29.4534L23 29.4534L23 33.4733L24.3774 33.4733L24.3774 34.3814L22.2144 34.3814L22.2144 28.5453L24.3774 28.5453L24.3774 29.4534ZM18.3067 32.4377L20.0208 32.5091C20.7248 32.5397 21.2281 32.5805 21.5308 32.6316C21.8335 32.6792 22.0834 32.7489 22.2807 32.8407L22.2807 33.861C22.1072 33.7284 21.8658 33.628 21.5563 33.56C21.2468 33.492 20.6992 33.441 19.9136 33.407L17.521 33.3101L17.521 29.336L23 29.336L23 30.3206L18.3067 30.3206L18.3067 32.4377ZM20.3421 28.0096L20.1789 28.0096C19.3525 28.0096 18.6774 27.7767 18.1536 27.3108C17.6299 26.8448 17.368 26.2292 17.368 25.464C17.368 24.6954 17.6129 24.1036 18.1026 23.6887C18.5923 23.2738 19.2538 23.0663 20.0871 23.0663L20.4952 23.0663L20.4952 27.4026L19.7096 27.4026L19.7096 24.0662L19.6688 24.0662C19.247 24.0662 18.8933 24.1768 18.6077 24.3978C18.322 24.6155 18.1791 24.9658 18.1791 25.4487C18.1791 25.9623 18.373 26.35 18.7607 26.6119C19.145 26.8737 19.6177 27.0047 20.1789 27.0047L20.3421 27.0047C20.9033 27.0047 21.3777 26.8669 21.7654 26.5914C22.1498 26.316 22.3419 25.8874 22.3419 25.3059C22.3419 24.9454 22.2671 24.6376 22.1174 24.3825C21.9678 24.124 21.7893 23.9149 21.5818 23.755L22.1072 23.1174C22.3657 23.2942 22.6055 23.5697 22.8266 23.9438C23.0442 24.3179 23.153 24.7719 23.153 25.3059C23.153 26.1799 22.8912 26.8499 22.3674 27.3159C21.8437 27.7784 21.1686 28.0096 20.3421 28.0096ZM17.521 21.9848L17.521 21.0003L19.8269 21.0003L19.8269 18.4495L17.521 18.4495L17.521 17.4649L23 17.4649L23 18.4495L20.6074 18.4495L20.6074 21.0003L23 21.0003L23 21.9848L17.521 21.9848ZM17.521 14.9703L19.4137 14.9703L19.4137 13.7409C19.4137 13.0675 19.5752 12.5488 19.8983 12.1849C20.218 11.821 20.6499 11.6391 21.1941 11.6391C21.7382 11.6391 22.1753 11.821 22.5052 12.1849C22.8351 12.5488 23 13.0675 23 13.7409L23 15.9549L17.521 15.9549L17.521 14.9703ZM20.1993 13.7409L20.1993 14.9703L22.2144 14.9703L22.2144 13.7409C22.2144 13.3328 22.1174 13.0471 21.9236 12.8838C21.7297 12.7206 21.4866 12.639 21.1941 12.639C20.905 12.639 20.6669 12.7206 20.4799 12.8838C20.2928 13.0471 20.1993 13.3328 20.1993 13.7409ZM17.521 10.578L17.521 7.07329L18.3067 7.07329L18.3067 9.59341L23 9.59341L23 10.578L17.521 10.578ZM23 6.12952L17.521 6.12953L17.521 5.15005L20.9339 5.15005C21.0359 5.15005 21.1533 5.15175 21.2859 5.15515C21.4151 5.15515 21.5325 5.15685 21.6379 5.16025L21.6379 5.11434C21.5495 5.06672 21.4543 5.01401 21.3522 4.95619C21.2502 4.89497 21.1448 4.83036 21.0359 4.76234L17.521 2.5381L17.521 1.53822L23 1.53822L23 2.5177L19.5922 2.5177C19.4902 2.5177 19.3729 2.516 19.2402 2.5126C19.1076 2.5092 18.9886 2.50579 18.8831 2.50239L18.8831 2.55851C18.9716 2.60272 19.0685 2.65544 19.1739 2.71665C19.2793 2.77447 19.3848 2.83739 19.4902 2.90541L23 5.13474L23 6.12952Z" fill="black"/>
<defs>
<linearGradient id="paint0_linear_479_1999" x1="356.401" y1="105.297" x2="282.302" y2="144.297" gradientUnits="userSpaceOnUse">
<stop stop-color="#B5F602" stop-opacity="0"/>
<stop offset="1" stop-color="#B5F602"/>
</linearGradient>
<clipPath id="clip0_479_1999">
<rect width="155.997" height="94.1982" fill="white" transform="translate(195.002 107.098)"/>
</clipPath>
</defs>
</svg>
