<svg width="398" height="217" viewBox="0 0 398 217" fill="none" xmlns="http://www.w3.org/2000/svg">
<rect x="47" width="329.095" height="60.3929" rx="30.1964" fill="#B5F602"/>
<path d="M76.1641 36.4971C76.3594 36.5596 76.5742 36.6104 76.8086 36.6494C77.043 36.6885 77.2734 36.708 77.5 36.708C78.25 36.708 78.8516 36.5166 79.3047 36.1338C79.7578 35.7432 80.2461 35.0166 80.7695 33.9541L74.7227 21.1338H77.0312L81.0273 29.9932C81.207 30.3682 81.3438 30.6611 81.4375 30.8721C81.5391 31.083 81.6484 31.333 81.7656 31.6221H81.8359C81.9531 31.333 82.0508 31.0869 82.1289 30.8838C82.2148 30.6729 82.3398 30.376 82.5039 29.9932L86.2188 21.1338H88.3047L82.9141 33.6494C82.1094 35.501 81.3359 36.7783 80.5938 37.4814C79.8594 38.1768 78.918 38.5244 77.7695 38.5244C77.3555 38.5244 77.0352 38.5049 76.8086 38.4658C76.5898 38.4268 76.375 38.3682 76.1641 38.29V36.4971ZM90.1445 26.2314H99.4492V38.1963H97.4805V27.8018H92.125V38.1963H90.1445V26.2314ZM102.051 32.3955V32.0205C102.051 30.2002 102.535 28.7275 103.504 27.6025C104.473 26.4697 105.801 25.9033 107.488 25.9033C109.066 25.9033 110.262 26.3252 111.074 27.1689C111.895 28.0127 112.305 28.9854 112.305 30.0869V30.1807H110.383V30.0869C110.383 29.3838 110.148 28.7861 109.68 28.2939C109.219 27.7939 108.492 27.5439 107.5 27.5439C106.344 27.5439 105.48 27.9658 104.91 28.8096C104.348 29.6533 104.066 30.7236 104.066 32.0205V32.3955C104.066 33.6768 104.348 34.7471 104.91 35.6064C105.473 36.458 106.332 36.8838 107.488 36.8838C108.488 36.8838 109.223 36.6338 109.691 36.1338C110.16 35.6338 110.395 35.0244 110.395 34.3057V34.2236H112.316V34.3057C112.316 35.4072 111.906 36.3877 111.086 37.2471C110.266 38.0986 109.066 38.5244 107.488 38.5244C105.801 38.5244 104.473 37.958 103.504 36.8252C102.535 35.6924 102.051 34.2158 102.051 32.3955ZM114.426 40.5635C114.77 40.0947 115.035 39.6182 115.223 39.1338C115.418 38.6494 115.516 38.0791 115.516 37.4229V35.7822H117.438V37.4229C117.438 38.2275 117.266 38.958 116.922 39.6143C116.586 40.2705 116.137 40.8408 115.574 41.3252L114.426 40.5635ZM126.051 32.3955V32.0205C126.051 30.2002 126.535 28.7275 127.504 27.6025C128.473 26.4697 129.801 25.9033 131.488 25.9033C133.066 25.9033 134.262 26.3252 135.074 27.1689C135.895 28.0127 136.305 28.9854 136.305 30.0869V30.1807H134.383V30.0869C134.383 29.3838 134.148 28.7861 133.68 28.2939C133.219 27.7939 132.492 27.5439 131.5 27.5439C130.344 27.5439 129.48 27.9658 128.91 28.8096C128.348 29.6533 128.066 30.7236 128.066 32.0205V32.3955C128.066 33.6768 128.348 34.7471 128.91 35.6064C129.473 36.458 130.332 36.8838 131.488 36.8838C132.488 36.8838 133.223 36.6338 133.691 36.1338C134.16 35.6338 134.395 35.0244 134.395 34.3057V34.2236H136.316V34.3057C136.316 35.4072 135.906 36.3877 135.086 37.2471C134.266 38.0986 133.066 38.5244 131.488 38.5244C129.801 38.5244 128.473 37.958 127.504 36.8252C126.535 35.6924 126.051 34.2158 126.051 32.3955ZM137.383 27.8018V26.2314H146.945V27.8018H143.148V38.1963H141.18V27.8018H137.383ZM148.949 43.1416V26.2314H150.754L150.824 27.8252H150.883C151.188 27.3174 151.66 26.8877 152.301 26.5361C152.941 26.1768 153.684 25.9971 154.527 25.9971C156.043 25.9971 157.246 26.5596 158.137 27.6846C159.027 28.8096 159.473 30.251 159.473 32.0088V32.3838C159.473 34.1572 159.027 35.6104 158.137 36.7432C157.246 37.8682 156.043 38.4307 154.527 38.4307C153.684 38.4307 152.961 38.2783 152.359 37.9736C151.766 37.6611 151.289 37.2549 150.93 36.7549V43.1416H148.949ZM150.93 34.6924C151.172 35.2393 151.562 35.7275 152.102 36.1572C152.648 36.5791 153.309 36.79 154.082 36.79C155.246 36.79 156.098 36.3682 156.637 35.5244C157.184 34.6807 157.457 33.6338 157.457 32.3838V32.0088C157.457 30.7588 157.184 29.7197 156.637 28.8916C156.098 28.0557 155.246 27.6377 154.082 27.6377C153.309 27.6377 152.648 27.8525 152.102 28.2822C151.562 28.7041 151.172 29.1846 150.93 29.7236V34.6924ZM161.371 34.7041C161.371 33.501 161.844 32.5596 162.789 31.8799C163.742 31.2002 164.965 30.8604 166.457 30.8604H169.199V29.958C169.199 29.2158 169.004 28.6221 168.613 28.1768C168.23 27.7314 167.578 27.5088 166.656 27.5088C165.742 27.5088 165.074 27.6963 164.652 28.0713C164.238 28.4385 164.031 28.8916 164.031 29.4307V29.5361H162.062V29.3955C162.062 28.4502 162.48 27.6338 163.316 26.9463C164.152 26.251 165.281 25.9033 166.703 25.9033C168.117 25.9033 169.215 26.2393 169.996 26.9111C170.777 27.5752 171.168 28.5908 171.168 29.958V35.3838C171.168 35.8916 171.207 36.3721 171.285 36.8252C171.363 37.2705 171.473 37.665 171.613 38.0088V38.1963H169.715C169.605 38.001 169.504 37.7471 169.41 37.4346C169.324 37.1221 169.27 36.8096 169.246 36.4971C168.965 36.9971 168.504 37.4424 167.863 37.833C167.23 38.2158 166.418 38.4072 165.426 38.4072C164.277 38.4072 163.312 38.0908 162.531 37.458C161.758 36.8174 161.371 35.8994 161.371 34.7041ZM163.352 34.5986C163.352 35.3018 163.555 35.8486 163.961 36.2393C164.367 36.6221 164.992 36.8135 165.836 36.8135C166.688 36.8135 167.461 36.5205 168.156 35.9346C168.852 35.3408 169.199 34.708 169.199 34.0361V32.3018H166.691C165.582 32.3018 164.746 32.5088 164.184 32.9229C163.629 33.3369 163.352 33.8955 163.352 34.5986ZM174.426 26.2314H176.406V31.3057H181.879V26.2314H183.848V38.1963H181.879V32.876H176.406V38.1963H174.426V26.2314ZM187.176 38.1963V26.2314H189.121V33.8604C189.121 34.1104 189.117 34.3682 189.109 34.6338C189.109 34.8916 189.105 35.1494 189.098 35.4072H189.203C189.312 35.1885 189.43 34.9736 189.555 34.7627C189.68 34.5518 189.82 34.3213 189.977 34.0713L194.805 26.2314H196.809V38.1963H194.863V30.5791C194.863 30.3291 194.867 30.0674 194.875 29.7939C194.891 29.5127 194.906 29.2432 194.922 28.9854H194.77C194.668 29.2041 194.555 29.4268 194.43 29.6533C194.305 29.8721 194.164 30.1104 194.008 30.3682L189.191 38.1963H187.176ZM209.395 41.3252V38.1963H200.113V26.2314H202.094V36.626H207.449V26.2314H209.418V36.626H211.188V41.3252H209.395ZM212.395 34.7041C212.395 33.501 212.867 32.5596 213.812 31.8799C214.766 31.2002 215.988 30.8604 217.48 30.8604H220.223V29.958C220.223 29.2158 220.027 28.6221 219.637 28.1768C219.254 27.7314 218.602 27.5088 217.68 27.5088C216.766 27.5088 216.098 27.6963 215.676 28.0713C215.262 28.4385 215.055 28.8916 215.055 29.4307V29.5361H213.086V29.3955C213.086 28.4502 213.504 27.6338 214.34 26.9463C215.176 26.251 216.305 25.9033 217.727 25.9033C219.141 25.9033 220.238 26.2393 221.02 26.9111C221.801 27.5752 222.191 28.5908 222.191 29.958V35.3838C222.191 35.8916 222.23 36.3721 222.309 36.8252C222.387 37.2705 222.496 37.665 222.637 38.0088V38.1963H220.738C220.629 38.001 220.527 37.7471 220.434 37.4346C220.348 37.1221 220.293 36.8096 220.27 36.4971C219.988 36.9971 219.527 37.4424 218.887 37.833C218.254 38.2158 217.441 38.4072 216.449 38.4072C215.301 38.4072 214.336 38.0908 213.555 37.458C212.781 36.8174 212.395 35.8994 212.395 34.7041ZM214.375 34.5986C214.375 35.3018 214.578 35.8486 214.984 36.2393C215.391 36.6221 216.016 36.8135 216.859 36.8135C217.711 36.8135 218.484 36.5205 219.18 35.9346C219.875 35.3408 220.223 34.708 220.223 34.0361V32.3018H217.715C216.605 32.3018 215.77 32.5088 215.207 32.9229C214.652 33.3369 214.375 33.8955 214.375 34.5986ZM230.91 26.2314H232.891V31.3057H238.363V26.2314H240.332V38.1963H238.363V32.876H232.891V38.1963H230.91V26.2314ZM242.934 32.3955V32.0205C242.934 30.2158 243.422 28.7471 244.398 27.6143C245.375 26.4736 246.664 25.9033 248.266 25.9033C249.875 25.9033 251.113 26.4346 251.98 27.4971C252.848 28.5518 253.281 29.9932 253.281 31.8213V32.6299H244.117V31.0361H251.289V30.8018C251.289 29.9111 251.043 29.1455 250.551 28.5049C250.059 27.8643 249.324 27.5439 248.348 27.5439C247.207 27.5439 246.352 27.9736 245.781 28.833C245.219 29.6846 244.938 30.7471 244.938 32.0205V32.3955C244.938 33.6768 245.234 34.7471 245.828 35.6064C246.43 36.458 247.344 36.8838 248.57 36.8838C249.344 36.8838 250.008 36.7197 250.562 36.3916C251.117 36.0557 251.562 35.6533 251.898 35.1846L253.188 36.2275C252.82 36.79 252.246 37.3135 251.465 37.7979C250.684 38.2822 249.723 38.5244 248.582 38.5244C246.762 38.5244 245.363 37.958 244.387 36.8252C243.418 35.6846 242.934 34.208 242.934 32.3955ZM261.238 26.2314H263.219V31.3057H268.691V26.2314H270.66V38.1963H268.691V32.876H263.219V38.1963H261.238V26.2314ZM273.309 34.7041C273.309 33.501 273.781 32.5596 274.727 31.8799C275.68 31.2002 276.902 30.8604 278.395 30.8604H281.137V29.958C281.137 29.2158 280.941 28.6221 280.551 28.1768C280.168 27.7314 279.516 27.5088 278.594 27.5088C277.68 27.5088 277.012 27.6963 276.59 28.0713C276.176 28.4385 275.969 28.8916 275.969 29.4307V29.5361H274V29.3955C274 28.4502 274.418 27.6338 275.254 26.9463C276.09 26.251 277.219 25.9033 278.641 25.9033C280.055 25.9033 281.152 26.2393 281.934 26.9111C282.715 27.5752 283.105 28.5908 283.105 29.958V35.3838C283.105 35.8916 283.145 36.3721 283.223 36.8252C283.301 37.2705 283.41 37.665 283.551 38.0088V38.1963H281.652C281.543 38.001 281.441 37.7471 281.348 37.4346C281.262 37.1221 281.207 36.8096 281.184 36.4971C280.902 36.9971 280.441 37.4424 279.801 37.833C279.168 38.2158 278.355 38.4072 277.363 38.4072C276.215 38.4072 275.25 38.0908 274.469 37.458C273.695 36.8174 273.309 35.8994 273.309 34.7041ZM275.289 34.5986C275.289 35.3018 275.492 35.8486 275.898 36.2393C276.305 36.6221 276.93 36.8135 277.773 36.8135C278.625 36.8135 279.398 36.5205 280.094 35.9346C280.789 35.3408 281.137 34.708 281.137 34.0361V32.3018H278.629C277.52 32.3018 276.684 32.5088 276.121 32.9229C275.566 33.3369 275.289 33.8955 275.289 34.5986ZM286.363 38.1963V26.2314H288.309V33.8604C288.309 34.1104 288.305 34.3682 288.297 34.6338C288.297 34.8916 288.293 35.1494 288.285 35.4072H288.391C288.5 35.1885 288.617 34.9736 288.742 34.7627C288.867 34.5518 289.008 34.3213 289.164 34.0713L293.992 26.2314H295.996V38.1963H294.051V30.5791C294.051 30.3291 294.055 30.0674 294.062 29.7939C294.078 29.5127 294.094 29.2432 294.109 28.9854H293.957C293.855 29.2041 293.742 29.4268 293.617 29.6533C293.492 29.8721 293.352 30.1104 293.195 30.3682L288.379 38.1963H286.363ZM291.191 22.7627C291.715 22.7627 292.164 22.6104 292.539 22.3057C292.914 21.9932 293.223 21.501 293.465 20.8291L295 21.7432C294.641 22.6338 294.129 23.2939 293.465 23.7236C292.809 24.1533 292.051 24.3682 291.191 24.3682C290.316 24.3682 289.555 24.1572 288.906 23.7354C288.258 23.3135 287.746 22.6494 287.371 21.7432L288.918 20.7939C289.168 21.5205 289.477 22.0322 289.844 22.3291C290.211 22.6182 290.66 22.7627 291.191 22.7627ZM308.348 41.3252V38.1963H299.559V41.3252H297.766V36.626H310.141V41.3252H308.348ZM301.914 27.8018L301.691 32.5244C301.645 33.626 301.57 34.4932 301.469 35.126C301.367 35.751 301.219 36.3096 301.023 36.8018H298.961C299.195 36.4346 299.391 35.9189 299.547 35.2549C299.703 34.583 299.812 33.5869 299.875 32.2666L300.168 26.2314H308.383V38.1963H306.402V27.8018H301.914ZM311.301 32.3955V32.0205C311.301 30.2158 311.789 28.7471 312.766 27.6143C313.742 26.4736 315.031 25.9033 316.633 25.9033C318.242 25.9033 319.48 26.4346 320.348 27.4971C321.215 28.5518 321.648 29.9932 321.648 31.8213V32.6299H312.484V31.0361H319.656V30.8018C319.656 29.9111 319.41 29.1455 318.918 28.5049C318.426 27.8643 317.691 27.5439 316.715 27.5439C315.574 27.5439 314.719 27.9736 314.148 28.833C313.586 29.6846 313.305 30.7471 313.305 32.0205V32.3955C313.305 33.6768 313.602 34.7471 314.195 35.6064C314.797 36.458 315.711 36.8838 316.938 36.8838C317.711 36.8838 318.375 36.7197 318.93 36.3916C319.484 36.0557 319.93 35.6533 320.266 35.1846L321.555 36.2275C321.188 36.79 320.613 37.3135 319.832 37.7979C319.051 38.2822 318.09 38.5244 316.949 38.5244C315.129 38.5244 313.73 37.958 312.754 36.8252C311.785 35.6846 311.301 34.208 311.301 32.3955ZM324.145 26.2314H326.125V31.3057H331.598V26.2314H333.566V38.1963H331.598V32.876H326.125V38.1963H324.145V26.2314ZM336.215 34.7041C336.215 33.501 336.688 32.5596 337.633 31.8799C338.586 31.2002 339.809 30.8604 341.301 30.8604H344.043V29.958C344.043 29.2158 343.848 28.6221 343.457 28.1768C343.074 27.7314 342.422 27.5088 341.5 27.5088C340.586 27.5088 339.918 27.6963 339.496 28.0713C339.082 28.4385 338.875 28.8916 338.875 29.4307V29.5361H336.906V29.3955C336.906 28.4502 337.324 27.6338 338.16 26.9463C338.996 26.251 340.125 25.9033 341.547 25.9033C342.961 25.9033 344.059 26.2393 344.84 26.9111C345.621 27.5752 346.012 28.5908 346.012 29.958V35.3838C346.012 35.8916 346.051 36.3721 346.129 36.8252C346.207 37.2705 346.316 37.665 346.457 38.0088V38.1963H344.559C344.449 38.001 344.348 37.7471 344.254 37.4346C344.168 37.1221 344.113 36.8096 344.09 36.4971C343.809 36.9971 343.348 37.4424 342.707 37.833C342.074 38.2158 341.262 38.4072 340.27 38.4072C339.121 38.4072 338.156 38.0908 337.375 37.458C336.602 36.8174 336.215 35.8994 336.215 34.7041ZM338.195 34.5986C338.195 35.3018 338.398 35.8486 338.805 36.2393C339.211 36.6221 339.836 36.8135 340.68 36.8135C341.531 36.8135 342.305 36.5205 343 35.9346C343.695 35.3408 344.043 34.708 344.043 34.0361V32.3018H341.535C340.426 32.3018 339.59 32.5088 339.027 32.9229C338.473 33.3369 338.195 33.8955 338.195 34.5986Z" fill="black"/>
<path d="M304.569 80.3826L330.179 54.7722C331.514 53.4373 330.569 51.1548 328.681 51.1548H303.071C301.9 51.1548 300.952 52.1035 300.952 53.2738V78.8842C300.952 80.7721 303.234 81.7175 304.569 80.3826Z" fill="#B5F602"/>
<path fill-rule="evenodd" clip-rule="evenodd" d="M139.172 84H232.184V97.2874H245.471V110.575H258.758V216.874H139.174V84H139.172ZM165.747 177.012V190.299H179.034V177.012H218.896V190.299H232.184V177.012H218.896V163.724H179.034V177.012H165.747ZM169.564 110.575V137.15H182.852V110.575H169.564ZM218.896 97.2874V123.862H245.471V110.575H232.184V97.2874H218.896ZM205.609 110.575V97.2874H152.459V203.584H245.471V137.15H205.609V110.575Z" fill="black"/>
<path fill-rule="evenodd" clip-rule="evenodd" d="M121.573 176.12H104.107V211.224H70.0399V176.12H0V142.053H17.4655V124.587H34.931V107.122H52.5701V89.6519H104.105V159.344H121.57V176.12H121.573ZM69.0003 158.654V124.587H52.5722V142.053H34.9331V158.654H69.0003Z" fill="black"/>
<path fill-rule="evenodd" clip-rule="evenodd" d="M397.928 176.12H380.462V211.224H346.395V176.12H276.357V142.053H293.823V124.587H311.288V107.122H328.927V89.6519H380.462V159.344H397.928V176.12ZM345.356 158.654V124.587H328.927V142.053H311.288V158.654H345.356Z" fill="black"/>
</svg>
