<svg width="427" height="335" viewBox="0 0 427 335" fill="none" xmlns="http://www.w3.org/2000/svg">
<path d="M260 0V216.859H216.66V260H130V216.859H86.6603V260H43.3397V216.859H0V173.333H43.3397V216.494H86.6603V0H130V130.192H216.66V0H260Z" fill="#B5F602"/>
<path d="M400.513 275.719H391.787V284.09H400.513V275.719Z" fill="black"/>
<path d="M391.788 284.09H383.064V292.464H391.788V284.09Z" fill="black"/>
<path d="M391.788 275.719H383.064V284.09H391.788V275.719Z" fill="#828282"/>
<path d="M391.788 267.345H383.064V275.719H391.788V267.345Z" fill="black"/>
<path d="M383.065 284.09H374.34V292.464H383.065V284.09Z" fill="black"/>
<path d="M383.065 275.719H374.34V284.09H383.065V275.719Z" fill="#3D3D3D"/>
<path d="M383.065 267.345H374.34V275.719H383.065V267.345Z" fill="#828282"/>
<path d="M383.065 258.974H374.34V267.345H383.065V258.974Z" fill="black"/>
<path d="M383.065 250.602H374.34V258.976H383.065V250.602Z" fill="black"/>
<path d="M374.339 275.719H365.613V284.09H374.339V275.719Z" fill="black"/>
<path d="M374.339 267.345H365.613V275.719H374.339V267.345Z" fill="#3D3D3D"/>
<path d="M374.339 258.974H365.613V267.345H374.339V258.974Z" fill="black"/>
<path d="M374.339 242.228H365.613V250.602H374.339V242.228Z" fill="black"/>
<path d="M365.61 267.345H356.887V275.719H365.61V267.345Z" fill="black"/>
<path d="M365.61 242.228H356.887V250.602H365.61V242.228Z" fill="black"/>
<path d="M356.887 292.464H348.162V300.838H356.887V292.464Z" fill="black"/>
<path d="M356.887 242.228H348.162V250.602H356.887V242.228Z" fill="black"/>
<path d="M348.163 292.464H339.439V300.838H348.163V292.464Z" fill="black"/>
<path d="M348.163 284.09H339.439V292.464H348.163V284.09Z" fill="black"/>
<path d="M348.163 233.856H339.439V242.228H348.163V233.856Z" fill="black"/>
<path d="M339.438 292.464H330.713V300.838H339.438V292.464Z" fill="black"/>
<path d="M339.438 284.09H330.713V292.464H339.438V284.09Z" fill="#828282"/>
<path d="M339.438 275.719H330.713V284.09H339.438V275.719Z" fill="black"/>
<path d="M339.438 242.228H330.713V250.602H339.438V242.228Z" fill="black"/>
<path d="M339.438 233.856H330.713V242.228H339.438V233.856Z" fill="black"/>
<path d="M339.438 225.483H330.713V233.857H339.438V225.483Z" fill="black"/>
<path d="M339.438 175.25H330.713V183.623H339.438V175.25Z" fill="black"/>
<path d="M339.438 166.878H330.713V175.25H339.438V166.878Z" fill="black"/>
<path d="M339.438 158.504H330.713V166.878H339.438V158.504Z" fill="black"/>
<path d="M339.438 150.132H330.713V158.504H339.438V150.132Z" fill="black"/>
<path d="M339.438 141.759H330.713V150.132H339.438V141.759Z" fill="black"/>
<path d="M339.438 133.387H330.713V141.761H339.438V133.387Z" fill="black"/>
<path d="M339.438 125.016H330.713V133.387H339.438V125.016Z" fill="black"/>
<path d="M339.438 116.642H330.713V125.015H339.438V116.642Z" fill="black"/>
<path d="M339.438 108.27H330.713V116.642H339.438V108.27Z" fill="black"/>
<path d="M339.438 99.8965H330.713V108.27H339.438V99.8965Z" fill="black"/>
<path d="M330.712 292.464H321.986V300.838H330.712V292.464Z" fill="black"/>
<path d="M330.712 284.09H321.986V292.464H330.712V284.09Z" fill="#3D3D3D"/>
<path d="M330.712 275.719H321.986V284.09H330.712V275.719Z" fill="#828282"/>
<path d="M330.712 267.345H321.986V275.719H330.712V267.345Z" fill="black"/>
<path d="M330.712 250.602H321.986V258.976H330.712V250.602Z" fill="black"/>
<path d="M330.712 242.228H321.986V250.602H330.712V242.228Z" fill="#828282"/>
<path d="M330.712 233.856H321.986V242.228H330.712V233.856Z" fill="#828282"/>
<path d="M330.712 225.483H321.986V233.857H330.712V225.483Z" fill="#828282"/>
<path d="M330.712 217.111H321.986V225.483H330.712V217.111Z" fill="black"/>
<path d="M330.712 183.621H321.986V191.994H330.712V183.621Z" fill="black"/>
<path d="M330.712 175.25H321.986V183.623H330.712V175.25Z" fill="#828282"/>
<path d="M330.712 166.878H321.986V175.25H330.712V166.878Z" fill="#828282"/>
<path d="M330.712 158.504H321.986V166.878H330.712V158.504Z" fill="#828282"/>
<path d="M330.712 150.132H321.986V158.504H330.712V150.132Z" fill="#828282"/>
<path d="M330.712 141.759H321.986V150.132H330.712V141.759Z" fill="#828282"/>
<path d="M330.712 133.387H321.986V141.761H330.712V133.387Z" fill="#828282"/>
<path d="M330.712 125.016H321.986V133.387H330.712V125.016Z" fill="#828282"/>
<path d="M330.712 116.642H321.986V125.015H330.712V116.642Z" fill="#828282"/>
<path d="M330.712 108.27H321.986V116.642H330.712V108.27Z" fill="#828282"/>
<path d="M330.712 99.8965H321.986V108.27H330.712V99.8965Z" fill="#828282"/>
<path d="M330.712 91.5249H321.986V99.8986H330.712V91.5249Z" fill="black"/>
<path d="M321.987 292.464H313.264V300.838H321.987V292.464Z" fill="black"/>
<path d="M321.987 284.09H313.264V292.464H321.987V284.09Z" fill="#515151"/>
<path d="M321.987 275.719H313.264V284.09H321.987V275.719Z" fill="#515151"/>
<path d="M321.987 267.345H313.264V275.719H321.987V267.345Z" fill="black"/>
<path d="M321.987 250.602H313.264V258.976H321.987V250.602Z" fill="black"/>
<path d="M321.987 242.228H313.264V250.602H321.987V242.228Z" fill="#828282"/>
<path d="M321.987 233.856H313.264V242.228H321.987V233.856Z" fill="#828282"/>
<path d="M321.987 225.483H313.264V233.857H321.987V225.483Z" fill="#828282"/>
<path d="M321.987 217.111H313.264V225.483H321.987V217.111Z" fill="black"/>
<path d="M321.987 183.621H313.264V191.994H321.987V183.621Z" fill="black"/>
<path d="M321.987 175.25H313.264V183.623H321.987V175.25Z" fill="#828282"/>
<path d="M321.987 166.878H313.264V175.25H321.987V166.878Z" fill="#828282"/>
<path d="M321.987 158.504H313.264V166.878H321.987V158.504Z" fill="#828282"/>
<path d="M321.987 150.132H313.264V158.504H321.987V150.132Z" fill="#828282"/>
<path d="M321.987 141.759H313.264V150.132H321.987V141.759Z" fill="#828282"/>
<path d="M321.987 133.387H313.264V141.761H321.987V133.387Z" fill="#828282"/>
<path d="M321.987 125.016H313.264V133.387H321.987V125.016Z" fill="#828282"/>
<path d="M321.987 116.642H313.264V125.015H321.987V116.642Z" fill="#828282"/>
<path d="M321.987 108.27H313.264V116.642H321.987V108.27Z" fill="#828282"/>
<path d="M321.987 99.8965H313.264V108.27H321.987V99.8965Z" fill="#828282"/>
<path d="M321.987 91.5249H313.264V99.8986H321.987V91.5249Z" fill="black"/>
<path d="M313.262 292.464H304.537V300.838H313.262V292.464Z" fill="black"/>
<path d="M313.262 284.09H304.537V292.464H313.262V284.09Z" fill="#828282"/>
<path d="M313.262 275.719H304.537V284.09H313.262V275.719Z" fill="#3D3D3D"/>
<path d="M313.262 267.345H304.537V275.719H313.262V267.345Z" fill="black"/>
<path d="M313.262 250.602H304.537V258.976H313.262V250.602Z" fill="black"/>
<path d="M313.262 242.228H304.537V250.602H313.262V242.228Z" fill="#828282"/>
<path d="M313.262 233.856H304.537V242.228H313.262V233.856Z" fill="#B5F602"/>
<path d="M313.262 225.483H304.537V233.857H313.262V225.483Z" fill="#828282"/>
<path d="M313.262 217.111H304.537V225.483H313.262V217.111Z" fill="black"/>
<path d="M313.262 208.74H304.537V217.113H313.262V208.74Z" fill="black"/>
<path d="M313.262 183.621H304.537V191.994H313.262V183.621Z" fill="black"/>
<path d="M313.262 175.25H304.537V183.623H313.262V175.25Z" fill="#828282"/>
<path d="M313.262 166.878H304.537V175.25H313.262V166.878Z" fill="#CBCBCB"/>
<path d="M313.262 158.504H304.537V166.878H313.262V158.504Z" fill="#CBCBCB"/>
<path d="M313.262 150.132H304.537V158.504H313.262V150.132Z" fill="#CBCBCB"/>
<path d="M313.262 141.759H304.537V150.132H313.262V141.759Z" fill="#CBCBCB"/>
<path d="M313.262 133.387H304.537V141.761H313.262V133.387Z" fill="#CBCBCB"/>
<path d="M313.262 125.016H304.537V133.387H313.262V125.016Z" fill="#CBCBCB"/>
<path d="M313.262 116.642H304.537V125.015H313.262V116.642Z" fill="#CBCBCB"/>
<path d="M313.262 108.27H304.537V116.642H313.262V108.27Z" fill="#CBCBCB"/>
<path d="M313.262 99.8965H304.537V108.27H313.262V99.8965Z" fill="#828282"/>
<path d="M313.262 91.5249H304.537V99.8986H313.262V91.5249Z" fill="black"/>
<path d="M304.536 292.464H295.812V300.838H304.536V292.464Z" fill="black"/>
<path d="M304.536 284.09H295.812V292.464H304.536V284.09Z" fill="#3D3D3D"/>
<path d="M304.536 275.719H295.812V284.09H304.536V275.719Z" fill="#828282"/>
<path d="M304.536 267.345H295.812V275.719H304.536V267.345Z" fill="black"/>
<path d="M304.536 250.602H295.812V258.976H304.536V250.602Z" fill="black"/>
<path d="M304.536 242.228H295.812V250.602H304.536V242.228Z" fill="#515151"/>
<path d="M304.536 233.856H295.812V242.228H304.536V233.856Z" fill="#828282"/>
<path d="M304.536 225.483H295.812V233.857H304.536V225.483Z" fill="#828282"/>
<path d="M304.536 217.111H295.812V225.483H304.536V217.111Z" fill="black"/>
<path d="M304.536 208.74H295.812V217.113H304.536V208.74Z" fill="#828282"/>
<path d="M304.536 200.366H295.812V208.74H304.536V200.366Z" fill="black"/>
<path d="M304.536 183.621H295.812V191.994H304.536V183.621Z" fill="black"/>
<path d="M304.536 175.25H295.812V183.623H304.536V175.25Z" fill="#515151"/>
<path d="M304.536 166.878H295.812V175.25H304.536V166.878Z" fill="#CBCBCB"/>
<path d="M304.536 158.504H295.812V166.878H304.536V158.504Z" fill="#878787"/>
<path d="M304.536 150.132H295.812V158.504H304.536V150.132Z" fill="#CBCBCB"/>
<path d="M304.536 141.759H295.812V150.132H304.536V141.759Z" fill="#CBCBCB"/>
<path d="M304.536 133.387H295.812V141.761H304.536V133.387Z" fill="#CBCBCB"/>
<path d="M304.536 125.016H295.812V133.387H304.536V125.016Z" fill="#CBCBCB"/>
<path d="M304.536 116.642H295.812V125.015H304.536V116.642Z" fill="#878787"/>
<path d="M304.536 108.27H295.812V116.642H304.536V108.27Z" fill="#CBCBCB"/>
<path d="M304.536 99.8965H295.812V108.27H304.536V99.8965Z" fill="#828282"/>
<path d="M304.536 91.5249H295.812V99.8986H304.536V91.5249Z" fill="black"/>
<path d="M295.813 292.464H287.088V300.838H295.813V292.464Z" fill="black"/>
<path d="M295.813 284.09H287.088V292.464H295.813V284.09Z" fill="#828282"/>
<path d="M295.813 275.719H287.088V284.09H295.813V275.719Z" fill="#3D3D3D"/>
<path d="M295.813 267.345H287.088V275.719H295.813V267.345Z" fill="black"/>
<path d="M295.813 250.602H287.088V258.976H295.813V250.602Z" fill="black"/>
<path d="M295.813 242.228H287.088V250.602H295.813V242.228Z" fill="#515151"/>
<path d="M295.813 233.856H287.088V242.228H295.813V233.856Z" fill="#515151"/>
<path d="M295.813 225.483H287.088V233.857H295.813V225.483Z" fill="#828282"/>
<path d="M295.813 217.111H287.088V225.483H295.813V217.111Z" fill="black"/>
<path d="M295.813 208.74H287.088V217.113H295.813V208.74Z" fill="#515151"/>
<path d="M295.813 200.366H287.088V208.74H295.813V200.366Z" fill="black"/>
<path d="M295.813 183.621H287.088V191.994H295.813V183.621Z" fill="black"/>
<path d="M295.813 175.25H287.088V183.623H295.813V175.25Z" fill="#515151"/>
<path d="M295.813 166.878H287.088V175.25H295.813V166.878Z" fill="#CBCBCB"/>
<path d="M295.813 158.504H287.088V166.878H295.813V158.504Z" fill="#CBCBCB"/>
<path d="M295.813 150.132H287.088V158.504H295.813V150.132Z" fill="#CBCBCB"/>
<path d="M295.813 141.759H287.088V150.132H295.813V141.759Z" fill="#878787"/>
<path d="M295.813 133.387H287.088V141.761H295.813V133.387Z" fill="#CBCBCB"/>
<path d="M295.813 125.016H287.088V133.387H295.813V125.016Z" fill="#CBCBCB"/>
<path d="M295.813 116.642H287.088V125.015H295.813V116.642Z" fill="#878787"/>
<path d="M295.813 108.27H287.088V116.642H295.813V108.27Z" fill="#CBCBCB"/>
<path d="M295.813 99.8965H287.088V108.27H295.813V99.8965Z" fill="#828282"/>
<path d="M295.813 91.5249H287.088V99.8986H295.813V91.5249Z" fill="black"/>
<path d="M287.087 292.464H278.361V300.838H287.087V292.464Z" fill="black"/>
<path d="M287.087 284.09H278.361V292.464H287.087V284.09Z" fill="#515151"/>
<path d="M287.087 275.719H278.361V284.09H287.087V275.719Z" fill="#828282"/>
<path d="M287.087 267.345H278.361V275.719H287.087V267.345Z" fill="black"/>
<path d="M287.087 250.602H278.361V258.976H287.087V250.602Z" fill="black"/>
<path d="M287.087 242.228H278.361V250.602H287.087V242.228Z" fill="#515151"/>
<path d="M287.087 233.856H278.361V242.228H287.087V233.856Z" fill="#9E9E9E"/>
<path d="M287.087 225.483H278.361V233.857H287.087V225.483Z" fill="#515151"/>
<path d="M287.087 217.111H278.361V225.483H287.087V217.111Z" fill="black"/>
<path d="M287.087 208.74H278.361V217.113H287.087V208.74Z" fill="#515151"/>
<path d="M287.087 200.366H278.361V208.74H287.087V200.366Z" fill="black"/>
<path d="M287.087 183.621H278.361V191.994H287.087V183.621Z" fill="black"/>
<path d="M287.087 175.25H278.361V183.623H287.087V175.25Z" fill="#515151"/>
<path d="M287.087 166.878H278.361V175.25H287.087V166.878Z" fill="#CBCBCB"/>
<path d="M287.087 158.504H278.361V166.878H287.087V158.504Z" fill="#CBCBCB"/>
<path d="M287.087 150.132H278.361V158.504H287.087V150.132Z" fill="#CBCBCB"/>
<path d="M287.087 141.759H278.361V150.132H287.087V141.759Z" fill="#878787"/>
<path d="M287.087 133.387H278.361V141.761H287.087V133.387Z" fill="#CBCBCB"/>
<path d="M287.087 125.016H278.361V133.387H287.087V125.016Z" fill="#CBCBCB"/>
<path d="M287.087 116.642H278.361V125.015H287.087V116.642Z" fill="#878787"/>
<path d="M287.087 108.27H278.361V116.642H287.087V108.27Z" fill="#CBCBCB"/>
<path d="M287.087 99.8965H278.361V108.27H287.087V99.8965Z" fill="#828282"/>
<path d="M287.087 91.5249H278.361V99.8986H287.087V91.5249Z" fill="black"/>
<path d="M278.362 292.464H269.639V300.838H278.362V292.464Z" fill="black"/>
<path d="M278.362 284.09H269.639V292.464H278.362V284.09Z" fill="#828282"/>
<path d="M278.362 275.719H269.639V284.09H278.362V275.719Z" fill="#3D3D3D"/>
<path d="M278.362 267.345H269.639V275.719H278.362V267.345Z" fill="black"/>
<path d="M278.362 250.602H269.639V258.976H278.362V250.602Z" fill="black"/>
<path d="M278.362 242.228H269.639V250.602H278.362V242.228Z" fill="#515151"/>
<path d="M278.362 233.856H269.639V242.228H278.362V233.856Z" fill="#9E9E9E"/>
<path d="M278.362 225.483H269.639V233.857H278.362V225.483Z" fill="#515151"/>
<path d="M278.362 217.111H269.639V225.483H278.362V217.111Z" fill="black"/>
<path d="M278.362 208.74H269.639V217.113H278.362V208.74Z" fill="#515151"/>
<path d="M278.362 200.366H269.639V208.74H278.362V200.366Z" fill="black"/>
<path d="M278.362 191.995H269.639V200.366H278.362V191.995Z" fill="black"/>
<path d="M278.362 183.621H269.639V191.994H278.362V183.621Z" fill="black"/>
<path d="M278.362 175.25H269.639V183.623H278.362V175.25Z" fill="#515151"/>
<path d="M278.362 166.878H269.639V175.25H278.362V166.878Z" fill="#CBCBCB"/>
<path d="M278.362 158.504H269.639V166.878H278.362V158.504Z" fill="#CBCBCB"/>
<path d="M278.362 150.132H269.639V158.504H278.362V150.132Z" fill="#CBCBCB"/>
<path d="M278.362 141.759H269.639V150.132H278.362V141.759Z" fill="#878787"/>
<path d="M278.362 133.387H269.639V141.761H278.362V133.387Z" fill="#CBCBCB"/>
<path d="M278.362 125.016H269.639V133.387H278.362V125.016Z" fill="#CBCBCB"/>
<path d="M278.362 116.642H269.639V125.015H278.362V116.642Z" fill="#CBCBCB"/>
<path d="M278.362 108.27H269.639V116.642H278.362V108.27Z" fill="#CBCBCB"/>
<path d="M278.362 99.8965H269.639V108.27H278.362V99.8965Z" fill="#828282"/>
<path d="M278.362 91.5249H269.639V99.8986H278.362V91.5249Z" fill="black"/>
<path d="M269.636 292.464H260.91V300.838H269.636V292.464Z" fill="black"/>
<path d="M269.636 284.09H260.91V292.464H269.636V284.09Z" fill="#3D3D3D"/>
<path d="M269.636 275.719H260.91V284.09H269.636V275.719Z" fill="#515151"/>
<path d="M269.636 267.345H260.91V275.719H269.636V267.345Z" fill="black"/>
<path d="M269.636 250.602H260.91V258.976H269.636V250.602Z" fill="black"/>
<path d="M269.636 242.228H260.91V250.602H269.636V242.228Z" fill="#3D3D3D"/>
<path d="M269.636 233.856H260.91V242.228H269.636V233.856Z" fill="#9E9E9E"/>
<path d="M269.636 225.483H260.91V233.857H269.636V225.483Z" fill="#515151"/>
<path d="M269.636 217.111H260.91V225.483H269.636V217.111Z" fill="black"/>
<path d="M269.636 208.74H260.91V217.113H269.636V208.74Z" fill="#3D3D3D"/>
<path d="M269.636 200.366H260.91V208.74H269.636V200.366Z" fill="black"/>
<path d="M269.636 191.995H260.91V200.366H269.636V191.995Z" fill="#3D3D3D"/>
<path d="M269.636 183.621H260.91V191.994H269.636V183.621Z" fill="black"/>
<path d="M269.636 175.25H260.91V183.623H269.636V175.25Z" fill="#515151"/>
<path d="M269.636 166.878H260.91V175.25H269.636V166.878Z" fill="#CBCBCB"/>
<path d="M269.636 158.504H260.91V166.878H269.636V158.504Z" fill="#CBCBCB"/>
<path d="M269.636 150.132H260.91V158.504H269.636V150.132Z" fill="#CBCBCB"/>
<path d="M269.636 141.759H260.91V150.132H269.636V141.759Z" fill="#878787"/>
<path d="M269.636 133.387H260.91V141.761H269.636V133.387Z" fill="#CBCBCB"/>
<path d="M269.636 125.016H260.91V133.387H269.636V125.016Z" fill="#878787"/>
<path d="M269.636 116.642H260.91V125.015H269.636V116.642Z" fill="#CBCBCB"/>
<path d="M269.636 108.27H260.91V116.642H269.636V108.27Z" fill="#CBCBCB"/>
<path d="M269.636 99.8965H260.91V108.27H269.636V99.8965Z" fill="#515151"/>
<path d="M269.636 91.5249H260.91V99.8986H269.636V91.5249Z" fill="black"/>
<path d="M260.911 292.464H252.186V300.838H260.911V292.464Z" fill="black"/>
<path d="M260.911 284.09H252.186V292.464H260.911V284.09Z" fill="#3D3D3D"/>
<path d="M260.911 275.719H252.186V284.09H260.911V275.719Z" fill="#828282"/>
<path d="M260.911 267.345H252.186V275.719H260.911V267.345Z" fill="black"/>
<path d="M260.911 250.602H252.186V258.976H260.911V250.602Z" fill="black"/>
<path d="M260.911 242.228H252.186V250.602H260.911V242.228Z" fill="#3D3D3D"/>
<path d="M260.911 233.856H252.186V242.228H260.911V233.856Z" fill="#9E9E9E"/>
<path d="M260.911 225.483H252.186V233.857H260.911V225.483Z" fill="#515151"/>
<path d="M260.911 217.111H252.186V225.483H260.911V217.111Z" fill="black"/>
<path d="M260.911 208.74H252.186V217.113H260.911V208.74Z" fill="#3D3D3D"/>
<path d="M260.911 200.366H252.186V208.74H260.911V200.366Z" fill="black"/>
<path d="M260.911 191.995H252.186V200.366H260.911V191.995Z" fill="black"/>
<path d="M260.911 183.621H252.186V191.994H260.911V183.621Z" fill="black"/>
<path d="M260.911 175.25H252.186V183.623H260.911V175.25Z" fill="#515151"/>
<path d="M260.911 166.878H252.186V175.25H260.911V166.878Z" fill="#CBCBCB"/>
<path d="M260.911 158.504H252.186V166.878H260.911V158.504Z" fill="#CBCBCB"/>
<path d="M260.911 150.132H252.186V158.504H260.911V150.132Z" fill="#CBCBCB"/>
<path d="M260.911 141.759H252.186V150.132H260.911V141.759Z" fill="#878787"/>
<path d="M260.911 133.387H252.186V141.761H260.911V133.387Z" fill="#CBCBCB"/>
<path d="M260.911 125.016H252.186V133.387H260.911V125.016Z" fill="#878787"/>
<path d="M260.911 116.642H252.186V125.015H260.911V116.642Z" fill="#CBCBCB"/>
<path d="M260.911 108.27H252.186V116.642H260.911V108.27Z" fill="#CBCBCB"/>
<path d="M260.911 99.8965H252.186V108.27H260.911V99.8965Z" fill="#515151"/>
<path d="M260.911 91.5249H252.186V99.8986H260.911V91.5249Z" fill="black"/>
<path d="M252.186 292.464H243.463V300.838H252.186V292.464Z" fill="black"/>
<path d="M252.186 284.09H243.463V292.464H252.186V284.09Z" fill="#3D3D3D"/>
<path d="M252.186 275.719H243.463V284.09H252.186V275.719Z" fill="#3D3D3D"/>
<path d="M252.186 267.345H243.463V275.719H252.186V267.345Z" fill="black"/>
<path d="M252.186 250.602H243.463V258.976H252.186V250.602Z" fill="black"/>
<path d="M252.186 242.228H243.463V250.602H252.186V242.228Z" fill="#3D3D3D"/>
<path d="M252.186 233.856H243.463V242.228H252.186V233.856Z" fill="#9E9E9E"/>
<path d="M252.186 225.483H243.463V233.857H252.186V225.483Z" fill="#515151"/>
<path d="M252.186 217.111H243.463V225.483H252.186V217.111Z" fill="black"/>
<path d="M252.186 208.74H243.463V217.113H252.186V208.74Z" fill="#3D3D3D"/>
<path d="M252.186 200.366H243.463V208.74H252.186V200.366Z" fill="black"/>
<path d="M252.186 183.621H243.463V191.994H252.186V183.621Z" fill="black"/>
<path d="M252.186 175.25H243.463V183.623H252.186V175.25Z" fill="#515151"/>
<path d="M252.186 166.878H243.463V175.25H252.186V166.878Z" fill="#CBCBCB"/>
<path d="M252.186 158.504H243.463V166.878H252.186V158.504Z" fill="#CBCBCB"/>
<path d="M252.186 150.132H243.463V158.504H252.186V150.132Z" fill="#CBCBCB"/>
<path d="M252.186 141.759H243.463V150.132H252.186V141.759Z" fill="#878787"/>
<path d="M252.186 133.387H243.463V141.761H252.186V133.387Z" fill="#CBCBCB"/>
<path d="M252.186 125.016H243.463V133.387H252.186V125.016Z" fill="#878787"/>
<path d="M252.186 116.642H243.463V125.015H252.186V116.642Z" fill="#CBCBCB"/>
<path d="M252.186 108.27H243.463V116.642H252.186V108.27Z" fill="#CBCBCB"/>
<path d="M252.186 99.8965H243.463V108.27H252.186V99.8965Z" fill="#515151"/>
<path d="M252.186 91.5249H243.463V99.8986H252.186V91.5249Z" fill="black"/>
<path d="M243.462 292.464H234.736V300.838H243.462V292.464Z" fill="black"/>
<path d="M243.462 284.09H234.736V292.464H243.462V284.09Z" fill="#3D3D3D"/>
<path d="M243.462 275.719H234.736V284.09H243.462V275.719Z" fill="#828282"/>
<path d="M243.462 267.345H234.736V275.719H243.462V267.345Z" fill="black"/>
<path d="M243.462 250.602H234.736V258.976H243.462V250.602Z" fill="black"/>
<path d="M243.462 242.228H234.736V250.602H243.462V242.228Z" fill="#3D3D3D"/>
<path d="M243.462 233.856H234.736V242.228H243.462V233.856Z" fill="#9E9E9E"/>
<path d="M243.462 225.483H234.736V233.857H243.462V225.483Z" fill="#515151"/>
<path d="M243.462 217.111H234.736V225.483H243.462V217.111Z" fill="black"/>
<path d="M243.462 208.74H234.736V217.113H243.462V208.74Z" fill="#3D3D3D"/>
<path d="M243.462 200.366H234.736V208.74H243.462V200.366Z" fill="black"/>
<path d="M243.462 183.621H234.736V191.994H243.462V183.621Z" fill="black"/>
<path d="M243.462 175.25H234.736V183.623H243.462V175.25Z" fill="#3D3D3D"/>
<path d="M243.462 166.878H234.736V175.25H243.462V166.878Z" fill="#CBCBCB"/>
<path d="M243.462 158.504H234.736V166.878H243.462V158.504Z" fill="#878787"/>
<path d="M243.462 150.132H234.736V158.504H243.462V150.132Z" fill="#CBCBCB"/>
<path d="M243.462 141.759H234.736V150.132H243.462V141.759Z" fill="#878787"/>
<path d="M243.462 133.387H234.736V141.761H243.462V133.387Z" fill="#CBCBCB"/>
<path d="M243.462 125.016H234.736V133.387H243.462V125.016Z" fill="#878787"/>
<path d="M243.462 116.642H234.736V125.015H243.462V116.642Z" fill="#CBCBCB"/>
<path d="M243.462 108.27H234.736V116.642H243.462V108.27Z" fill="#CBCBCB"/>
<path d="M243.462 99.8965H234.736V108.27H243.462V99.8965Z" fill="#515151"/>
<path d="M243.462 91.5249H234.736V99.8986H243.462V91.5249Z" fill="black"/>
<path d="M234.735 292.464H226.012V300.838H234.735V292.464Z" fill="black"/>
<path d="M234.735 284.09H226.012V292.464H234.735V284.09Z" fill="#3D3D3D"/>
<path d="M234.735 275.719H226.012V284.09H234.735V275.719Z" fill="#3D3D3D"/>
<path d="M234.735 267.345H226.012V275.719H234.735V267.345Z" fill="black"/>
<path d="M234.735 250.602H226.012V258.976H234.735V250.602Z" fill="black"/>
<path d="M234.735 242.228H226.012V250.602H234.735V242.228Z" fill="#3D3D3D"/>
<path d="M234.735 233.856H226.012V242.228H234.735V233.856Z" fill="#9E9E9E"/>
<path d="M234.735 225.483H226.012V233.857H234.735V225.483Z" fill="#515151"/>
<path d="M234.735 217.111H226.012V225.483H234.735V217.111Z" fill="black"/>
<path d="M234.735 208.74H226.012V217.113H234.735V208.74Z" fill="#3D3D3D"/>
<path d="M234.735 200.366H226.012V208.74H234.735V200.366Z" fill="black"/>
<path d="M234.735 183.621H226.012V191.994H234.735V183.621Z" fill="black"/>
<path d="M234.735 175.25H226.012V183.623H234.735V175.25Z" fill="#B5F602"/>
<path d="M234.735 166.878H226.012V175.25H234.735V166.878Z" fill="#CBCBCB"/>
<path d="M234.735 158.504H226.012V166.878H234.735V158.504Z" fill="#878787"/>
<path d="M234.735 150.132H226.012V158.504H234.735V150.132Z" fill="#CBCBCB"/>
<path d="M234.735 141.759H226.012V150.132H234.735V141.759Z" fill="#878787"/>
<path d="M234.735 133.387H226.012V141.761H234.735V133.387Z" fill="#CBCBCB"/>
<path d="M234.735 125.016H226.012V133.387H234.735V125.016Z" fill="#878787"/>
<path d="M234.735 116.642H226.012V125.015H234.735V116.642Z" fill="#CBCBCB"/>
<path d="M234.735 108.27H226.012V116.642H234.735V108.27Z" fill="#CBCBCB"/>
<path d="M234.735 99.8965H226.012V108.27H234.735V99.8965Z" fill="#515151"/>
<path d="M234.735 91.5249H226.012V99.8986H234.735V91.5249Z" fill="black"/>
<path d="M226.012 292.464H217.287V300.838H226.012V292.464Z" fill="black"/>
<path d="M226.012 284.09H217.287V292.464H226.012V284.09Z" fill="#3D3D3D"/>
<path d="M226.012 275.719H217.287V284.09H226.012V275.719Z" fill="#515151"/>
<path d="M226.012 267.345H217.287V275.719H226.012V267.345Z" fill="black"/>
<path d="M226.012 250.602H217.287V258.976H226.012V250.602Z" fill="black"/>
<path d="M226.012 242.228H217.287V250.602H226.012V242.228Z" fill="#3D3D3D"/>
<path d="M226.012 233.856H217.287V242.228H226.012V233.856Z" fill="#9E9E9E"/>
<path d="M226.012 225.483H217.287V233.857H226.012V225.483Z" fill="#3D3D3D"/>
<path d="M226.012 217.111H217.287V225.483H226.012V217.111Z" fill="black"/>
<path d="M226.012 208.74H217.287V217.113H226.012V208.74Z" fill="black"/>
<path d="M226.012 183.621H217.287V191.994H226.012V183.621Z" fill="black"/>
<path d="M226.012 175.25H217.287V183.623H226.012V175.25Z" fill="#3D3D3D"/>
<path d="M226.012 166.878H217.287V175.25H226.012V166.878Z" fill="#CBCBCB"/>
<path d="M226.012 158.504H217.287V166.878H226.012V158.504Z" fill="#CBCBCB"/>
<path d="M226.012 150.132H217.287V158.504H226.012V150.132Z" fill="#CBCBCB"/>
<path d="M226.012 141.759H217.287V150.132H226.012V141.759Z" fill="#CBCBCB"/>
<path d="M226.012 133.387H217.287V141.761H226.012V133.387Z" fill="#CBCBCB"/>
<path d="M226.012 125.016H217.287V133.387H226.012V125.016Z" fill="#CBCBCB"/>
<path d="M226.012 116.642H217.287V125.015H226.012V116.642Z" fill="#CBCBCB"/>
<path d="M226.012 108.27H217.287V116.642H226.012V108.27Z" fill="#CBCBCB"/>
<path d="M226.012 99.8965H217.287V108.27H226.012V99.8965Z" fill="#3D3D3D"/>
<path d="M226.012 91.5249H217.287V99.8986H226.012V91.5249Z" fill="black"/>
<path d="M217.286 292.464H208.561V300.838H217.286V292.464Z" fill="black"/>
<path d="M217.286 284.09H208.561V292.464H217.286V284.09Z" fill="#515151"/>
<path d="M217.286 275.719H208.561V284.09H217.286V275.719Z" fill="#828282"/>
<path d="M217.286 267.345H208.561V275.719H217.286V267.345Z" fill="black"/>
<path d="M217.286 250.602H208.561V258.976H217.286V250.602Z" fill="black"/>
<path d="M217.286 242.228H208.561V250.602H217.286V242.228Z" fill="#3D3D3D"/>
<path d="M217.286 233.856H208.561V242.228H217.286V233.856Z" fill="#9E9E9E"/>
<path d="M217.286 225.483H208.561V233.857H217.286V225.483Z" fill="#3D3D3D"/>
<path d="M217.286 217.111H208.561V225.483H217.286V217.111Z" fill="black"/>
<path d="M217.286 183.621H208.561V191.994H217.286V183.621Z" fill="black"/>
<path d="M217.286 175.25H208.561V183.623H217.286V175.25Z" fill="#3D3D3D"/>
<path d="M217.286 166.878H208.561V175.25H217.286V166.878Z" fill="#3D3D3D"/>
<path d="M217.286 158.504H208.561V166.878H217.286V158.504Z" fill="#3D3D3D"/>
<path d="M217.286 150.132H208.561V158.504H217.286V150.132Z" fill="#3D3D3D"/>
<path d="M217.286 141.759H208.561V150.132H217.286V141.759Z" fill="#3D3D3D"/>
<path d="M217.286 133.387H208.561V141.761H217.286V133.387Z" fill="#3D3D3D"/>
<path d="M217.286 125.016H208.561V133.387H217.286V125.016Z" fill="#3D3D3D"/>
<path d="M217.286 116.642H208.561V125.015H217.286V116.642Z" fill="#3D3D3D"/>
<path d="M217.286 108.27H208.561V116.642H217.286V108.27Z" fill="#3D3D3D"/>
<path d="M217.286 99.8965H208.561V108.27H217.286V99.8965Z" fill="#3D3D3D"/>
<path d="M217.286 91.5249H208.561V99.8986H217.286V91.5249Z" fill="black"/>
<path d="M208.561 292.464H199.838V300.838H208.561V292.464Z" fill="black"/>
<path d="M208.561 284.09H199.838V292.464H208.561V284.09Z" fill="#828282"/>
<path d="M208.561 275.719H199.838V284.09H208.561V275.719Z" fill="#515151"/>
<path d="M208.561 267.345H199.838V275.719H208.561V267.345Z" fill="black"/>
<path d="M208.561 250.602H199.838V258.976H208.561V250.602Z" fill="black"/>
<path d="M208.561 242.228H199.838V250.602H208.561V242.228Z" fill="#3D3D3D"/>
<path d="M208.561 233.856H199.838V242.228H208.561V233.856Z" fill="#3D3D3D"/>
<path d="M208.561 225.483H199.838V233.857H208.561V225.483Z" fill="#3D3D3D"/>
<path d="M208.561 217.111H199.838V225.483H208.561V217.111Z" fill="black"/>
<path d="M208.561 183.621H199.838V191.994H208.561V183.621Z" fill="black"/>
<path d="M208.561 175.25H199.838V183.623H208.561V175.25Z" fill="#3D3D3D"/>
<path d="M208.561 166.878H199.838V175.25H208.561V166.878Z" fill="#3D3D3D"/>
<path d="M208.561 158.504H199.838V166.878H208.561V158.504Z" fill="#3D3D3D"/>
<path d="M208.561 150.132H199.838V158.504H208.561V150.132Z" fill="#3D3D3D"/>
<path d="M208.561 141.759H199.838V150.132H208.561V141.759Z" fill="#3D3D3D"/>
<path d="M208.561 133.387H199.838V141.761H208.561V133.387Z" fill="#3D3D3D"/>
<path d="M208.561 125.016H199.838V133.387H208.561V125.016Z" fill="#3D3D3D"/>
<path d="M208.561 116.642H199.838V125.015H208.561V116.642Z" fill="#3D3D3D"/>
<path d="M208.561 108.27H199.838V116.642H208.561V108.27Z" fill="#3D3D3D"/>
<path d="M208.561 99.8965H199.838V108.27H208.561V99.8965Z" fill="#3D3D3D"/>
<path d="M208.561 91.5249H199.838V99.8986H208.561V91.5249Z" fill="black"/>
<path d="M199.835 292.464H191.109V300.838H199.835V292.464Z" fill="black"/>
<path d="M199.835 284.09H191.109V292.464H199.835V284.09Z" fill="#828282"/>
<path d="M199.835 275.719H191.109V284.09H199.835V275.719Z" fill="black"/>
<path d="M199.835 242.228H191.109V250.602H199.835V242.228Z" fill="black"/>
<path d="M199.835 233.856H191.109V242.228H199.835V233.856Z" fill="black"/>
<path d="M199.835 225.483H191.109V233.857H199.835V225.483Z" fill="black"/>
<path d="M199.835 175.25H191.109V183.623H199.835V175.25Z" fill="black"/>
<path d="M199.835 166.878H191.109V175.25H199.835V166.878Z" fill="black"/>
<path d="M199.835 158.504H191.109V166.878H199.835V158.504Z" fill="black"/>
<path d="M199.835 150.132H191.109V158.504H199.835V150.132Z" fill="black"/>
<path d="M199.835 141.759H191.109V150.132H199.835V141.759Z" fill="black"/>
<path d="M199.835 133.387H191.109V141.761H199.835V133.387Z" fill="black"/>
<path d="M199.835 125.016H191.109V133.387H199.835V125.016Z" fill="black"/>
<path d="M199.835 116.642H191.109V125.015H199.835V116.642Z" fill="black"/>
<path d="M199.835 108.27H191.109V116.642H199.835V108.27Z" fill="black"/>
<path d="M199.835 99.8965H191.109V108.27H199.835V99.8965Z" fill="black"/>
<path d="M191.11 292.464H182.387V300.838H191.11V292.464Z" fill="black"/>
<path d="M191.11 284.09H182.387V292.464H191.11V284.09Z" fill="black"/>
<path d="M191.11 250.602H182.387V258.976H191.11V250.602Z" fill="black"/>
<path d="M182.386 292.464H173.66V300.838H182.386V292.464Z" fill="black"/>
<path d="M182.386 275.719H173.66V284.09H182.386V275.719Z" fill="black"/>
<path d="M182.386 250.602H173.66V258.976H182.386V250.602Z" fill="black"/>
<path d="M173.661 267.345H164.936V275.719H173.661V267.345Z" fill="black"/>
<path d="M173.661 258.974H164.936V267.345H173.661V258.974Z" fill="black"/>
<rect y="7" width="426.095" height="60.3929" rx="30.1964" fill="black"/>
<path d="M28.8242 37.1807V36.1494C28.8242 33.4541 29.4688 31.3916 30.7578 29.9619C32.0469 28.5244 33.6719 27.8057 35.6328 27.8057C37.6016 27.8057 39.1328 28.3447 40.2266 29.4229C41.3203 30.501 41.8672 31.8408 41.8672 33.4424V33.6064H39.8164V33.4424C39.8164 32.2783 39.4688 31.3408 38.7734 30.6299C38.0859 29.9111 37.0391 29.5518 35.6328 29.5518C34.2188 29.5518 33.0703 30.0947 32.1875 31.1807C31.3125 32.2588 30.875 33.915 30.875 36.1494V37.1807C30.875 39.2744 31.3164 40.8994 32.1992 42.0557C33.0898 43.2041 34.2422 43.7783 35.6562 43.7783C36.9844 43.7783 37.9883 43.4189 38.668 42.7002C39.3477 41.9814 39.7305 41.0439 39.8164 39.8877V39.7236H41.8672L41.8555 39.9111C41.7305 41.4893 41.1523 42.8213 40.1211 43.9072C39.0977 44.9854 37.6016 45.5244 35.6328 45.5244C33.6328 45.5244 31.9961 44.8057 30.7227 43.3682C29.457 41.9229 28.8242 39.8604 28.8242 37.1807ZM43.7305 41.7041C43.7305 40.501 44.2031 39.5596 45.1484 38.8799C46.1016 38.2002 47.3242 37.8604 48.8164 37.8604H51.5586V36.958C51.5586 36.2158 51.3633 35.6221 50.9727 35.1768C50.5898 34.7314 49.9375 34.5088 49.0156 34.5088C48.1016 34.5088 47.4336 34.6963 47.0117 35.0713C46.5977 35.4385 46.3906 35.8916 46.3906 36.4307V36.5361H44.4219V36.3955C44.4219 35.4502 44.8398 34.6338 45.6758 33.9463C46.5117 33.251 47.6406 32.9033 49.0625 32.9033C50.4766 32.9033 51.5742 33.2393 52.3555 33.9111C53.1367 34.5752 53.5273 35.5908 53.5273 36.958V42.3838C53.5273 42.8916 53.5664 43.3721 53.6445 43.8252C53.7227 44.2705 53.832 44.665 53.9727 45.0088V45.1963H52.0742C51.9648 45.001 51.8633 44.7471 51.7695 44.4346C51.6836 44.1221 51.6289 43.8096 51.6055 43.4971C51.3242 43.9971 50.8633 44.4424 50.2227 44.833C49.5898 45.2158 48.7773 45.4072 47.7852 45.4072C46.6367 45.4072 45.6719 45.0908 44.8906 44.458C44.1172 43.8174 43.7305 42.8994 43.7305 41.7041ZM45.7109 41.5986C45.7109 42.3018 45.9141 42.8486 46.3203 43.2393C46.7266 43.6221 47.3516 43.8135 48.1953 43.8135C49.0469 43.8135 49.8203 43.5205 50.5156 42.9346C51.2109 42.3408 51.5586 41.708 51.5586 41.0361V39.3018H49.0508C47.9414 39.3018 47.1055 39.5088 46.543 39.9229C45.9883 40.3369 45.7109 40.8955 45.7109 41.5986ZM56.7852 45.1963V33.2314H58.7305V40.8604C58.7305 41.1104 58.7266 41.3682 58.7188 41.6338C58.7188 41.8916 58.7148 42.1494 58.707 42.4072H58.8125C58.9219 42.1885 59.0391 41.9736 59.1641 41.7627C59.2891 41.5518 59.4297 41.3213 59.5859 41.0713L64.4141 33.2314H66.418V45.1963H64.4727V37.5791C64.4727 37.3291 64.4766 37.0674 64.4844 36.7939C64.5 36.5127 64.5156 36.2432 64.5312 35.9854H64.3789C64.2773 36.2041 64.1641 36.4268 64.0391 36.6533C63.9141 36.8721 63.7734 37.1104 63.6172 37.3682L58.8008 45.1963H56.7852ZM61.6133 29.7627C62.1367 29.7627 62.5859 29.6104 62.9609 29.3057C63.3359 28.9932 63.6445 28.501 63.8867 27.8291L65.4219 28.7432C65.0625 29.6338 64.5508 30.2939 63.8867 30.7236C63.2305 31.1533 62.4727 31.3682 61.6133 31.3682C60.7383 31.3682 59.9766 31.1572 59.3281 30.7354C58.6797 30.3135 58.168 29.6494 57.793 28.7432L59.3398 27.7939C59.5898 28.5205 59.8984 29.0322 60.2656 29.3291C60.6328 29.6182 61.082 29.7627 61.6133 29.7627ZM68.4219 34.8018V33.2314H77.9844V34.8018H74.1875V45.1963H72.2188V34.8018H68.4219ZM85.4492 45.1963V33.2314H90.5703C91.8594 33.2314 92.8789 33.4932 93.6289 34.0166C94.3789 34.54 94.7539 35.3369 94.7539 36.4072C94.7539 37.0869 94.5508 37.6572 94.1445 38.1182C93.7383 38.5713 93.2031 38.8682 92.5391 39.0088V39.0439C93.3594 39.1611 94.0039 39.458 94.4727 39.9346C94.9492 40.4033 95.1875 41.0127 95.1875 41.7627C95.1875 42.8408 94.7969 43.6846 94.0156 44.2939C93.2422 44.8955 92.2031 45.1963 90.8984 45.1963H85.4492ZM87.4297 38.3291H90.5703C91.3438 38.3291 91.9023 38.1689 92.2461 37.8486C92.5898 37.5205 92.7617 37.0674 92.7617 36.4893C92.7617 35.9424 92.5898 35.5244 92.2461 35.2354C91.9023 34.9385 91.3438 34.79 90.5703 34.79H87.4297V38.3291ZM87.4297 43.6377H90.8984C91.6797 43.6377 92.2578 43.4697 92.6328 43.1338C93.0156 42.79 93.207 42.3291 93.207 41.751C93.207 41.1885 93.0195 40.7393 92.6445 40.4033C92.2773 40.0596 91.6953 39.8877 90.8984 39.8877H87.4297V43.6377ZM102.242 34.8018V33.2314H111.805V34.8018H108.008V45.1963H106.039V34.8018H102.242ZM113.082 39.3955V39.0205C113.082 37.2158 113.57 35.7471 114.547 34.6143C115.523 33.4736 116.812 32.9033 118.414 32.9033C120.023 32.9033 121.262 33.4346 122.129 34.4971C122.996 35.5518 123.43 36.9932 123.43 38.8213V39.6299H114.266V38.0361H121.438V37.8018C121.438 36.9111 121.191 36.1455 120.699 35.5049C120.207 34.8643 119.473 34.5439 118.496 34.5439C117.355 34.5439 116.5 34.9736 115.93 35.833C115.367 36.6846 115.086 37.7471 115.086 39.0205V39.3955C115.086 40.6768 115.383 41.7471 115.977 42.6064C116.578 43.458 117.492 43.8838 118.719 43.8838C119.492 43.8838 120.156 43.7197 120.711 43.3916C121.266 43.0557 121.711 42.6533 122.047 42.1846L123.336 43.2275C122.969 43.79 122.395 44.3135 121.613 44.7979C120.832 45.2822 119.871 45.5244 118.73 45.5244C116.91 45.5244 115.512 44.958 114.535 43.8252C113.566 42.6846 113.082 41.208 113.082 39.3955ZM124.461 45.1963L128.926 38.5986L129.066 38.5635L132.441 33.2314H134.656L130.402 39.6416L130.25 39.665L126.664 45.1963H124.461ZM124.695 33.2314H126.945L130.309 38.54L130.426 38.5986L134.879 45.1963H132.629L129.055 39.6885L128.938 39.6416L124.695 33.2314ZM136.73 33.2314H138.711V38.3057H144.184V33.2314H146.152V45.1963H144.184V39.876H138.711V45.1963H136.73V33.2314ZM149.48 45.1963V33.2314H151.426V40.8604C151.426 41.1104 151.422 41.3682 151.414 41.6338C151.414 41.8916 151.41 42.1494 151.402 42.4072H151.508C151.617 42.1885 151.734 41.9736 151.859 41.7627C151.984 41.5518 152.125 41.3213 152.281 41.0713L157.109 33.2314H159.113V45.1963H157.168V37.5791C157.168 37.3291 157.172 37.0674 157.18 36.7939C157.195 36.5127 157.211 36.2432 157.227 35.9854H157.074C156.973 36.2041 156.859 36.4268 156.734 36.6533C156.609 36.8721 156.469 37.1104 156.312 37.3682L151.496 45.1963H149.48ZM164.141 36.3955C164.141 37.4033 164.34 38.1104 164.738 38.5166C165.145 38.915 165.809 39.1143 166.73 39.1143C167.449 39.1143 168.078 39.0635 168.617 38.9619C169.164 38.8604 169.75 38.7275 170.375 38.5635V40.1455C169.766 40.2861 169.18 40.415 168.617 40.5322C168.062 40.6416 167.316 40.6963 166.379 40.6963C164.934 40.6963 163.867 40.3408 163.18 39.6299C162.5 38.9111 162.16 37.833 162.16 36.3955V33.2314H164.141V36.3955ZM171.371 33.2314V45.1963H169.391V33.2314H171.371ZM173.949 39.3955V39.0205C173.949 37.2158 174.438 35.7471 175.414 34.6143C176.391 33.4736 177.68 32.9033 179.281 32.9033C180.891 32.9033 182.129 33.4346 182.996 34.4971C183.863 35.5518 184.297 36.9932 184.297 38.8213V39.6299H175.133V38.0361H182.305V37.8018C182.305 36.9111 182.059 36.1455 181.566 35.5049C181.074 34.8643 180.34 34.5439 179.363 34.5439C178.223 34.5439 177.367 34.9736 176.797 35.833C176.234 36.6846 175.953 37.7471 175.953 39.0205V39.3955C175.953 40.6768 176.25 41.7471 176.844 42.6064C177.445 43.458 178.359 43.8838 179.586 43.8838C180.359 43.8838 181.023 43.7197 181.578 43.3916C182.133 43.0557 182.578 42.6533 182.914 42.1846L184.203 43.2275C183.836 43.79 183.262 44.3135 182.48 44.7979C181.699 45.2822 180.738 45.5244 179.598 45.5244C177.777 45.5244 176.379 44.958 175.402 43.8252C174.434 42.6846 173.949 41.208 173.949 39.3955ZM186.066 39.3955V39.0205C186.066 37.2002 186.551 35.7275 187.52 34.6025C188.488 33.4697 189.816 32.9033 191.504 32.9033C193.082 32.9033 194.277 33.3252 195.09 34.1689C195.91 35.0127 196.32 35.9854 196.32 37.0869V37.1807H194.398V37.0869C194.398 36.3838 194.164 35.7861 193.695 35.2939C193.234 34.7939 192.508 34.5439 191.516 34.5439C190.359 34.5439 189.496 34.9658 188.926 35.8096C188.363 36.6533 188.082 37.7236 188.082 39.0205V39.3955C188.082 40.6768 188.363 41.7471 188.926 42.6064C189.488 43.458 190.348 43.8838 191.504 43.8838C192.504 43.8838 193.238 43.6338 193.707 43.1338C194.176 42.6338 194.41 42.0244 194.41 41.3057V41.2236H196.332V41.3057C196.332 42.4072 195.922 43.3877 195.102 44.2471C194.281 45.0986 193.082 45.5244 191.504 45.5244C189.816 45.5244 188.488 44.958 187.52 43.8252C186.551 42.6924 186.066 41.2158 186.066 39.3955ZM206.328 45.1963L201.582 39.7588L202.824 38.4346L208.766 45.1963H206.328ZM199.684 38.3057H201.676L205.988 33.2314H208.309L202.602 39.876H199.684V38.3057ZM200.68 33.2314V45.1963H198.699V33.2314H200.68ZM209.551 39.3955V39.0205C209.551 37.2158 210.055 35.7471 211.062 34.6143C212.078 33.4736 213.434 32.9033 215.129 32.9033C216.824 32.9033 218.176 33.4736 219.184 34.6143C220.199 35.7471 220.707 37.2158 220.707 39.0205V39.3955C220.707 41.208 220.199 42.6846 219.184 43.8252C218.176 44.958 216.824 45.5244 215.129 45.5244C213.434 45.5244 212.078 44.958 211.062 43.8252C210.055 42.6846 209.551 41.208 209.551 39.3955ZM211.566 39.0205V39.3955C211.566 40.6689 211.863 41.7354 212.457 42.5947C213.059 43.4541 213.949 43.8838 215.129 43.8838C216.301 43.8838 217.188 43.4541 217.789 42.5947C218.391 41.7354 218.691 40.6689 218.691 39.3955V39.0205C218.691 37.7549 218.391 36.6924 217.789 35.833C217.188 34.9736 216.301 34.5439 215.129 34.5439C213.949 34.5439 213.059 34.9736 212.457 35.833C211.863 36.6924 211.566 37.7549 211.566 39.0205ZM223.285 45.1963V33.2314H225.969L229.52 41.6455C229.691 42.0518 229.809 42.3525 229.871 42.5479C229.934 42.7432 229.988 42.9463 230.035 43.1572H230.141C230.18 42.9463 230.23 42.7432 230.293 42.5479C230.355 42.3525 230.473 42.0557 230.645 41.6572L234.207 33.2314H236.844V45.1963H234.957V36.958C234.957 36.5439 234.961 36.2275 234.969 36.0088C234.984 35.7822 235 35.5713 235.016 35.376H234.922C234.875 35.5713 234.816 35.7783 234.746 35.9971C234.684 36.2158 234.566 36.5244 234.395 36.9229L230.891 45.1963H229.18L225.652 36.8994C225.504 36.54 225.395 36.2471 225.324 36.0205C225.254 35.7861 225.199 35.5713 225.16 35.376H225.055C225.07 35.5713 225.082 35.7783 225.09 35.9971C225.105 36.2158 225.113 36.5127 225.113 36.8877V45.1963H223.285ZM244.895 39.3955V39.0205C244.895 37.2158 245.398 35.7471 246.406 34.6143C247.422 33.4736 248.777 32.9033 250.473 32.9033C252.168 32.9033 253.52 33.4736 254.527 34.6143C255.543 35.7471 256.051 37.2158 256.051 39.0205V39.3955C256.051 41.208 255.543 42.6846 254.527 43.8252C253.52 44.958 252.168 45.5244 250.473 45.5244C248.777 45.5244 247.422 44.958 246.406 43.8252C245.398 42.6846 244.895 41.208 244.895 39.3955ZM246.91 39.0205V39.3955C246.91 40.6689 247.207 41.7354 247.801 42.5947C248.402 43.4541 249.293 43.8838 250.473 43.8838C251.645 43.8838 252.531 43.4541 253.133 42.5947C253.734 41.7354 254.035 40.6689 254.035 39.3955V39.0205C254.035 37.7549 253.734 36.6924 253.133 35.833C252.531 34.9736 251.645 34.5439 250.473 34.5439C249.293 34.5439 248.402 34.9736 247.801 35.833C247.207 36.6924 246.91 37.7549 246.91 39.0205ZM260 39.208V39.583C260 40.8018 260.301 41.8252 260.902 42.6533C261.504 43.4736 262.391 43.8838 263.562 43.8838C264.742 43.8838 265.633 43.4736 266.234 42.6533C266.836 41.8252 267.137 40.8018 267.137 39.583V39.208C267.137 37.9893 266.836 36.9697 266.234 36.1494C265.633 35.3213 264.742 34.9072 263.562 34.9072C262.391 34.9072 261.504 35.3213 260.902 36.1494C260.301 36.9697 260 37.9893 260 39.208ZM264.043 33.2666C265.613 33.2666 266.855 33.8291 267.77 34.9541C268.691 36.0791 269.152 37.4971 269.152 39.208V39.583C269.152 41.333 268.645 42.7627 267.629 43.8721C266.621 44.9736 265.27 45.5244 263.574 45.5244C261.824 45.5244 260.453 44.9775 259.461 43.8838C258.477 42.7822 257.984 40.9346 257.984 38.3408V37.9072C257.984 35.1182 258.434 32.9424 259.332 31.3799C260.23 29.8096 261.938 28.8408 264.453 28.4736C265.719 28.2861 266.461 28.1143 266.68 27.958C266.906 27.7939 267.039 27.6104 267.078 27.4072H268.801C268.723 28.1885 268.406 28.8057 267.852 29.2588C267.297 29.7119 266.242 30.04 264.688 30.2432C262.742 30.501 261.43 31.1182 260.75 32.0947C260.07 33.0635 259.664 34.3682 259.531 36.0088H259.66C260.043 35.165 260.605 34.4971 261.348 34.0049C262.098 33.5127 262.996 33.2666 264.043 33.2666ZM271.004 39.3955V39.0205C271.004 37.2002 271.488 35.7275 272.457 34.6025C273.426 33.4697 274.754 32.9033 276.441 32.9033C278.02 32.9033 279.215 33.3252 280.027 34.1689C280.848 35.0127 281.258 35.9854 281.258 37.0869V37.1807H279.336V37.0869C279.336 36.3838 279.102 35.7861 278.633 35.2939C278.172 34.7939 277.445 34.5439 276.453 34.5439C275.297 34.5439 274.434 34.9658 273.863 35.8096C273.301 36.6533 273.02 37.7236 273.02 39.0205V39.3955C273.02 40.6768 273.301 41.7471 273.863 42.6064C274.426 43.458 275.285 43.8838 276.441 43.8838C277.441 43.8838 278.176 43.6338 278.645 43.1338C279.113 42.6338 279.348 42.0244 279.348 41.3057V41.2236H281.27V41.3057C281.27 42.4072 280.859 43.3877 280.039 44.2471C279.219 45.0986 278.02 45.5244 276.441 45.5244C274.754 45.5244 273.426 44.958 272.457 43.8252C271.488 42.6924 271.004 41.2158 271.004 39.3955ZM286.543 34.8018L286.285 39.958C286.199 41.8877 285.949 43.2822 285.535 44.1416C285.121 45.001 284.371 45.4307 283.285 45.4307C283.035 45.4307 282.809 45.4111 282.605 45.3721C282.402 45.3408 282.234 45.2939 282.102 45.2314V43.5557C282.227 43.6025 282.355 43.6377 282.488 43.6611C282.621 43.6846 282.766 43.6963 282.922 43.6963C283.5 43.6963 283.887 43.4072 284.082 42.8291C284.277 42.2432 284.41 41.1924 284.48 39.6768L284.785 33.2314H292.906V45.1963H290.926V34.8018H286.543ZM295.121 50.0713V48.3838C295.324 48.4541 295.543 48.5049 295.777 48.5361C296.02 48.5752 296.258 48.5947 296.492 48.5947C297.031 48.5947 297.5 48.3643 297.898 47.9033C298.297 47.4502 298.723 46.54 299.176 45.1729L294.688 33.2314H296.621L299.551 41.3057C299.66 41.6104 299.754 41.8916 299.832 42.1494C299.918 42.4072 299.992 42.6533 300.055 42.8877H300.125C300.188 42.6533 300.262 42.4072 300.348 42.1494C300.434 41.8916 300.527 41.6104 300.629 41.3057L303.418 33.2314H305.305L300.359 46.8369C299.953 47.9541 299.449 48.8096 298.848 49.4033C298.254 50.0049 297.508 50.3057 296.609 50.3057C296.297 50.3057 296.023 50.2861 295.789 50.2471C295.555 50.208 295.332 50.1494 295.121 50.0713ZM314.152 45.1963H312.242V33.2314H314.152V45.1963ZM319.109 45.1963L315.219 39.8057L316.52 38.5518L321.383 45.1963H319.109ZM313.203 38.3057H315.172L318.723 33.2314H320.914L316.191 39.876H313.203V38.3057ZM307.285 45.1963H305.059L309.934 38.5518L311.152 39.8057L307.285 45.1963ZM313.203 38.3057V39.876H310.18L305.469 33.2314H307.672L311.211 38.3057H313.203ZM322.801 45.1963V33.2314H324.746V40.8604C324.746 41.1104 324.742 41.3682 324.734 41.6338C324.734 41.8916 324.73 42.1494 324.723 42.4072H324.828C324.938 42.1885 325.055 41.9736 325.18 41.7627C325.305 41.5518 325.445 41.3213 325.602 41.0713L330.43 33.2314H332.434V45.1963H330.488V37.5791C330.488 37.3291 330.492 37.0674 330.5 36.7939C330.516 36.5127 330.531 36.2432 330.547 35.9854H330.395C330.293 36.2041 330.18 36.4268 330.055 36.6533C329.93 36.8721 329.789 37.1104 329.633 37.3682L324.816 45.1963H322.801ZM335.738 45.1963V33.2314H340.859C342.148 33.2314 343.168 33.4932 343.918 34.0166C344.668 34.54 345.043 35.3369 345.043 36.4072C345.043 37.0869 344.84 37.6572 344.434 38.1182C344.027 38.5713 343.492 38.8682 342.828 39.0088V39.0439C343.648 39.1611 344.293 39.458 344.762 39.9346C345.238 40.4033 345.477 41.0127 345.477 41.7627C345.477 42.8408 345.086 43.6846 344.305 44.2939C343.531 44.8955 342.492 45.1963 341.188 45.1963H335.738ZM337.719 38.3291H340.859C341.633 38.3291 342.191 38.1689 342.535 37.8486C342.879 37.5205 343.051 37.0674 343.051 36.4893C343.051 35.9424 342.879 35.5244 342.535 35.2354C342.191 34.9385 341.633 34.79 340.859 34.79H337.719V38.3291ZM337.719 43.6377H341.188C341.969 43.6377 342.547 43.4697 342.922 43.1338C343.305 42.79 343.496 42.3291 343.496 41.751C343.496 41.1885 343.309 40.7393 342.934 40.4033C342.566 40.0596 341.984 39.8877 341.188 39.8877H337.719V43.6377ZM347.691 41.7041C347.691 40.501 348.164 39.5596 349.109 38.8799C350.062 38.2002 351.285 37.8604 352.777 37.8604H355.52V36.958C355.52 36.2158 355.324 35.6221 354.934 35.1768C354.551 34.7314 353.898 34.5088 352.977 34.5088C352.062 34.5088 351.395 34.6963 350.973 35.0713C350.559 35.4385 350.352 35.8916 350.352 36.4307V36.5361H348.383V36.3955C348.383 35.4502 348.801 34.6338 349.637 33.9463C350.473 33.251 351.602 32.9033 353.023 32.9033C354.438 32.9033 355.535 33.2393 356.316 33.9111C357.098 34.5752 357.488 35.5908 357.488 36.958V42.3838C357.488 42.8916 357.527 43.3721 357.605 43.8252C357.684 44.2705 357.793 44.665 357.934 45.0088V45.1963H356.035C355.926 45.001 355.824 44.7471 355.73 44.4346C355.645 44.1221 355.59 43.8096 355.566 43.4971C355.285 43.9971 354.824 44.4424 354.184 44.833C353.551 45.2158 352.738 45.4072 351.746 45.4072C350.598 45.4072 349.633 45.0908 348.852 44.458C348.078 43.8174 347.691 42.8994 347.691 41.7041ZM349.672 41.5986C349.672 42.3018 349.875 42.8486 350.281 43.2393C350.688 43.6221 351.312 43.8135 352.156 43.8135C353.008 43.8135 353.781 43.5205 354.477 42.9346C355.172 42.3408 355.52 41.708 355.52 41.0361V39.3018H353.012C351.902 39.3018 351.066 39.5088 350.504 39.9229C349.949 40.3369 349.672 40.8955 349.672 41.5986ZM360.746 33.2314H362.727V38.3057H368.199V33.2314H370.168V45.1963H368.199V39.876H362.727V45.1963H360.746V33.2314ZM373.496 45.1963V33.2314H375.441V40.8604C375.441 41.1104 375.438 41.3682 375.43 41.6338C375.43 41.8916 375.426 42.1494 375.418 42.4072H375.523C375.633 42.1885 375.75 41.9736 375.875 41.7627C376 41.5518 376.141 41.3213 376.297 41.0713L381.125 33.2314H383.129V45.1963H381.184V37.5791C381.184 37.3291 381.188 37.0674 381.195 36.7939C381.211 36.5127 381.227 36.2432 381.242 35.9854H381.09C380.988 36.2041 380.875 36.4268 380.75 36.6533C380.625 36.8721 380.484 37.1104 380.328 37.3682L375.512 45.1963H373.496ZM386.434 45.1963V33.2314H388.379V40.8604C388.379 41.1104 388.375 41.3682 388.367 41.6338C388.367 41.8916 388.363 42.1494 388.355 42.4072H388.461C388.57 42.1885 388.688 41.9736 388.812 41.7627C388.938 41.5518 389.078 41.3213 389.234 41.0713L394.062 33.2314H396.066V45.1963H394.121V37.5791C394.121 37.3291 394.125 37.0674 394.133 36.7939C394.148 36.5127 394.164 36.2432 394.18 35.9854H394.027C393.926 36.2041 393.812 36.4268 393.688 36.6533C393.562 36.8721 393.422 37.1104 393.266 37.3682L388.449 45.1963H386.434Z" fill="white"/>
<path d="M371.569 88.3826L397.179 62.7722C398.514 61.4373 397.569 59.1548 395.681 59.1548H370.071C368.9 59.1548 367.952 60.1035 367.952 61.2738V86.8842C367.952 88.7721 370.234 89.7175 371.569 88.3826Z" fill="black"/>
</svg>
