<svg width="29" height="26" viewBox="0 0 29 26" fill="none" xmlns="http://www.w3.org/2000/svg">
<path d="M22.6503 0.899385H28.3886C27.2994 2.82252 26.2524 4.67815 25.2012 6.53091C21.7298 12.6493 18.2584 18.7677 14.7843 24.8847C14.669 25.0872 14.5425 25.4147 14.3908 25.4348C14.097 25.4736 14.0591 25.0944 13.9382 24.8833C9.57021 17.1951 5.20923 9.50538 0.84684 1.81428C0.686623 1.53277 0.527812 1.24839 0.331055 0.897949C2.30706 0.897949 4.1889 0.897949 6.07074 0.897949C6.05388 1.20818 6.2422 1.44085 6.37993 1.68358C8.9181 6.16898 11.4633 10.6515 14.0085 15.134C14.0984 15.292 14.1336 15.5348 14.3612 15.5348C14.5875 15.5348 14.6241 15.292 14.714 15.134C16.9303 11.2303 19.1565 7.33234 21.3517 3.41569C21.8127 2.59416 22.4086 1.84013 22.6532 0.897949L22.6503 0.899385Z" fill="black"/>
</svg>
