<svg width="35" height="36" viewBox="0 0 35 36" fill="none" xmlns="http://www.w3.org/2000/svg">
<path d="M0.265176 35.6335C0.265176 23.9997 0.265343 12.366 0.263672 0.732209C0.263672 0.668156 0.277712 0.653809 0.340389 0.653809C11.6993 0.655517 23.0581 0.655517 34.417 0.653809C34.4797 0.653809 34.4937 0.668156 34.4937 0.732209C34.4921 12.3404 34.4921 23.9484 34.4937 35.5566C34.4937 35.6207 34.4797 35.635 34.417 35.635C23.0332 35.6333 11.6492 35.6335 0.265343 35.6335H0.265176ZM26.5657 32.8953C26.8324 32.89 27.1602 32.8751 27.4871 32.8348C28.1968 32.747 28.8797 32.5649 29.5187 32.2325C30.5613 31.6901 31.296 30.8721 31.6398 29.7147C31.8631 28.9631 31.8772 28.1974 31.7709 27.425C31.6377 26.4581 31.2277 25.6367 30.5361 24.9622C29.9888 24.4284 29.3499 24.0338 28.6815 23.6837C28.0231 23.3388 27.3362 23.0592 26.6594 22.756C26.2469 22.5712 25.8376 22.3801 25.4637 22.1187C24.9743 21.7768 24.7393 21.3086 24.781 20.7005C24.8074 20.3152 24.9603 19.9942 25.2531 19.7476C25.5209 19.5221 25.8359 19.4208 26.1771 19.4003C26.8431 19.3604 27.4249 19.5478 27.8826 20.0679C28.0641 20.2742 28.2157 20.5015 28.3492 20.742C28.3746 20.7876 28.3922 20.8013 28.4421 20.7683C29.2392 20.2429 30.0375 19.7192 30.8367 19.1973C30.886 19.1651 30.8809 19.1417 30.8555 19.0978C30.7433 18.9045 30.6253 18.7152 30.4963 18.5332C29.8934 17.6819 29.1184 17.0733 28.1242 16.772C27.6029 16.614 27.0691 16.5469 26.5272 16.5315C25.7659 16.5098 25.0211 16.6034 24.3073 16.8842C23.2132 17.3146 22.395 18.0529 21.9322 19.1672C21.5458 20.0979 21.5273 21.0635 21.7206 22.0398C21.9246 23.0701 22.4626 23.8903 23.2585 24.5433C23.8112 24.9968 24.427 25.342 25.0689 25.6409C25.7236 25.9458 26.3937 26.2154 27.0444 26.5295C27.4017 26.702 27.7515 26.8873 28.0609 27.1447C28.6599 27.6431 28.7136 28.399 28.5067 28.9013C28.3271 29.3375 27.9872 29.603 27.57 29.7729C27.103 29.9632 26.6151 30.0018 26.1177 29.9656C25.3459 29.9096 24.6723 29.6236 24.1057 29.081C23.7863 28.7751 23.5256 28.4217 23.2963 28.0428C23.2667 27.994 23.2465 27.9861 23.1956 28.0165C22.365 28.5124 21.5333 29.0063 20.7004 29.4984C20.651 29.5276 20.6495 29.549 20.674 29.5963C21.3279 30.8622 22.3003 31.7751 23.5881 32.3337C24.5189 32.7374 25.498 32.892 26.5657 32.8949V32.8953ZM18.8995 22.5821H18.9033C18.9033 20.658 18.9028 18.7339 18.9052 16.8097C18.9052 16.7308 18.8846 16.712 18.8087 16.7122C17.8032 16.7149 16.7979 16.7151 15.7924 16.712C15.71 16.7119 15.6871 16.7293 15.6873 16.8174C15.6901 18.8867 15.6896 20.9559 15.6894 23.0252C15.6894 24.6761 15.6901 26.3269 15.6876 27.9777C15.6871 28.2855 15.6563 28.5911 15.5729 28.8888C15.4422 29.3548 15.182 29.7036 14.7142 29.8534C14.3411 29.9728 13.9585 29.9904 13.5748 29.9202C13.0999 29.8334 12.7458 29.5522 12.4565 29.172C12.2592 28.9131 12.0964 28.6319 11.9418 28.3455C11.9076 28.2821 11.885 28.269 11.8205 28.3105C11.5853 28.4622 11.3458 28.6065 11.108 28.7537C10.5205 29.1174 9.93333 29.4817 9.34467 29.8433C9.28985 29.8769 9.27932 29.9044 9.31141 29.9615C9.37626 30.0773 9.43158 30.1987 9.49693 30.3142C10.0694 31.3257 10.8706 32.0718 11.9413 32.5007C12.6423 32.7815 13.3734 32.89 14.1232 32.8872C14.7641 32.885 15.3949 32.8109 16.007 32.6092C17.053 32.2643 17.8556 31.6178 18.3573 30.6066C18.7282 29.8592 18.8898 29.0557 18.8957 28.2261C18.9087 26.3448 18.8998 24.4632 18.8998 22.582L18.8995 22.5821Z" fill="black"/>
<path d="M26.5664 32.8943C25.4987 32.8916 24.5196 32.7368 23.5888 32.333C22.301 31.7745 21.3286 30.8613 20.6747 29.5957C20.6502 29.5482 20.6517 29.527 20.7012 29.4978C21.534 29.0057 22.3657 28.5117 23.1964 28.0159C23.2472 27.9855 23.2676 27.9933 23.297 28.0422C23.5261 28.421 23.787 28.7744 24.1064 29.0803C24.673 29.623 25.3466 29.9089 26.1185 29.965C26.6159 30.0012 27.1037 29.9624 27.5707 29.7723C27.9879 29.6023 28.3279 29.3367 28.5074 28.9007C28.7141 28.3983 28.6606 27.6425 28.0616 27.1441C27.7524 26.8868 27.4026 26.7014 27.0451 26.5288C26.3944 26.2147 25.7244 25.9452 25.0697 25.6403C24.4279 25.3412 23.8121 24.9962 23.2592 24.5427C22.4633 23.8897 21.9253 23.0695 21.7214 22.0392C21.5282 21.0629 21.5465 20.0971 21.933 19.1666C22.3958 18.0522 23.2139 17.314 24.308 16.8836C25.022 16.6026 25.7666 16.5091 26.528 16.5308C27.0698 16.5462 27.6037 16.6133 28.125 16.7713C29.1191 17.0726 29.8941 17.6812 30.497 18.5325C30.6259 18.7146 30.7439 18.9039 30.8562 19.0972C30.8816 19.1411 30.8868 19.1645 30.8375 19.1966C30.0382 19.7186 29.24 20.2423 28.4429 20.7677C28.3929 20.8007 28.3753 20.787 28.3499 20.7414C28.2162 20.5011 28.0648 20.2736 27.8833 20.0672C27.4257 19.5473 26.8437 19.3599 26.1778 19.3997C25.8367 19.4202 25.5216 19.5215 25.2539 19.747C24.9609 19.9936 24.8081 20.3145 24.7817 20.6999C24.7401 21.308 24.9751 21.7761 25.4644 22.1181C25.8383 22.3794 26.2477 22.5704 26.6602 22.7554C27.3367 23.0587 28.0238 23.3383 28.6822 23.683C29.3504 24.033 29.9896 24.4276 30.5368 24.9615C31.2282 25.636 31.6384 26.4573 31.7716 27.4244C31.8781 28.1968 31.8639 28.9625 31.6406 29.714C31.2966 30.8714 30.562 31.6894 29.5194 32.2319C28.8804 32.5643 28.1975 32.7464 27.4878 32.8342C27.1611 32.8746 26.8332 32.8893 26.5664 32.8946V32.8943Z" fill="white"/>
<path d="M18.8994 22.5819C18.8994 24.4633 18.9082 26.3447 18.8952 28.226C18.8895 29.0556 18.7277 29.8591 18.3568 30.6065C17.8551 31.6179 17.0525 32.2642 16.0065 32.6091C15.3945 32.811 14.7637 32.8849 14.1227 32.8871C13.3729 32.8897 12.6417 32.7814 11.9409 32.5006C10.87 32.0715 10.0689 31.3256 9.49645 30.3141C9.4311 30.1986 9.37595 30.0772 9.31093 29.9614C9.27901 29.9043 9.28937 29.8768 9.34419 29.8432C9.93285 29.4816 10.52 29.1173 11.1075 28.7536C11.3453 28.6064 11.585 28.462 11.82 28.3104C11.8845 28.2687 11.9073 28.282 11.9414 28.3454C12.096 28.6317 12.2589 28.9128 12.456 29.1719C12.7455 29.5521 13.0995 29.8331 13.5743 29.9201C13.9581 29.9903 14.3406 29.9727 14.7137 29.8533C15.1815 29.7036 15.4418 29.3547 15.5725 28.8887C15.6559 28.5912 15.6868 28.2854 15.6871 27.9776C15.6895 26.3268 15.6888 24.6759 15.689 23.0251C15.689 20.9558 15.6896 18.8866 15.6868 16.8173C15.6868 16.7292 15.7095 16.7116 15.7919 16.7119C16.7974 16.715 17.8028 16.7148 18.8083 16.7121C18.8842 16.7119 18.9047 16.7307 18.9047 16.8096C18.9024 18.7338 18.9029 20.6579 18.9029 22.582H18.899L18.8994 22.5819Z" fill="white"/>
</svg>
